<svg width="106" height="92" viewBox="0 0 106 92" fill="none" xmlns="http://www.w3.org/2000/svg">
<path d="M14.6553 77.7165L12.1948 76.1641C12.1948 76.1641 10.7737 78.0579 8.60258 76.7388C8.17917 76.4915 7.8503 76.1295 7.66158 75.7031C7.47287 75.2767 7.43367 74.8071 7.54943 74.3594C7.64121 73.9819 7.82913 73.6297 8.09785 73.3316C8.36657 73.0334 8.70845 72.7977 9.09559 72.6437C9.98439 72.2768 11.3292 72.281 12.7874 73.5938L16.6018 68.504L14.1692 66.9707L11.9356 69.9397C11.9356 69.9397 7.91746 68.5973 5.32973 72.0414C2.85542 75.337 5.50564 78.1364 6.88746 79.0059C7.94292 79.6867 11.7041 81.7204 14.6553 77.7165Z" fill="#EBEBEB"/>
<path d="M14.9151 65.9132L17.3826 67.4688L18.9688 65.3565L16.5013 63.8009L14.9151 65.9132Z" fill="#EBEBEB"/>
<path d="M25.1313 83.9496L26.4368 83.6336C26.398 83.4975 26.3891 83.3557 26.4107 83.2165C26.4323 83.0772 26.484 82.9433 26.5626 82.8225C26.6412 82.7017 26.7453 82.5965 26.8687 82.5129C26.9921 82.4293 27.1325 82.3691 27.2816 82.3357C27.4991 82.2751 27.7318 82.2783 27.9472 82.3448C28.1626 82.4113 28.3499 82.5379 28.4829 82.7068C28.5972 82.8466 28.6738 83.0092 28.7064 83.1814C28.739 83.3535 28.7266 83.5303 28.6704 83.6972C28.5454 84.0853 28.1473 84.5073 27.2261 84.5773L28.0014 87.277L29.293 86.9652L28.8301 85.3832C29.3184 85.1119 29.6961 84.7013 29.9051 84.2144C30.1142 83.7274 30.1431 83.1911 29.9874 82.6877C29.4828 80.9381 27.6519 80.9445 26.9205 81.1226C26.372 81.2583 24.4995 81.8437 25.1313 83.9496Z" fill="#EBEBEB"/>
<path d="M29.4753 87.513L28.1638 87.8301L28.4868 88.9517L29.7983 88.6347L29.4753 87.513Z" fill="#EBEBEB"/>
<path d="M46.8287 8.38356C47.489 8.0149 48.2006 7.72956 48.9443 7.53526L49.3794 5.6266L52.9184 5.56934L53.4276 7.478C54.1783 7.64648 54.9008 7.90684 55.5756 8.25207L57.3648 7.17685L59.9108 9.42908L58.8021 11.1045C59.2031 11.7109 59.5144 12.3634 59.728 13.0449L61.8227 13.4436L61.8829 16.6862L59.7997 17.1528C59.6148 17.8403 59.3307 18.5021 58.9549 19.1209L60.1261 20.7602L57.668 23.093L55.8395 22.0772C55.1783 22.4458 54.4659 22.7312 53.7216 22.9255L53.2865 24.8468L49.7474 24.902L49.2382 22.9933C48.4872 22.8258 47.7646 22.5654 47.0903 22.2192L45.3011 23.2945L42.755 21.0422L43.8637 19.3669C43.4613 18.7611 43.1499 18.1084 42.9379 17.4264L40.8547 17.0277L40.7922 13.7851L42.8754 13.3185C43.0559 12.6266 43.3377 11.9603 43.7133 11.3377L42.5398 9.69841L44.9979 7.3656L46.8287 8.38356ZM48.7151 12.7035C48.1944 13.1991 47.8458 13.825 47.7134 14.502C47.581 15.1791 47.6706 15.877 47.971 16.5074C48.2715 17.1378 48.7692 17.6724 49.4012 18.0436C50.0332 18.4149 50.7712 18.606 51.5218 18.593C52.2724 18.5799 53.002 18.3633 53.6182 17.9703C54.2344 17.5774 54.7096 17.0259 54.9837 16.3855C55.2578 15.7451 55.3185 15.0446 55.1581 14.3726C54.9977 13.7006 54.6235 13.0873 54.0827 12.6102C53.3571 11.9709 52.3843 11.6216 51.3778 11.6391C50.3714 11.6566 49.4137 12.0394 48.7151 12.7035Z" fill="#F5F5F5"/>
<path d="M32.0152 1.62236C32.3967 1.41246 32.8068 1.24986 33.235 1.13884L33.485 0.0318106L35.5241 0L35.8181 1.09642C36.2501 1.19321 36.6659 1.34302 37.0541 1.54178L38.0841 0.922521L39.5423 2.21829L38.9035 3.18323C39.1338 3.53241 39.3121 3.9083 39.4335 4.30086L40.6394 4.5299L40.6741 6.39827L39.4775 6.67184C39.3722 7.06778 39.2087 7.44876 38.9914 7.80432L39.6673 8.74805L38.2507 10.0926L37.1976 9.50727C36.8165 9.71834 36.4062 9.88168 35.9778 9.99292L35.7186 11.0957L33.6794 11.1296L33.404 10.0332C32.9722 9.93473 32.5566 9.78426 32.168 9.58574L31.138 10.205L29.6705 8.9071L30.3001 7.94429C30.0693 7.59604 29.891 7.2208 29.77 6.82878L28.5641 6.59762L28.5271 4.72925L29.7261 4.46203C29.8313 4.06542 29.9948 3.68373 30.2121 3.32744L29.5363 2.38371L30.9528 1.04128L32.0152 1.62236ZM33.1008 4.11211C32.7987 4.3968 32.5957 4.75728 32.5176 5.14781C32.4395 5.53835 32.4898 5.94134 32.662 6.30566C32.8343 6.66999 33.1208 6.97922 33.4851 7.19414C33.8495 7.40906 34.2753 7.51998 34.7085 7.51282C35.1418 7.50566 35.563 7.38075 35.9187 7.15394C36.2743 6.92712 36.5484 6.60862 36.7062 6.23885C36.864 5.86907 36.8984 5.46468 36.805 5.07698C36.7115 4.68928 36.4945 4.33574 36.1815 4.06121C35.7641 3.69297 35.2043 3.49152 34.625 3.50106C34.0457 3.5106 33.4942 3.73037 33.0915 4.11211H33.1008Z" fill="#EBEBEB"/>
<path d="M97.0716 36.3011C97.4522 36.0905 97.8616 35.9272 98.2891 35.8154L98.5414 34.7105L100.578 34.6787L100.872 35.7751C101.305 35.8715 101.722 36.0214 102.111 36.2205L103.141 35.6012L104.606 36.8991L103.967 37.8641C104.197 38.2132 104.375 38.5891 104.497 38.9817L105.705 39.2107L105.74 41.0791L104.543 41.3484C104.435 41.7437 104.272 42.1243 104.057 42.4809L104.731 43.4246L103.316 44.7692L102.263 44.1839C101.882 44.3949 101.472 44.5583 101.043 44.6695L100.791 45.7744L98.7543 45.8083L98.4604 44.7098C98.0282 44.6134 97.6124 44.4636 97.2244 44.2644L96.1921 44.8837L94.7269 43.5858L95.3658 42.6209C95.135 42.2719 94.9567 41.8959 94.8357 41.5032L93.6298 41.2742L93.5928 39.4058L94.7894 39.1365C94.8971 38.7413 95.0605 38.3606 95.2755 38.004L94.6019 37.0603L96.0162 35.7158L97.0716 36.3011ZM98.1572 38.7887C97.8565 39.0737 97.6548 39.4341 97.5777 39.8241C97.5006 40.2142 97.5514 40.6164 97.7238 40.98C97.8962 41.3436 98.1824 41.6521 98.5462 41.8667C98.91 42.0812 99.335 42.1921 99.7676 42.1853C100.2 42.1784 100.621 42.0542 100.976 41.8283C101.332 41.6025 101.606 41.285 101.765 40.9162C101.924 40.5475 101.959 40.1438 101.867 39.7565C101.776 39.3691 101.561 39.0153 101.249 38.7399C100.832 38.3713 100.272 38.1694 99.6923 38.1785C99.1126 38.1877 98.5605 38.4071 98.1572 38.7887Z" fill="#EBEBEB"/>
<path d="M102.559 91.5678C102.559 91.5996 80.6096 91.623 53.5427 91.623C26.4757 91.623 4.52173 91.5996 4.52173 91.5678C4.52173 91.536 26.4641 91.5127 53.5427 91.5127C80.6212 91.5127 102.559 91.5381 102.559 91.5678Z" fill="#263238"/>
<path d="M91.8842 91.4126L59.0169 91.3957C57.1183 91.3945 55.298 90.7027 53.956 89.4723C52.614 88.2419 51.8601 86.5736 51.8601 84.8341L51.8763 9.33581C51.8806 7.59477 52.6385 5.92639 53.9836 4.69668C55.3288 3.46697 57.1514 2.77636 59.0516 2.77637L91.9189 2.79545C93.8174 2.79658 95.6377 3.48838 96.9798 4.71879C98.3218 5.9492 99.0756 7.61752 99.0756 9.35702L99.0594 84.8553C99.0594 85.7178 98.8737 86.5719 98.5129 87.3686C98.1521 88.1653 97.6233 88.8889 96.9567 89.498C96.2902 90.1072 95.4991 90.5898 94.6286 90.9184C93.7582 91.2469 92.8256 91.4148 91.8842 91.4126Z" fill="#455A64"/>
<path d="M91.8725 5.45703H85.5004C85.0803 5.46593 84.6812 5.62729 84.3909 5.90565C84.1005 6.18401 83.9427 6.5566 83.952 6.94155V8.00192C83.9613 8.38687 83.8034 8.75946 83.5131 9.03782C83.2227 9.31618 82.8236 9.47754 82.4035 9.48644H69.981C69.5613 9.47698 69.1628 9.31538 68.873 9.03708C68.5831 8.75878 68.4256 8.38651 68.4349 8.00192V6.94155C68.4442 6.5566 68.2863 6.18401 67.996 5.90565C67.7056 5.62729 67.3066 5.46593 66.8864 5.45703H59.0677C57.7405 5.4559 56.4669 5.93704 55.5262 6.79494C54.5855 7.65285 54.0545 8.81752 54.0496 10.0336L54.0334 83.7335C54.0359 84.9505 54.5651 86.1169 55.505 86.9769C56.4448 87.8368 57.7186 88.3201 59.0469 88.3206L91.8517 88.3376C92.5104 88.3379 93.1627 88.2193 93.7713 87.9886C94.38 87.7579 94.9331 87.4196 95.3991 86.9931C95.865 86.5665 96.2347 86.0601 96.4871 85.5026C96.7394 84.9451 96.8695 84.3476 96.8698 83.7441L96.8837 10.0442C96.8818 8.82738 96.3531 7.66096 95.4136 6.80094C94.4741 5.94093 93.2006 5.45759 91.8725 5.45703Z" fill="white"/>
<path d="M96.8813 20.9469V9.96784C96.8576 8.76469 96.3196 7.61808 95.383 6.77456C94.4463 5.93103 93.1858 5.45795 91.8725 5.45703H85.5004C85.2922 5.46116 85.0871 5.50286 84.8965 5.57973C84.706 5.65661 84.5339 5.76715 84.3901 5.90504C84.2463 6.04293 84.1335 6.20546 84.0583 6.38331C83.9831 6.56117 83.947 6.75087 83.9519 6.94155V8.00192C83.9612 8.38687 83.8033 8.75946 83.513 9.03782C83.2226 9.31618 82.8236 9.47754 82.4034 9.48643H69.981C69.5612 9.47698 69.1627 9.31538 68.8729 9.03708C68.583 8.75878 68.4255 8.38651 68.4348 8.00192V6.94155C68.4441 6.5566 68.2863 6.18401 67.9959 5.90565C67.7056 5.62729 67.3065 5.46593 66.8863 5.45703H59.0676C57.7404 5.4559 56.4668 5.93704 55.5261 6.79494C54.5855 7.65285 54.0545 8.81752 54.0496 10.0336V20.9808H96.8813V20.9469Z" fill="#EBEBEB"/>
<path d="M62.7849 35.8381C65.6522 35.8381 67.9766 33.7132 67.9766 31.0919C67.9766 28.4707 65.6522 26.3457 62.7849 26.3457C59.9176 26.3457 57.5933 28.4707 57.5933 31.0919C57.5933 33.7132 59.9176 35.8381 62.7849 35.8381Z" fill="#E0E0E0"/>
<path d="M60.3594 32.2799L61.7204 32.1738L65.0395 32.687L65.4307 34.9753L65.3751 35.2425C64.6274 35.6292 63.7872 35.8409 62.9289 35.8591C62.0706 35.8772 61.2206 35.7011 60.4543 35.3465L60.3594 32.2799Z" fill="#455A64"/>
<path d="M64.3289 32.6509C64.658 32.6068 64.994 32.6485 65.2985 32.7711C65.6031 32.8937 65.8638 33.0924 66.0509 33.3443C66.2758 33.6321 66.4822 33.9316 66.6689 34.2414C66.1273 34.7801 65.6875 35.1894 64.9376 35.429L64.3289 32.6509Z" fill="#455A64"/>
<path d="M60.3592 32.2799C60.3592 32.2799 59.4612 32.3817 59.114 33.0836C58.7668 33.7856 58.6858 34.004 58.6858 34.004C59.1487 34.5172 59.7412 35.1238 60.4657 35.3507C60.4657 35.3507 60.6301 33.582 60.6509 33.0836C60.6763 32.5449 60.6995 32.265 60.3592 32.2799Z" fill="#455A64"/>
<path d="M61.1784 27.7842C61.4047 27.5187 61.6931 27.3031 62.0224 27.1534C62.3517 27.0036 62.7135 26.9235 63.081 26.9189C63.3971 26.9189 63.7107 26.9706 64.0069 27.0716C64.3188 27.1393 64.5943 27.3061 64.7846 27.5424C65.0206 27.8203 65.1752 28.1488 65.2336 28.4968C65.2879 28.8529 65.3065 29.2128 65.2892 29.572C65.2702 29.9337 65.1429 30.2837 64.9212 30.5836L63.9236 30.7405C63.3735 30.7807 62.8201 30.7536 62.2779 30.6599C61.7297 30.5635 61.2454 30.2723 60.9308 29.8498C60.5304 29.2539 60.697 28.3271 61.1784 27.7842Z" fill="#263238"/>
<path d="M60.2159 30.4243C60.2261 30.3209 60.2618 30.221 60.3204 30.1321C60.3789 30.0432 60.4587 29.9676 60.5538 29.9111C60.6512 29.8575 60.7645 29.8336 60.8777 29.8427C60.9908 29.8519 61.0978 29.8936 61.1834 29.962L61.3408 30.1317C61.4622 30.1831 61.5632 30.2679 61.6296 30.3744C61.6959 30.4808 61.7244 30.6035 61.7111 30.7255C61.6939 30.8476 61.6383 30.9624 61.5512 31.0562C61.4641 31.1499 61.3492 31.2185 61.2204 31.2536C61.0917 31.287 60.9558 31.2896 60.8256 31.261C60.6955 31.2324 60.5756 31.1736 60.4775 31.0903C60.3811 31.005 60.3075 30.9006 60.2621 30.7852C60.2168 30.6697 60.201 30.5463 60.2159 30.4243Z" fill="#263238"/>
<path d="M60.4123 31.0483C60.3749 30.9946 60.3563 30.9317 60.3591 30.868C60.3924 30.7136 60.4727 30.571 60.5906 30.4566C60.7023 30.3364 60.8383 30.237 60.991 30.1639C61.1067 30.1067 61.1877 30.0855 61.1854 30.0791C61.1115 30.0841 61.0397 30.1036 60.9748 30.1364C60.8116 30.2028 60.6674 30.303 60.5535 30.429C60.4897 30.4929 60.4352 30.5642 60.3915 30.6411C60.3536 30.7067 60.3315 30.7791 60.3267 30.8532C60.3257 30.9041 60.341 30.9543 60.3707 30.9974C60.3915 31.0398 60.4123 31.061 60.4123 31.0483Z" fill="#455A64"/>
<path d="M63.9144 32.4873V31.639C63.9144 31.639 64.7268 31.5563 64.9536 30.602C65.0603 29.9707 65.1021 29.3317 65.0786 28.6933C65.0786 28.1144 64.5347 27.3255 63.7524 27.3233L63.4052 27.2852L62.0743 27.7687C61.9818 27.7734 61.8946 27.8094 61.8296 27.8698C61.7645 27.9301 61.7263 28.0105 61.7225 28.0953L61.6831 32.1692L62.2918 32.9518C62.4033 33.09 62.5592 33.1928 62.7376 33.2457C62.916 33.2986 63.1081 33.299 63.2868 33.2469C63.4655 33.1947 63.6219 33.0926 63.734 32.9548C63.8462 32.8171 63.9084 32.6507 63.9121 32.4788L63.9144 32.4873Z" fill="#FFBE9D"/>
<path d="M63.3845 30.3817C63.3917 30.3326 63.419 30.2879 63.4609 30.2565C63.499 30.2273 63.5463 30.2101 63.5959 30.2074C63.6455 30.2047 63.6948 30.2167 63.7363 30.2417C63.7789 30.2721 63.812 30.3122 63.8323 30.3579C63.8526 30.4037 63.8594 30.4536 63.8521 30.5025C63.8289 30.532 63.7992 30.5567 63.7649 30.575C63.7306 30.5933 63.6925 30.6047 63.653 30.6086H63.616C63.5853 30.6093 63.5548 30.6044 63.5261 30.5942C63.4975 30.584 63.4714 30.5687 63.4493 30.5492C63.4259 30.5272 63.408 30.5009 63.3968 30.4719C63.3857 30.443 63.3814 30.4122 63.3845 30.3817Z" fill="#EB996E"/>
<path d="M64.5948 29.3639C64.5936 29.3962 64.5786 29.4267 64.553 29.4489C64.5275 29.4711 64.4934 29.4832 64.4582 29.4827C64.4409 29.4829 64.4237 29.4801 64.4076 29.4743C64.3914 29.4685 64.3767 29.4598 64.3643 29.4488C64.3518 29.4377 64.3418 29.4246 64.3349 29.41C64.328 29.3954 64.3243 29.3798 64.324 29.3639C64.3258 29.3315 64.3413 29.3009 64.3672 29.2788C64.3931 29.2566 64.4274 29.2445 64.4629 29.2451C64.4801 29.2449 64.4972 29.2477 64.5132 29.2536C64.5292 29.2594 64.5437 29.2681 64.556 29.2792C64.5683 29.2902 64.578 29.3034 64.5847 29.318C64.5914 29.3325 64.5948 29.3481 64.5948 29.3639Z" fill="#263238"/>
<path d="M64.8171 29.0587C64.7986 29.0735 64.6991 28.9993 64.5556 28.9929C64.4121 28.9866 64.2987 29.0481 64.2848 29.0311C64.2709 29.0141 64.2963 28.9951 64.345 28.9654C64.4105 28.9296 64.4863 28.9126 64.5625 28.9166C64.638 28.9193 64.7103 28.9447 64.7685 28.9887C64.8102 29.0226 64.8241 29.0523 64.8171 29.0587Z" fill="#263238"/>
<path d="M63.9027 30.0632C63.9786 30.0469 64.0562 30.0384 64.1342 30.0378C64.1712 30.0378 64.2082 30.0378 64.2152 30.0081C64.2204 29.9732 64.2139 29.9377 64.1967 29.9063L64.1018 29.6433C64.0133 29.4189 63.9444 29.1885 63.8958 28.9541C64.0039 29.1713 64.093 29.3961 64.1619 29.6264C64.1943 29.7176 64.2221 29.8066 64.2522 29.8915C64.2717 29.9337 64.2758 29.9806 64.2638 30.0251C64.2497 30.0478 64.2264 30.0646 64.199 30.0717C64.1782 30.0737 64.1572 30.0737 64.1365 30.0717C64.0585 30.0786 63.9798 30.0758 63.9027 30.0632Z" fill="#263238"/>
<path d="M63.9098 31.6409C63.4128 31.6205 62.9319 31.4736 62.521 31.2168C62.521 31.2168 62.8566 31.9018 63.9098 31.8657V31.6409Z" fill="#EB996E"/>
<path d="M63.4701 30.1349C63.4956 30.1349 63.4863 30.2791 63.6159 30.3872C63.7455 30.4954 63.9122 30.489 63.9122 30.5081C63.9122 30.5272 63.8728 30.5357 63.8034 30.5336C63.7108 30.5297 63.6226 30.4968 63.5534 30.4402C63.4882 30.3852 63.4484 30.3093 63.4423 30.2282C63.44 30.1667 63.4608 30.1327 63.4701 30.1349Z" fill="#263238"/>
<path d="M64.7871 28.5585C64.7616 28.5903 64.6505 28.5585 64.5209 28.5585C64.3913 28.5585 64.2894 28.5882 64.2547 28.5585C64.22 28.5288 64.2547 28.5119 64.3056 28.4822C64.3695 28.4454 64.4432 28.4256 64.5186 28.4249C64.5944 28.4231 64.6692 28.4415 64.7338 28.4779C64.7824 28.5161 64.7987 28.5437 64.7871 28.5585Z" fill="#263238"/>
<path d="M63.0025 29.3638C63.0018 29.3962 63.015 29.4277 63.0392 29.4514C63.0634 29.4752 63.0967 29.4894 63.1321 29.491C63.1493 29.4925 63.1667 29.4907 63.1831 29.4859C63.1996 29.4812 63.2149 29.4734 63.228 29.4631C63.2412 29.4528 63.252 29.4403 63.2597 29.4261C63.2675 29.412 63.2721 29.3965 63.2733 29.3807C63.2733 29.3486 63.2599 29.3177 63.2358 29.2944C63.2116 29.2711 63.1787 29.2572 63.1437 29.2556C63.1266 29.2539 63.1093 29.2553 63.0928 29.2598C63.0763 29.2644 63.061 29.2719 63.0478 29.282C63.0346 29.2921 63.0238 29.3046 63.016 29.3186C63.0082 29.3327 63.0036 29.348 63.0025 29.3638Z" fill="#263238"/>
<path d="M62.8265 29.011C62.8427 29.028 62.9468 28.9601 63.0926 28.9622C63.2385 28.9644 63.3426 29.0322 63.3588 29.0174C63.375 29.0025 63.3588 28.9813 63.3033 28.9495C63.2415 28.908 63.1669 28.8857 63.0903 28.8859C63.0152 28.8837 62.9414 28.9038 62.8797 28.9432C62.8334 28.975 62.8172 29.0025 62.8265 29.011Z" fill="#263238"/>
<path d="M62.7433 28.7273C62.7711 28.7591 62.8845 28.7273 63.0187 28.7273C63.153 28.7273 63.2664 28.7527 63.2942 28.7273C63.322 28.7018 63.2942 28.6806 63.2386 28.6509C63.1712 28.6148 63.0945 28.5957 63.0164 28.5957C62.9383 28.5957 62.8616 28.6148 62.7942 28.6509C62.7456 28.6806 62.7294 28.7103 62.7433 28.7273Z" fill="#263238"/>
<path d="M61.8984 29.7225C61.8984 29.6504 61.8243 29.4765 61.7456 29.4617C61.542 29.4214 61.1693 29.4193 61.1369 29.8985C61.0929 30.5538 61.8313 30.4584 61.8313 30.4393C61.8313 30.4202 61.8845 29.9685 61.8984 29.7225Z" fill="#FFBE9D"/>
<path d="M61.6415 30.1883C61.6415 30.1883 61.6299 30.1883 61.6067 30.2032C61.5921 30.2089 61.5764 30.2118 61.5604 30.2118C61.5445 30.2118 61.5288 30.2089 61.5142 30.2032C61.4693 30.1737 61.4339 30.1338 61.4115 30.0875C61.3891 30.0413 61.3806 29.9905 61.3868 29.9402C61.3896 29.8841 61.4054 29.8291 61.4331 29.779C61.4414 29.759 61.4548 29.7411 61.4721 29.7267C61.4894 29.7124 61.5101 29.7019 61.5327 29.6963C61.5474 29.6934 61.5627 29.6955 61.5759 29.7021C61.5891 29.7087 61.5992 29.7195 61.6044 29.7324C61.6061 29.7429 61.6061 29.7536 61.6044 29.7642C61.6044 29.7642 61.6206 29.7642 61.616 29.7281C61.6131 29.7117 61.6041 29.6967 61.5905 29.6857C61.5817 29.6779 61.5712 29.6719 61.5596 29.6682C61.548 29.6646 61.5356 29.6633 61.5234 29.6645C61.4938 29.668 61.4657 29.6784 61.4418 29.6948C61.4179 29.7111 61.3989 29.7328 61.3868 29.7578C61.3525 29.8129 61.3335 29.8747 61.3313 29.9381C61.3234 29.9964 61.3346 30.0555 61.3635 30.108C61.3923 30.1605 61.4375 30.2039 61.4933 30.2329C61.5123 30.2387 61.5325 30.2408 61.5524 30.239C61.5724 30.2372 61.5917 30.2315 61.609 30.2223C61.6415 30.2117 61.6415 30.1905 61.6415 30.1883Z" fill="#EB996E"/>
<path d="M61.718 29.4632L61.8986 29.6349C62.6855 28.9478 64.2247 27.2237 64.1391 27.3255C63.7799 27.204 63.3933 27.1661 63.0142 27.2152C62.4286 27.3064 61.3199 27.5736 61.3361 28.2034C61.3706 28.6425 61.5004 29.0707 61.718 29.4632Z" fill="#263238"/>
<path d="M60.676 29.3198C60.676 29.3198 60.676 29.305 60.676 29.2817C60.6896 29.2461 60.7059 29.2114 60.7246 29.1778C60.799 29.0562 60.9017 28.9512 61.0255 28.8703C61.2089 28.7504 61.4132 28.6601 61.6296 28.603C61.8611 28.5331 62.1389 28.4779 62.405 28.374C62.8604 28.1978 63.2716 27.9379 63.6133 27.6105C63.7161 27.511 63.8127 27.4062 63.9026 27.2967L63.9743 27.2055C63.9821 27.1945 63.9915 27.1845 64.0021 27.1758L63.9813 27.2097C63.9651 27.2309 63.9442 27.2649 63.9142 27.3051C63.8279 27.4182 63.7335 27.5258 63.6318 27.6275C63.4796 27.7775 63.3122 27.9138 63.1318 28.0347C62.9111 28.1833 62.6718 28.3072 62.4189 28.4037C62.1638 28.4933 61.9034 28.5698 61.6389 28.6327C61.4257 28.6872 61.2238 28.774 61.0417 28.8893C60.919 28.9668 60.8156 29.0673 60.7385 29.1841C60.7141 29.2279 60.6932 29.2733 60.676 29.3198Z" fill="#455A64"/>
<path d="M60.8847 29.4208C60.883 29.3722 60.8924 29.3238 60.9125 29.2787C60.966 29.1531 61.0595 29.0452 61.181 28.9691C61.3634 28.8624 61.5672 28.7903 61.7805 28.757C62.0361 28.7123 62.2854 28.6412 62.5235 28.545C62.7603 28.4463 62.9826 28.3209 63.1854 28.1717C63.3537 28.0491 63.5087 27.9121 63.6484 27.7624C63.7403 27.6618 63.8246 27.5555 63.9007 27.4443C63.9261 27.4082 63.9469 27.3764 63.9608 27.3531C63.968 27.3417 63.9765 27.331 63.9863 27.3213C63.9814 27.3331 63.9751 27.3445 63.9678 27.3552L63.9122 27.4507C63.8412 27.566 63.759 27.6753 63.6669 27.7772C63.5301 27.9338 63.3749 28.0761 63.204 28.2014C62.9992 28.3537 62.7745 28.482 62.535 28.5831C62.2941 28.6802 62.0416 28.7514 61.7828 28.7952C61.5732 28.8312 61.373 28.9031 61.1926 29.0073C61.0726 29.0789 60.9784 29.1815 60.9218 29.3021C60.9056 29.3406 60.8933 29.3803 60.8847 29.4208Z" fill="#455A64"/>
<path d="M60.4661 35.3463C60.4315 34.9284 60.4315 34.5087 60.4661 34.0908C60.4975 34.5088 60.4975 34.9283 60.4661 35.3463Z" fill="#263238"/>
<path d="M65.3773 35.2574C65.3712 35.1868 65.3712 35.1159 65.3773 35.0453C65.3912 34.8684 65.3842 34.6907 65.3564 34.5152C65.3204 34.34 65.2645 34.1687 65.1898 34.0041C65.1547 33.936 65.1268 33.8649 65.1064 33.792C65.1517 33.8539 65.1897 33.92 65.2199 33.9892C65.3056 34.1528 65.3671 34.3261 65.4027 34.5046C65.4303 34.6839 65.4303 34.866 65.4027 35.0453C65.404 35.1167 65.3955 35.188 65.3773 35.2574Z" fill="#263238"/>
<path d="M90.3612 37.1194H72.6661C72.2446 37.1189 71.8405 36.9652 71.5424 36.6921C71.2443 36.419 71.0766 36.0487 71.076 35.6625V28.8549L69.1248 27.2686H90.3612C90.5712 27.2672 90.7794 27.3039 90.9738 27.3766C91.1682 27.4494 91.345 27.5566 91.4939 27.6923C91.6428 27.828 91.761 27.9893 91.8415 28.167C91.9219 28.3447 91.9632 28.5353 91.9629 28.7277V35.6625C91.9626 35.8546 91.9209 36.0448 91.8402 36.2222C91.7594 36.3995 91.6412 36.5605 91.4924 36.6958C91.3436 36.8312 91.1671 36.9383 90.9729 37.011C90.7788 37.0837 90.5709 37.1205 90.3612 37.1194Z" fill="#EBEBEB"/>
<path d="M89.1479 38.2219C88.5202 38.2765 87.8894 38.295 87.2592 38.2771C86.6298 38.2949 85.9997 38.2765 85.3728 38.2219C85.9997 38.1673 86.6298 38.1489 87.2592 38.1668C87.8894 38.1489 88.5202 38.1673 89.1479 38.2219Z" fill="#E0E0E0"/>
<path d="M89.9283 38.3581C89.9205 38.358 89.9127 38.3564 89.9056 38.3535C89.8984 38.3506 89.892 38.3464 89.8866 38.3411L89.5209 37.9912C89.5103 37.9813 89.5044 37.9679 89.5044 37.9541C89.5044 37.9402 89.5103 37.9268 89.5209 37.9169C89.5261 37.9119 89.5324 37.9078 89.5394 37.9051C89.5463 37.9023 89.5538 37.9009 89.5614 37.9009C89.569 37.9009 89.5765 37.9023 89.5835 37.9051C89.5905 37.9078 89.5967 37.9119 89.6019 37.9169L89.926 38.2266L90.6366 37.5649C90.6418 37.5598 90.648 37.5558 90.655 37.553C90.662 37.5503 90.6695 37.5488 90.6771 37.5488C90.6847 37.5488 90.6922 37.5503 90.6991 37.553C90.7061 37.5558 90.7124 37.5598 90.7176 37.5649C90.7282 37.5748 90.7341 37.5881 90.7341 37.602C90.7341 37.6159 90.7282 37.6292 90.7176 37.6391L89.9653 38.3411C89.9553 38.3502 89.9423 38.3561 89.9283 38.3581Z" fill="#CCDCFF"/>
<path d="M90.449 38.3473H90.3818C90.3665 38.3473 90.3518 38.3417 90.3409 38.3318C90.3301 38.3218 90.324 38.3083 90.324 38.2943C90.3256 38.2804 90.3325 38.2674 90.3435 38.2577C90.3545 38.248 90.3689 38.2422 90.3841 38.2413H90.4258L91.1595 37.5563C91.1649 37.5511 91.1714 37.547 91.1786 37.5443C91.1857 37.5415 91.1934 37.54 91.2012 37.54C91.209 37.54 91.2167 37.5415 91.2238 37.5443C91.231 37.547 91.2375 37.5511 91.2429 37.5563C91.2535 37.5662 91.2594 37.5795 91.2594 37.5934C91.2594 37.6073 91.2535 37.6206 91.2429 37.6305L90.4906 38.3303C90.4855 38.3358 90.4791 38.3402 90.4719 38.3431C90.4647 38.346 90.4568 38.3475 90.449 38.3473Z" fill="#CCDCFF"/>
<path d="M89.1479 64.8743C88.5202 64.9289 87.8894 64.9473 87.2592 64.9294C86.6298 64.9473 85.9997 64.9288 85.3728 64.8743C85.9997 64.8197 86.6298 64.8013 87.2592 64.8191C87.8894 64.8012 88.5202 64.8196 89.1479 64.8743Z" fill="#E0E0E0"/>
<path d="M89.9285 65.0092C89.9195 65.0101 89.9104 65.009 89.9019 65.0061C89.8935 65.0031 89.8859 64.9984 89.8798 64.9923L89.5141 64.6424C89.5077 64.6376 89.5024 64.6317 89.4987 64.6249C89.4949 64.6181 89.4928 64.6107 89.4925 64.6031C89.4921 64.5956 89.4936 64.588 89.4967 64.581C89.4998 64.574 89.5046 64.5676 89.5106 64.5624C89.5166 64.5572 89.5238 64.5533 89.5316 64.5508C89.5394 64.5483 89.5477 64.5475 89.556 64.5482C89.5642 64.5489 89.5722 64.5513 89.5793 64.5551C89.5865 64.5589 89.5927 64.5641 89.5975 64.5703L89.9215 64.8799L90.6321 64.2182C90.6373 64.2131 90.6436 64.2091 90.6505 64.2063C90.6575 64.2036 90.665 64.2021 90.6726 64.2021C90.6802 64.2021 90.6877 64.2036 90.6947 64.2063C90.7016 64.2091 90.7079 64.2131 90.7131 64.2182C90.7237 64.2281 90.7296 64.2415 90.7296 64.2553C90.7296 64.2692 90.7237 64.2825 90.7131 64.2924L89.9701 64.9923C89.9588 65.0022 89.9441 65.0082 89.9285 65.0092Z" fill="#CCDCFF"/>
<path d="M90.449 64.9918H90.3818C90.3663 64.9913 90.3516 64.9852 90.3408 64.975C90.33 64.9647 90.324 64.951 90.324 64.9367C90.3239 64.9296 90.3255 64.9227 90.3286 64.9162C90.3317 64.9097 90.3362 64.9039 90.3418 64.8991C90.3475 64.8943 90.3542 64.8907 90.3615 64.8884C90.3688 64.8861 90.3765 64.8852 90.3841 64.8858H90.4258L91.1595 64.2008C91.1649 64.1957 91.1714 64.1916 91.1786 64.1888C91.1857 64.186 91.1934 64.1846 91.2012 64.1846C91.209 64.1846 91.2167 64.186 91.2238 64.1888C91.231 64.1916 91.2375 64.1957 91.2429 64.2008C91.2535 64.2107 91.2594 64.224 91.2594 64.2379C91.2594 64.2518 91.2535 64.2651 91.2429 64.275L90.4906 64.9749C90.4855 64.9803 90.4791 64.9847 90.4719 64.9876C90.4647 64.9906 90.4568 64.992 90.449 64.9918Z" fill="#CCDCFF"/>
<path d="M90.134 29.2172C90.134 29.2469 86.2709 29.2724 81.5052 29.2724C76.7394 29.2724 72.8787 29.2469 72.8787 29.2172C72.8787 29.1876 76.7394 29.1621 81.5052 29.1621C86.2709 29.1621 90.134 29.1854 90.134 29.2172Z" fill="white"/>
<path d="M90.134 30.3774C90.134 30.4092 86.2709 30.4325 81.5052 30.4325C76.7394 30.4325 72.8787 30.4092 72.8787 30.3774C72.8787 30.3456 76.7394 30.3223 81.5052 30.3223C86.2709 30.3223 90.134 30.3477 90.134 30.3774Z" fill="white"/>
<path d="M90.134 31.5395C90.134 31.5692 86.2709 31.5947 81.5052 31.5947C76.7394 31.5947 72.8787 31.5692 72.8787 31.5395C72.8787 31.5098 76.7394 31.4844 81.5052 31.4844C86.2709 31.4844 90.134 31.5098 90.134 31.5395Z" fill="white"/>
<path d="M62.7849 65.4377C65.6522 65.4377 67.9766 63.3128 67.9766 60.6915C67.9766 58.0703 65.6522 55.9453 62.7849 55.9453C59.9176 55.9453 57.5933 58.0703 57.5933 60.6915C57.5933 63.3128 59.9176 65.4377 62.7849 65.4377Z" fill="#E0E0E0"/>
<path d="M60.3594 61.8785L61.7204 61.7725L65.0395 62.2857L65.4307 64.5676L65.3751 64.8327C64.6276 65.2199 63.7874 65.4319 62.9289 65.4501C62.0705 65.4682 61.2204 65.2918 60.4543 64.9366L60.3594 61.8721" fill="#455A64"/>
<path d="M64.3289 62.2482C64.658 62.2046 64.9938 62.2465 65.2982 62.3691C65.6026 62.4917 65.8634 62.6901 66.0509 62.9417C66.2762 63.2299 66.4826 63.5301 66.6689 63.8408C66.1273 64.3795 65.6875 64.7888 64.9376 65.0263L64.3289 62.2482Z" fill="#455A64"/>
<path d="M60.3592 61.8787C60.3592 61.8787 59.4612 61.9784 59.114 62.6803C58.7668 63.3823 58.6858 63.6028 58.6858 63.6028C59.1487 64.1139 59.7412 64.7205 60.4657 64.9474C60.4657 64.9474 60.6301 63.1808 60.6509 62.6803C60.6763 62.1332 60.6995 61.8617 60.3592 61.8787Z" fill="#455A64"/>
<path d="M61.1784 57.3829C61.4043 57.117 61.6927 56.9012 62.022 56.7514C62.3514 56.6016 62.7134 56.5217 63.081 56.5176C63.3971 56.5159 63.7108 56.5669 64.0069 56.6682C64.318 56.7374 64.5931 56.9039 64.7846 57.139C65.0201 57.4171 65.1747 57.7455 65.2336 58.0933C65.2879 58.4501 65.3065 58.8107 65.2892 59.1707C65.2706 59.5318 65.1432 59.8812 64.9212 60.1801L63.9236 60.3392C63.3735 60.3783 62.8202 60.3512 62.2779 60.2586C61.7297 60.1622 61.2454 59.8709 60.9308 59.4485C60.5304 58.8419 60.697 57.9237 61.1784 57.3829Z" fill="#263238"/>
<path d="M60.2159 60.0322C60.2257 59.9287 60.2613 59.8286 60.3199 59.7396C60.3785 59.6507 60.4585 59.5752 60.5538 59.5189C60.6508 59.4647 60.7641 59.4402 60.8773 59.449C60.9905 59.4578 61.0977 59.4994 61.1834 59.5677L61.3408 59.7395C61.4625 59.7907 61.5636 59.8754 61.63 59.9819C61.6964 60.0884 61.7248 60.2113 61.7111 60.3333C61.6922 60.4548 61.6361 60.569 61.5492 60.6624C61.4624 60.7559 61.3484 60.8249 61.2204 60.8614C61.0915 60.8943 60.9555 60.8964 60.8254 60.8675C60.6953 60.8385 60.5755 60.7795 60.4774 60.6959C60.3812 60.6111 60.3075 60.5071 60.2622 60.392C60.2168 60.2769 60.201 60.1538 60.2159 60.0322Z" fill="#263238"/>
<path d="M60.4123 60.6461C60.3752 60.5915 60.3567 60.528 60.3591 60.4637C60.3925 60.31 60.4727 60.1681 60.5905 60.0544C60.7016 59.9336 60.8377 59.8341 60.991 59.7618C61.1067 59.7045 61.1877 59.6833 61.1854 59.6748C61.1118 59.681 61.0402 59.7005 60.9748 59.7321C60.8125 59.7999 60.6686 59.8998 60.5535 60.0247C60.4893 60.093 60.4349 60.1686 60.3915 60.2495C60.3533 60.3151 60.3312 60.3874 60.3267 60.4616C60.3259 60.5125 60.3412 60.5626 60.3707 60.6058C60.3915 60.6376 60.4123 60.6482 60.4123 60.6461Z" fill="#455A64"/>
<path d="M63.9188 62.1628V61.3145C63.9188 61.3145 64.7312 61.2318 64.958 60.2796C65.0645 59.6483 65.1064 59.0093 65.083 58.3709C65.083 57.7919 64.5391 57.003 63.7568 57.0009L63.4096 56.9648L62.0787 57.4484C61.986 57.4526 61.8985 57.4884 61.8334 57.5489C61.7682 57.6094 61.7302 57.6901 61.7268 57.775L61.6875 61.8468L62.2962 62.6293C62.4077 62.7675 62.5636 62.8703 62.742 62.9233C62.9204 62.9762 63.1125 62.9766 63.2912 62.9244C63.4699 62.8723 63.6263 62.7701 63.7384 62.6324C63.8505 62.4947 63.9128 62.3282 63.9165 62.1564L63.9188 62.1628Z" fill="#FFBE9D"/>
<path d="M63.3843 59.9803C63.3915 59.9312 63.4188 59.8865 63.4607 59.8552C63.4988 59.8259 63.5461 59.8087 63.5957 59.806C63.6453 59.8034 63.6945 59.8154 63.7361 59.8403C63.7787 59.8707 63.8117 59.9108 63.8321 59.9566C63.8524 60.0023 63.8592 60.0522 63.8518 60.1012C63.8285 60.1304 63.7988 60.1547 63.7644 60.1726C63.7301 60.1905 63.6921 60.2016 63.6528 60.2051H63.6158C63.5539 60.2038 63.4947 60.182 63.4491 60.1436C63.4254 60.1227 63.4072 60.0971 63.396 60.0688C63.3848 60.0405 63.3808 60.0102 63.3843 59.9803Z" fill="#EB996E"/>
<path d="M64.5948 59.0543C64.5905 59.0844 64.5744 59.1121 64.5495 59.1321C64.5245 59.1522 64.4925 59.1632 64.4594 59.1632C64.4262 59.1632 64.3942 59.1522 64.3693 59.1321C64.3444 59.1121 64.3283 59.0844 64.324 59.0543C64.3258 59.0219 64.3413 58.9914 64.3672 58.9692C64.3931 58.947 64.4274 58.935 64.4629 58.9356C64.4801 58.9353 64.4972 58.9382 64.5132 58.944C64.5292 58.9498 64.5437 58.9585 64.556 58.9696C64.5683 58.9806 64.578 58.9938 64.5847 59.0084C64.5914 59.0229 64.5948 59.0386 64.5948 59.0543Z" fill="#263238"/>
<path d="M64.8171 58.739C64.7986 58.7538 64.6991 58.6796 64.5556 58.6732C64.4121 58.6669 64.2987 58.7263 64.2848 58.7093C64.2709 58.6923 64.2963 58.6732 64.345 58.6457C64.4097 58.608 64.4861 58.5908 64.5625 58.5969C64.638 58.5996 64.7103 58.625 64.7685 58.669C64.8102 58.7029 64.8241 58.7326 64.8171 58.739Z" fill="#263238"/>
<path d="M63.9027 59.7429C63.9786 59.7264 64.0562 59.7172 64.1342 59.7154C64.1712 59.7154 64.2082 59.7154 64.2152 59.6857C64.2202 59.6508 64.2138 59.6154 64.1967 59.5839C64.1666 59.5012 64.1342 59.4142 64.1018 59.3209C64.0138 59.0971 63.9449 58.8674 63.8958 58.6338C64.0042 58.8502 64.0932 59.0743 64.1619 59.3039C64.1943 59.3973 64.2221 59.4842 64.2522 59.569C64.2717 59.6113 64.2758 59.6581 64.2638 59.7026C64.2575 59.7144 64.2484 59.7247 64.2372 59.7328C64.226 59.7408 64.2129 59.7465 64.199 59.7493C64.1783 59.7522 64.1572 59.7522 64.1365 59.7493C64.0586 59.7569 63.9799 59.7547 63.9027 59.7429Z" fill="#263238"/>
<path d="M63.9098 61.3188C63.414 61.3011 62.9334 61.1579 62.521 60.9053C62.521 60.9053 62.8566 61.5903 63.9098 61.5542V61.3188Z" fill="#EB996E"/>
<path d="M63.4701 59.8135C63.4956 59.8135 63.4863 59.9577 63.6159 60.068C63.7455 60.1782 63.9122 60.1698 63.9122 60.1889C63.9122 60.2079 63.8728 60.2143 63.8034 60.2143C63.7104 60.2106 63.6218 60.1768 63.5534 60.1189C63.4874 60.0643 63.4475 59.9881 63.4423 59.9068C63.44 59.8474 63.4608 59.8135 63.4701 59.8135Z" fill="#263238"/>
<path d="M64.7871 58.2384C64.7616 58.2702 64.6505 58.2384 64.5209 58.2384C64.3913 58.2384 64.2894 58.2681 64.2547 58.2384C64.22 58.2087 64.2547 58.1917 64.3056 58.162C64.369 58.1243 64.443 58.1044 64.5186 58.1048C64.5946 58.1019 64.6697 58.1204 64.7338 58.1578C64.7824 58.1917 64.7987 58.2235 64.7871 58.2384Z" fill="#263238"/>
<path d="M63.0025 59.0375C63.0018 59.0698 63.0151 59.101 63.0393 59.1244C63.0636 59.1478 63.0969 59.1616 63.1321 59.1627C63.1492 59.1644 63.1665 59.163 63.1829 59.1584C63.1994 59.1539 63.2147 59.1463 63.2279 59.1362C63.2411 59.1261 63.2519 59.1137 63.2597 59.0996C63.2675 59.0856 63.2721 59.0702 63.2733 59.0545C63.2739 59.022 63.2608 58.9906 63.2366 58.9668C63.2124 58.9431 63.1791 58.9289 63.1437 58.9273C63.1264 58.9258 63.1091 58.9275 63.0926 58.9323C63.0761 58.9371 63.0609 58.9449 63.0477 58.9551C63.0345 58.9654 63.0238 58.978 63.016 58.9922C63.0082 59.0063 63.0036 59.0217 63.0025 59.0375Z" fill="#263238"/>
<path d="M62.8265 58.6896C62.8427 58.7066 62.9468 58.6387 63.0926 58.6429C63.2385 58.6472 63.3426 58.7129 63.3588 58.6959C63.375 58.679 63.3588 58.6599 63.3033 58.6281C63.241 58.5875 63.1667 58.5653 63.0903 58.5645C63.0151 58.5639 62.9416 58.5847 62.8797 58.6238C62.8334 58.6535 62.8172 58.6832 62.8265 58.6896Z" fill="#263238"/>
<path d="M62.7433 58.4058C62.7711 58.4355 62.8845 58.4058 63.0187 58.4058C63.153 58.4058 63.2664 58.4291 63.2942 58.4058C63.322 58.3825 63.2942 58.3613 63.2386 58.3316C63.1712 58.2954 63.0945 58.2764 63.0164 58.2764C62.9383 58.2764 62.8616 58.2954 62.7942 58.3316C62.7456 58.3592 62.7294 58.391 62.7433 58.4058Z" fill="#263238"/>
<path d="M61.8984 59.3193C61.8984 59.2472 61.8243 59.0754 61.7456 59.0606C61.542 59.0203 61.1693 59.016 61.1369 59.4953C61.0929 60.1506 61.8313 60.0573 61.8313 60.0382C61.8313 60.0192 61.8845 59.5674 61.8984 59.3193Z" fill="#FFBE9D"/>
<path d="M61.6414 59.7877C61.6414 59.7877 61.6298 59.7877 61.6066 59.8026C61.5768 59.813 61.5439 59.813 61.5141 59.8026C61.4694 59.7734 61.4341 59.7339 61.4117 59.688C61.3893 59.6422 61.3807 59.5916 61.3868 59.5417C61.3892 59.4855 61.405 59.4305 61.433 59.3806C61.4413 59.3606 61.4547 59.3426 61.472 59.3283C61.4893 59.3139 61.51 59.3035 61.5326 59.2978C61.547 59.2952 61.5619 59.2972 61.5749 59.3033C61.588 59.3095 61.5983 59.3195 61.6043 59.3318C61.6063 59.343 61.6063 59.3545 61.6043 59.3657C61.6043 59.3657 61.6205 59.3551 61.6159 59.3275C61.6125 59.3113 61.6036 59.2964 61.5904 59.2851C61.5812 59.278 61.5705 59.2726 61.559 59.2693C61.5475 59.2661 61.5353 59.2649 61.5233 59.266C61.4936 59.2691 61.4653 59.2794 61.4413 59.2958C61.4173 59.3122 61.3985 59.3341 61.3868 59.3593C61.3522 59.4143 61.3331 59.4762 61.3312 59.5396C61.3235 59.5976 61.3348 59.6564 61.3637 59.7085C61.3925 59.7606 61.4376 59.8037 61.4932 59.8323C61.5112 59.8403 61.531 59.8445 61.5511 59.8445C61.5711 59.8445 61.5909 59.8403 61.609 59.8323C61.6414 59.8026 61.6414 59.7877 61.6414 59.7877Z" fill="#EB996E"/>
<path d="M61.718 59.0539L61.8986 59.2278C62.6855 58.5386 64.2247 56.8144 64.1391 56.9184C63.7803 56.7953 63.3935 56.7567 63.0142 56.806C62.4286 56.8971 61.3199 57.1644 61.3361 57.7963C61.3708 58.2346 61.5006 58.6622 61.718 59.0539Z" fill="#263238"/>
<path d="M60.676 58.9163C60.676 58.9163 60.676 58.9036 60.676 58.8782C60.6902 58.8434 60.7064 58.8095 60.7246 58.7764C60.7994 58.6545 60.902 58.5489 61.0255 58.4667C61.2129 58.3481 61.4212 58.2598 61.6412 58.2059C61.8727 58.1338 62.1504 58.0786 62.4166 57.9747C62.6672 57.8794 62.9049 57.7577 63.1249 57.6121C63.3044 57.4934 63.4718 57.3599 63.6248 57.2134C63.7544 57.0861 63.8563 56.9759 63.9142 56.8995C63.9419 56.8613 63.9674 56.8317 63.9859 56.8083C64.0044 56.785 64.0114 56.7765 64.0137 56.7786L63.9929 56.8126L63.9257 56.9059C63.8406 57.0197 63.7462 57.1275 63.6433 57.2282C63.4913 57.3789 63.3239 57.516 63.1434 57.6375C62.9213 57.7819 62.6812 57.9015 62.4282 57.9938C62.1597 58.0977 61.8866 58.1529 61.6482 58.2229C61.4351 58.2767 61.2332 58.3627 61.051 58.4773C60.9281 58.5555 60.8247 58.6567 60.7478 58.7742C60.7207 58.8202 60.6967 58.8677 60.676 58.9163Z" fill="#455A64"/>
<path d="M60.8847 59.0195C60.883 58.9701 60.8924 58.921 60.9125 58.8752C60.9655 58.7499 61.0592 58.6426 61.181 58.5677C61.3634 58.4611 61.5672 58.389 61.7805 58.3557C62.0358 58.31 62.285 58.2389 62.5235 58.1436C62.7602 58.045 62.9826 57.9196 63.1854 57.7703C63.4642 57.5658 63.7036 57.3199 63.8937 57.0429C63.9192 57.0047 63.94 56.9751 63.9539 56.9496C63.9614 56.939 63.9699 56.9291 63.9793 56.9199C63.9744 56.9318 63.9682 56.9431 63.9608 56.9539L63.9053 57.0493C63.8342 57.1646 63.7521 57.2739 63.6599 57.3759C63.5232 57.5325 63.3679 57.6747 63.197 57.8C62.9928 57.9524 62.7679 58.08 62.5281 58.1796C62.2867 58.2757 62.0344 58.3468 61.7758 58.3917C61.5657 58.4257 61.365 58.4978 61.1856 58.6038C61.0643 58.674 60.9697 58.777 60.9148 58.8986C60.9007 58.9379 60.8906 58.9784 60.8847 59.0195Z" fill="#455A64"/>
<path d="M60.4661 64.9438C60.4315 64.5266 60.4315 64.1076 60.4661 63.6904C60.4975 64.1077 60.4975 64.5265 60.4661 64.9438Z" fill="#263238"/>
<path d="M65.3773 64.8569C65.3706 64.7828 65.3706 64.7083 65.3773 64.6342C65.3912 64.4566 65.3842 64.2781 65.3564 64.1019C65.3201 63.9275 65.2643 63.7569 65.1898 63.5929C65.1552 63.5246 65.1273 63.4537 65.1064 63.3809C65.1517 63.4428 65.1897 63.5089 65.2199 63.5781C65.3059 63.7415 65.3674 63.9149 65.4027 64.0934C65.4303 64.2728 65.4303 64.4548 65.4027 64.6342C65.4047 64.7091 65.3961 64.784 65.3773 64.8569Z" fill="#263238"/>
<path d="M90.3612 63.4829H72.6661C72.2442 63.4824 71.8397 63.3284 71.5416 63.0548C71.2434 62.7812 71.076 62.4104 71.076 62.0238V58.4525L69.1248 56.8662H90.3612C90.7828 56.8668 91.1869 57.0205 91.4849 57.2936C91.783 57.5667 91.9507 57.9369 91.9514 58.3232V62.0238C91.9514 62.4104 91.7839 62.7812 91.4858 63.0548C91.1876 63.3284 90.7832 63.4824 90.3612 63.4829Z" fill="#EBEBEB"/>
<path d="M90.134 58.8139C90.134 58.8457 86.2709 58.8691 81.5052 58.8691C76.7394 58.8691 72.8787 58.8457 72.8787 58.8139C72.8787 58.7821 76.7394 58.7588 81.5052 58.7588C86.2709 58.7588 90.134 58.7842 90.134 58.8139Z" fill="white"/>
<path d="M90.134 59.976C90.134 60.0057 86.2709 60.0312 81.5052 60.0312C76.7394 60.0312 72.8787 60.0057 72.8787 59.976C72.8787 59.9463 76.7394 59.9209 81.5052 59.9209C86.2709 59.9209 90.134 59.9463 90.134 59.976Z" fill="white"/>
<path d="M90.134 61.1391C90.134 61.1688 86.2709 61.1943 81.5052 61.1943C76.7394 61.1943 72.8787 61.1688 72.8787 61.1391C72.8787 61.1094 76.7394 61.084 81.5052 61.084C86.2709 61.084 90.134 61.1073 90.134 61.1391Z" fill="white"/>
<path d="M90.134 32.7016C90.134 32.7313 86.2709 32.7568 81.5052 32.7568C76.7394 32.7568 72.8787 32.7313 72.8787 32.7016C72.8787 32.6719 76.7394 32.6465 81.5052 32.6465C86.2709 32.6465 90.134 32.6698 90.134 32.7016Z" fill="white"/>
<path d="M90.134 33.8618C90.134 33.8936 86.2709 33.9169 81.5052 33.9169C76.7394 33.9169 72.8787 33.8936 72.8787 33.8618C72.8787 33.83 76.7394 33.8066 81.5052 33.8066C86.2709 33.8066 90.134 33.8321 90.134 33.8618Z" fill="white"/>
<path d="M90.134 35.2573C90.134 35.2891 86.2709 35.3124 81.5052 35.3124C76.7394 35.3124 72.8787 35.2891 72.8787 35.2573C72.8787 35.2255 76.7394 35.2021 81.5052 35.2021C86.2709 35.2021 90.134 35.2276 90.134 35.2573Z" fill="white"/>
<path d="M72.9829 15.0762C72.9953 14.9114 73.0599 14.7535 73.1688 14.6219C73.2777 14.4903 73.4262 14.3907 73.5961 14.3353C73.7659 14.2799 73.9497 14.2711 74.1249 14.3101C74.3001 14.349 74.4591 14.434 74.5823 14.5545L74.3346 14.7666C74.2834 14.7098 74.2191 14.6641 74.1462 14.633C74.0733 14.6018 73.9938 14.5859 73.9134 14.5863C73.771 14.5863 73.6344 14.6382 73.5337 14.7305C73.433 14.8227 73.3764 14.9479 73.3764 15.0784C73.3764 15.2088 73.433 15.334 73.5337 15.4263C73.6344 15.5185 73.771 15.5704 73.9134 15.5704C73.994 15.5709 74.0738 15.5548 74.1467 15.5232C74.2197 15.4916 74.2839 15.4454 74.3346 15.388L74.5823 15.6001C74.4592 15.7205 74.3004 15.8055 74.1254 15.8445C73.9504 15.8836 73.7668 15.875 73.597 15.8198C73.4273 15.7647 73.2787 15.6654 73.1697 15.534C73.0606 15.4027 72.9957 15.2451 72.9829 15.0805V15.0762Z" fill="#263238"/>
<path d="M76.1216 15.1679V15.8444H75.7605V15.2209C75.7605 15.03 75.6633 14.9431 75.499 14.9431C75.3346 14.9431 75.1911 15.0449 75.1911 15.2612V15.8444H74.8162V14.2178H75.1911V14.7883C75.2454 14.7405 75.3097 14.7032 75.3801 14.6788C75.4505 14.6544 75.5256 14.6433 75.6008 14.6462C75.6742 14.6434 75.7474 14.6554 75.8153 14.6813C75.8831 14.7072 75.944 14.7464 75.9936 14.7961C76.0432 14.8458 76.0803 14.9048 76.1024 14.969C76.1246 15.0332 76.1311 15.1011 76.1216 15.1679Z" fill="#263238"/>
<path d="M77.5983 15.1717V15.844H77.2488V15.6976C77.2054 15.7548 77.1459 15.8002 77.0767 15.829C77.0074 15.8577 76.9309 15.8688 76.8553 15.8609C76.5544 15.8609 76.3762 15.7082 76.3762 15.5046C76.3762 15.301 76.5359 15.1505 76.9294 15.1505H77.2257C77.2257 15.0041 77.1285 14.9193 76.9294 14.9193C76.7958 14.9181 76.6652 14.956 76.5568 15.0275L76.4225 14.7899C76.5877 14.6919 76.7813 14.6417 76.978 14.6457C77.3808 14.6457 77.5983 14.8133 77.5983 15.1717ZM77.2257 15.4707V15.3498H76.9688C76.7952 15.3498 76.7373 15.4092 76.7373 15.4898C76.7373 15.5704 76.816 15.6319 76.9479 15.6319C77.007 15.6359 77.0659 15.6225 77.1159 15.5934C77.166 15.5644 77.2044 15.5214 77.2257 15.4707Z" fill="#263238"/>
<path d="M78.7696 15.7903C78.6783 15.8428 78.5718 15.8687 78.4641 15.8645C78.4005 15.8725 78.3358 15.8672 78.2748 15.849C78.2138 15.8307 78.1581 15.8 78.112 15.7591C78.0658 15.7183 78.0304 15.6684 78.0084 15.6132C77.9864 15.5579 77.9784 15.4988 77.9849 15.4404V14.9547H77.7859V14.6917H77.9849V14.4033H78.3576V14.6917H78.6793V14.9547H78.3576V15.4361C78.3548 15.4563 78.3569 15.4769 78.3638 15.4962C78.3707 15.5156 78.3822 15.5333 78.3975 15.5481C78.4128 15.5629 78.4315 15.5744 78.4522 15.5818C78.4729 15.5892 78.4951 15.5923 78.5173 15.5909C78.5716 15.5927 78.6249 15.577 78.6678 15.5464L78.7696 15.7903Z" fill="#263238"/>
<path d="M85.3733 17.443C85.3733 17.4727 81.4384 17.4981 76.5616 17.4981C71.6847 17.4981 67.7522 17.4727 67.7522 17.443C67.7522 17.4133 71.687 17.3857 76.5616 17.3857C81.4361 17.3857 85.3733 17.4112 85.3733 17.443Z" fill="#263238"/>
<path d="M93.1804 15.0769C93.4067 15.0769 93.5901 14.9089 93.5901 14.7015C93.5901 14.4942 93.4067 14.3262 93.1804 14.3262C92.9542 14.3262 92.7708 14.4942 92.7708 14.7015C92.7708 14.9089 92.9542 15.0769 93.1804 15.0769Z" fill="#263238"/>
<path d="M93.583 15.7914C93.5835 15.8662 93.5597 15.9395 93.5146 16.0019C93.4695 16.0643 93.4051 16.113 93.3298 16.1419C93.2544 16.1707 93.1714 16.1783 93.0912 16.1638C93.0111 16.1493 92.9375 16.1134 92.8797 16.0604C92.8219 16.0075 92.7827 15.9401 92.7668 15.8666C92.751 15.7932 92.7594 15.7171 92.7908 15.6481C92.8223 15.579 92.8755 15.5201 92.9436 15.4788C93.0117 15.4374 93.0917 15.4156 93.1733 15.416C93.2818 15.4166 93.3857 15.4563 93.4624 15.5266C93.5391 15.5969 93.5824 15.692 93.583 15.7914Z" fill="#263238"/>
<path d="M93.583 16.892C93.5835 16.9668 93.5597 17.0401 93.5146 17.1025C93.4695 17.1649 93.4051 17.2136 93.3298 17.2424C93.2544 17.2713 93.1714 17.2789 93.0912 17.2644C93.0111 17.2499 92.9375 17.2139 92.8797 17.161C92.8219 17.1081 92.7827 17.0406 92.7668 16.9672C92.751 16.8938 92.7594 16.8177 92.7908 16.7487C92.8223 16.6796 92.8755 16.6207 92.9436 16.5793C93.0117 16.538 93.0917 16.5162 93.1733 16.5166C93.282 16.5166 93.3862 16.5562 93.463 16.6266C93.5399 16.6969 93.583 16.7924 93.583 16.892Z" fill="#263238"/>
<path d="M59.8638 15.9735C59.8386 15.974 59.8141 15.9665 59.7943 15.9523L58.7088 15.2228C58.6939 15.2127 58.6818 15.1996 58.6734 15.1845C58.6649 15.1694 58.6604 15.1528 58.6602 15.1358C58.6602 15.1192 58.6647 15.1027 58.6732 15.088C58.6816 15.0732 58.6938 15.0605 58.7088 15.051L59.7943 14.3342C59.8067 14.3261 59.8208 14.3203 59.8357 14.3171C59.8506 14.314 59.8661 14.3136 59.8811 14.316C59.8962 14.3183 59.9106 14.3234 59.9235 14.3309C59.9364 14.3384 59.9476 14.3482 59.9563 14.3596C59.9738 14.3822 59.9809 14.4102 59.9761 14.4376C59.9714 14.4649 59.9551 14.4895 59.9309 14.506L58.9726 15.1422L59.9309 15.7784C59.9553 15.7953 59.9716 15.8202 59.9763 15.8479C59.9811 15.8756 59.9739 15.9039 59.9563 15.9269C59.9462 15.9409 59.9325 15.9525 59.9163 15.9607C59.9002 15.9688 59.8822 15.9732 59.8638 15.9735Z" fill="#263238"/>
<path d="M88.1921 51.6311C91.0594 51.6311 93.3838 49.5061 93.3838 46.8849C93.3838 44.2636 91.0594 42.1387 88.1921 42.1387C85.3249 42.1387 83.0005 44.2636 83.0005 46.8849C83.0005 49.5061 85.3249 51.6311 88.1921 51.6311Z" fill="#E0E0E0"/>
<path d="M89.6133 49.6908H86.8821C86.7888 49.6908 86.6993 49.6568 86.6333 49.5964C86.5673 49.5359 86.5303 49.4539 86.5303 49.3684C86.5303 49.2827 86.5673 49.2005 86.6332 49.1397C86.6991 49.0789 86.7886 49.0445 86.8821 49.0439H89.6133C89.7068 49.0445 89.7963 49.0789 89.8622 49.1397C89.9282 49.2005 89.9651 49.2827 89.9651 49.3684C89.9651 49.4539 89.9281 49.5359 89.8621 49.5964C89.7961 49.6568 89.7066 49.6908 89.6133 49.6908Z" fill="#263238"/>
<path d="M88.4031 43.7998H88.1624V44.9111H88.4031V43.7998Z" fill="#263238"/>
<path d="M84.7434 48.2425C85.132 48.2425 85.4471 47.9539 85.4471 47.5978C85.4471 47.2418 85.132 46.9531 84.7434 46.9531C84.3548 46.9531 84.0398 47.2418 84.0398 47.5978C84.0398 47.9539 84.3548 48.2425 84.7434 48.2425Z" fill="#CCDCFF"/>
<path d="M91.8584 48.2005C92.247 48.2005 92.5621 47.9119 92.5621 47.5558C92.5621 47.1998 92.247 46.9111 91.8584 46.9111C91.4698 46.9111 91.1548 47.1998 91.1548 47.5558C91.1548 47.9119 91.4698 48.2005 91.8584 48.2005Z" fill="#CCDCFF"/>
<path d="M88.3865 44.6773C88.3865 44.6773 91.252 44.6455 91.7057 46.9211C92.1593 49.1966 89.736 49.2369 89.0393 49.2793C88.7245 49.2984 88.0486 49.3005 87.4515 49.2921C86.1298 49.2708 85.197 49.0376 84.8799 47.9136C84.8419 47.7817 84.8179 47.6467 84.8082 47.5106C84.7248 46.2806 85.6322 44.6179 88.3865 44.6773Z" fill="#CCDCFF"/>
<path d="M86.3082 48.1408L90.4745 48.2002C90.684 48.203 90.8862 48.1296 91.0368 47.996C91.1874 47.8624 91.274 47.6796 91.2776 47.4876C91.2801 47.2956 91.1994 47.1105 91.0532 46.973C90.9069 46.8354 90.7072 46.7566 90.4976 46.7538L86.3313 46.6944C86.2275 46.6928 86.1243 46.7099 86.0277 46.7448C85.9311 46.7797 85.8429 46.8318 85.7683 46.898C85.6937 46.9642 85.6341 47.0432 85.5929 47.1306C85.5517 47.2179 85.5297 47.3119 85.5282 47.407C85.5266 47.5022 85.5456 47.5966 85.584 47.6851C85.6224 47.7735 85.6795 47.8541 85.7519 47.9222C85.8244 47.9904 85.9108 48.0448 86.0063 48.0823C86.1017 48.1198 86.2043 48.1397 86.3082 48.1408Z" fill="#263238"/>
<path d="M89.609 47.4088C89.6151 47.4388 89.6276 47.4674 89.6459 47.4929C89.6641 47.5185 89.6876 47.5404 89.7152 47.5576C89.7427 47.5747 89.7737 47.5867 89.8063 47.5929C89.8389 47.599 89.8726 47.5991 89.9053 47.5933C89.9405 47.59 89.9746 47.5801 90.0054 47.5641C90.0362 47.548 90.063 47.5263 90.0841 47.5003C90.1052 47.4742 90.1202 47.4444 90.128 47.4128C90.1358 47.3811 90.1364 47.3483 90.1296 47.3165C90.1228 47.2846 90.1088 47.2544 90.0886 47.2278C90.0683 47.2012 90.0422 47.1787 90.012 47.1619C89.9817 47.145 89.9479 47.1341 89.9128 47.1299C89.8777 47.1257 89.842 47.1282 89.808 47.1374C89.7755 47.1432 89.7446 47.1548 89.7169 47.1716C89.6893 47.1885 89.6656 47.2101 89.6471 47.2353C89.6286 47.2605 89.6158 47.2888 89.6092 47.3186C89.6027 47.3483 89.6026 47.379 89.609 47.4088Z" fill="white"/>
<path d="M86.6993 47.3671C86.7028 47.3994 86.7137 47.4306 86.7312 47.4588C86.7487 47.487 86.7724 47.5116 86.8008 47.5309C86.8293 47.5503 86.8618 47.564 86.8963 47.5711C86.9309 47.5783 86.9667 47.5788 87.0014 47.5726C87.0362 47.5664 87.0691 47.5536 87.0982 47.535C87.1272 47.5165 87.1517 47.4926 87.1701 47.4648C87.1885 47.4371 87.2004 47.4062 87.205 47.374C87.2097 47.3418 87.2069 47.3091 87.1969 47.278C87.1791 47.2222 87.1391 47.1745 87.0849 47.1443C87.0307 47.1141 86.9661 47.1035 86.9038 47.1147C86.8415 47.1258 86.786 47.1579 86.7482 47.2046C86.7103 47.2513 86.6929 47.3092 86.6993 47.3671Z" fill="white"/>
<path d="M88.6783 43.7844C88.6788 43.8562 88.6559 43.9265 88.6127 43.9864C88.5695 44.0463 88.5079 44.0931 88.4356 44.1209C88.3633 44.1487 88.2836 44.1562 88.2067 44.1424C88.1298 44.1287 88.0591 44.0943 88.0035 44.0437C87.9479 43.993 87.91 43.9284 87.8945 43.858C87.879 43.7876 87.8867 43.7146 87.9166 43.6482C87.9465 43.5818 87.9972 43.525 88.0624 43.4851C88.1275 43.4452 88.2041 43.4238 88.2825 43.4238C88.3871 43.4238 88.4874 43.4617 88.5616 43.5293C88.6357 43.5968 88.6777 43.6885 88.6783 43.7844Z" fill="#CCDCFF"/>
<path d="M88.8798 47.3027C88.8798 47.3027 88.896 47.3197 88.9053 47.3579C88.9125 47.412 88.907 47.467 88.8891 47.519C88.8637 47.5996 88.8158 47.6727 88.7502 47.7311C88.67 47.8046 88.5645 47.8503 88.4516 47.8605C88.3388 47.8691 88.2261 47.8421 88.1322 47.7841C88.0579 47.738 87.9968 47.6762 87.954 47.6039C87.9266 47.5552 87.9108 47.5017 87.9077 47.4469C87.9077 47.4088 87.9077 47.3876 87.9216 47.3876C87.9355 47.3876 87.9447 47.4682 88.0211 47.5678C88.0657 47.6231 88.1215 47.6699 88.1855 47.7057C88.2629 47.7478 88.3526 47.7671 88.4424 47.7608C88.5286 47.7507 88.6094 47.7167 88.6738 47.6633C88.7322 47.6189 88.7789 47.5631 88.8104 47.5C88.8706 47.3897 88.8613 47.3027 88.8798 47.3027Z" fill="white"/>
<path d="M91.7011 46.8477C91.7098 46.8655 91.7167 46.8839 91.722 46.9028C91.731 46.925 91.7387 46.9477 91.7451 46.9707C91.7451 46.9961 91.7613 47.0258 91.7683 47.0618C91.786 47.141 91.7983 47.221 91.8053 47.3015C91.8133 47.4003 91.8133 47.4996 91.8053 47.5984C91.7957 47.697 91.7779 47.7949 91.7521 47.8911C91.7303 47.9691 91.7024 48.0457 91.6687 48.1201C91.6573 48.1497 91.6441 48.1787 91.6294 48.2071C91.6192 48.2282 91.6076 48.2487 91.5947 48.2686L91.5623 48.3216C91.5674 48.302 91.576 48.2834 91.5877 48.2664L91.6178 48.2007C91.6294 48.1752 91.6433 48.1477 91.6548 48.1159C91.686 48.0412 91.7115 47.9647 91.7312 47.8868C91.7559 47.7911 91.7737 47.6941 91.7845 47.5963C91.7913 47.4981 91.7913 47.3997 91.7845 47.3015C91.7787 47.2218 91.7679 47.1425 91.7521 47.064C91.7472 47.0311 91.7402 46.9985 91.7312 46.9664C91.7312 46.9388 91.7196 46.9176 91.715 46.8986C91.7079 46.8822 91.7032 46.8651 91.7011 46.8477Z" fill="#263238"/>
<path d="M84.9122 46.8594C84.9023 46.8777 84.8945 46.8969 84.8891 46.9166C84.8891 46.9336 84.8752 46.9569 84.8659 46.9824C84.8567 47.0078 84.8497 47.0396 84.8428 47.0736C84.825 47.1526 84.8134 47.2327 84.808 47.3132C84.8 47.412 84.8 47.5113 84.808 47.6101C84.8173 47.7088 84.8351 47.8067 84.8613 47.9028C84.8828 47.9816 84.9106 48.0589 84.9446 48.1339C84.9562 48.1658 84.9724 48.1933 84.984 48.2188C84.9955 48.2442 85.0094 48.2654 85.0187 48.2824L85.0511 48.3333C85.045 48.3141 85.0365 48.2955 85.0256 48.2781C85.0256 48.2612 85.0071 48.24 84.9955 48.2145C84.984 48.1891 84.9701 48.1615 84.9585 48.1297C84.9274 48.0543 84.9019 47.9771 84.8821 47.8985C84.8572 47.8029 84.8395 47.7058 84.8289 47.608C84.822 47.5105 84.822 47.4128 84.8289 47.3153C84.8347 47.2349 84.8455 47.1549 84.8613 47.0757C84.8662 47.0456 84.8731 47.0159 84.8821 46.9866C84.8821 46.9591 84.8937 46.9357 84.8983 46.9188C84.903 46.9018 84.9122 46.8594 84.9122 46.8594Z" fill="#263238"/>
<path d="M85.5305 50.9615C85.5305 50.9615 86.3823 50.2002 88.1622 50.2002C89.9421 50.2002 90.8541 50.9615 90.8541 50.9615C90.0508 51.4056 89.1305 51.6403 88.1923 51.6403C87.2541 51.6403 86.3338 51.4056 85.5305 50.9615Z" fill="#CCDCFF"/>
<path d="M59.7901 51.7246H77.4829C77.6918 51.7249 77.8987 51.6874 78.0918 51.6143C78.2848 51.5411 78.4602 51.4338 78.608 51.2985C78.7557 51.1631 78.8728 51.0024 78.9526 50.8255C79.0324 50.6486 79.0733 50.4591 79.073 50.2677V45.5639L81.0242 43.9775H59.7901C59.5813 43.9775 59.3745 44.0152 59.1816 44.0884C58.9886 44.1617 58.8133 44.269 58.6657 44.4043C58.518 44.5396 58.4009 44.7002 58.321 44.8769C58.2411 45.0537 58.2 45.2432 58.2 45.4345V50.2677C58.1996 50.4591 58.2406 50.6486 58.3204 50.8255C58.4002 51.0024 58.5173 51.1631 58.665 51.2985C58.8127 51.4338 58.9881 51.5411 59.1812 51.6143C59.3743 51.6874 59.5812 51.7249 59.7901 51.7246Z" fill="#EBEBEB"/>
<path d="M76.6862 46.2768C76.6862 46.3086 73.043 46.332 68.548 46.332C64.0531 46.332 60.4099 46.3086 60.4099 46.2768C60.4099 46.245 64.0531 46.2217 68.548 46.2217C73.043 46.2217 76.6862 46.2471 76.6862 46.2768Z" fill="white"/>
<path d="M76.6862 47.5366C76.6862 47.5684 73.043 47.5917 68.548 47.5917C64.0531 47.5917 60.4099 47.5684 60.4099 47.5366C60.4099 47.5048 64.0531 47.4814 68.548 47.4814C73.043 47.4814 76.6862 47.5069 76.6862 47.5366Z" fill="white"/>
<path d="M76.6862 48.7954C76.6862 48.8251 73.043 48.8505 68.548 48.8505C64.0531 48.8505 60.4099 48.8251 60.4099 48.7954C60.4099 48.7657 64.0531 48.7402 68.548 48.7402C73.043 48.7402 76.6862 48.7657 76.6862 48.7954Z" fill="white"/>
<path d="M76.6862 50.0551C76.6862 50.0848 73.043 50.1103 68.548 50.1103C64.0531 50.1103 60.4099 50.0848 60.4099 50.0551C60.4099 50.0255 64.0531 50 68.548 50C73.043 50 76.6862 50.0233 76.6862 50.0551Z" fill="white"/>
<path d="M88.1921 77.9885C91.0594 77.9885 93.3838 75.8636 93.3838 73.2423C93.3838 70.621 91.0594 68.4961 88.1921 68.4961C85.3249 68.4961 83.0005 70.621 83.0005 73.2423C83.0005 75.8636 85.3249 77.9885 88.1921 77.9885Z" fill="#E0E0E0"/>
<path d="M89.6133 76.0472H86.8821C86.8357 76.0472 86.7898 76.0388 86.7469 76.0225C86.7041 76.0061 86.6652 75.9822 86.6325 75.9521C86.5998 75.9219 86.5739 75.8861 86.5564 75.8468C86.5389 75.8074 86.53 75.7653 86.5303 75.7227C86.5303 75.6373 86.5673 75.5553 86.6333 75.4948C86.6993 75.4344 86.7888 75.4004 86.8821 75.4004H89.6133C89.7066 75.4004 89.7961 75.4344 89.8621 75.4948C89.9281 75.5553 89.9651 75.6373 89.9651 75.7227C89.9655 75.7653 89.9566 75.8074 89.939 75.8468C89.9215 75.8861 89.8956 75.9219 89.8629 75.9521C89.8302 75.9822 89.7913 76.0061 89.7485 76.0225C89.7057 76.0388 89.6597 76.0472 89.6133 76.0472Z" fill="#263238"/>
<path d="M88.4031 70.1562H88.1624V71.2675H88.4031V70.1562Z" fill="#263238"/>
<path d="M84.7434 74.599C85.132 74.599 85.4471 74.3103 85.4471 73.9543C85.4471 73.5982 85.132 73.3096 84.7434 73.3096C84.3548 73.3096 84.0398 73.5982 84.0398 73.9543C84.0398 74.3103 84.3548 74.599 84.7434 74.599Z" fill="#CCDCFF"/>
<path d="M91.8584 74.5541C92.247 74.5541 92.5621 74.2654 92.5621 73.9093C92.5621 73.5533 92.247 73.2646 91.8584 73.2646C91.4698 73.2646 91.1548 73.5533 91.1548 73.9093C91.1548 74.2654 91.4698 74.5541 91.8584 74.5541Z" fill="#CCDCFF"/>
<path d="M88.3865 71.0339C88.3865 71.0339 91.252 71.0021 91.7057 73.2755C92.1593 75.5489 89.736 75.5935 89.0393 75.6359C88.7245 75.655 88.0486 75.6571 87.4515 75.6486C86.1298 75.6274 85.197 75.392 84.8799 74.2701C84.8419 74.1382 84.8179 74.0033 84.8082 73.8672C84.7248 72.6372 85.6322 70.9724 88.3865 71.0339Z" fill="#CCDCFF"/>
<path d="M86.3082 74.4974L90.4745 74.5568C90.684 74.5596 90.8862 74.4862 91.0368 74.3526C91.1874 74.219 91.274 74.0362 91.2776 73.8442C91.2801 73.6522 91.1994 73.4671 91.0532 73.3296C90.9069 73.192 90.7072 73.1132 90.4976 73.1104L86.3313 73.0489C86.1218 73.0461 85.9195 73.1195 85.769 73.2531C85.6184 73.3867 85.5318 73.5695 85.5282 73.7615C85.5266 73.8567 85.5456 73.9513 85.584 74.0399C85.6223 74.1284 85.6794 74.2091 85.7518 74.2775C85.8242 74.3458 85.9107 74.4004 86.0061 74.4381C86.1016 74.4759 86.2042 74.496 86.3082 74.4974Z" fill="#263238"/>
<path d="M89.6089 73.7658C89.6145 73.7961 89.6266 73.825 89.6444 73.8509C89.6622 73.8769 89.6855 73.8993 89.7128 73.9171C89.7401 73.9348 89.7709 73.9474 89.8035 73.9542C89.8361 73.961 89.8699 73.9619 89.9029 73.9567C89.9359 73.9516 89.9674 73.9405 89.9957 73.9242C90.024 73.9079 90.0486 73.8866 90.0679 73.8616C90.0873 73.8366 90.101 73.8083 90.1085 73.7784C90.1159 73.7485 90.1168 73.7176 90.1112 73.6874C90.1076 73.6551 90.0968 73.6239 90.0793 73.5956C90.0618 73.5674 90.0381 73.5429 90.0096 73.5235C89.9812 73.5042 89.9487 73.4905 89.9141 73.4833C89.8796 73.4761 89.8438 73.4756 89.8091 73.4819C89.7743 73.4881 89.7413 73.5009 89.7123 73.5194C89.6832 73.538 89.6587 73.5619 89.6403 73.5896C89.6219 73.6173 89.61 73.6483 89.6054 73.6804C89.6008 73.7126 89.6036 73.7453 89.6136 73.7765L89.6089 73.7658Z" fill="white"/>
<path d="M86.6993 73.7232C86.7089 73.7685 86.7329 73.8101 86.7684 73.8429C86.8039 73.8756 86.8491 73.898 86.8985 73.9072C86.9478 73.9164 86.999 73.912 87.0456 73.8945C87.0922 73.877 87.1321 73.8473 87.1603 73.809C87.1884 73.7708 87.2036 73.7257 87.2038 73.6796C87.204 73.6335 87.1893 73.5883 87.1615 73.5498C87.1337 73.5114 87.0941 73.4813 87.0477 73.4635C87.0012 73.4456 86.9501 73.4408 86.9006 73.4496C86.8678 73.4554 86.8366 73.4671 86.8087 73.4841C86.7808 73.501 86.7568 73.5227 86.7381 73.5482C86.7194 73.5736 86.7063 73.6021 86.6997 73.6321C86.693 73.6622 86.6929 73.6931 86.6993 73.7232Z" fill="white"/>
<path d="M88.6783 70.1322C88.6783 70.2039 88.6551 70.274 88.6116 70.3337C88.5681 70.3933 88.5063 70.4398 88.434 70.4672C88.3617 70.4947 88.2821 70.5018 88.2053 70.4879C88.1285 70.4739 88.058 70.4393 88.0026 70.3886C87.9473 70.3379 87.9096 70.2733 87.8943 70.2029C87.8791 70.1326 87.8869 70.0597 87.9168 69.9934C87.9468 69.9271 87.9975 69.8705 88.0626 69.8306C88.1277 69.7908 88.2042 69.7695 88.2825 69.7695C88.3875 69.7695 88.4882 69.8077 88.5624 69.8757C88.6366 69.9438 88.6783 70.036 88.6783 70.1322Z" fill="#CCDCFF"/>
<path d="M88.8798 73.6572C88.8798 73.6572 88.896 73.6763 88.9053 73.7145C88.9125 73.7687 88.9069 73.8236 88.8891 73.8757C88.8631 73.956 88.8153 74.0289 88.7502 74.0877C88.67 74.1612 88.5645 74.2069 88.4516 74.2171C88.3388 74.2257 88.2261 74.1988 88.1322 74.1408C88.0579 74.0946 87.9968 74.0328 87.954 73.9605C87.9268 73.9117 87.9111 73.8582 87.9077 73.8036C87.9077 73.7654 87.9077 73.7442 87.9216 73.7442C87.9355 73.7442 87.9447 73.8248 88.0211 73.9223C88.0649 73.9787 88.1209 74.0264 88.1855 74.0623C88.2635 74.1031 88.3527 74.1223 88.4424 74.1174C88.5286 74.1073 88.6094 74.0733 88.6738 74.0199C88.7312 73.9747 88.7777 73.9191 88.8104 73.8566C88.8706 73.7421 88.8613 73.6593 88.8798 73.6572Z" fill="white"/>
<path d="M91.7011 73.2012C91.7011 73.2012 91.7011 73.2224 91.722 73.2584C91.7313 73.2806 91.7391 73.3032 91.7451 73.3263C91.7451 73.3517 91.7613 73.3814 91.7683 73.4154C91.7856 73.4945 91.798 73.5745 91.8053 73.655C91.8133 73.7538 91.8133 73.8531 91.8053 73.9519C91.796 74.0506 91.7782 74.1485 91.7521 74.2446C91.7306 74.3234 91.7027 74.4007 91.6687 74.4757C91.6573 74.5046 91.6442 74.533 91.6294 74.5606C91.6197 74.5826 91.6081 74.6039 91.5947 74.6242L91.5623 74.6751C91.5683 74.6558 91.5769 74.6373 91.5877 74.6199C91.5877 74.603 91.6062 74.5818 91.6178 74.5563C91.6294 74.5309 91.6433 74.5033 91.6548 74.4715C91.6863 74.3962 91.7118 74.319 91.7312 74.2403C91.7561 74.1454 91.7739 74.0491 91.7845 73.9519C91.7913 73.8538 91.7913 73.7553 91.7845 73.6571C91.7788 73.5774 91.768 73.4981 91.7521 73.4196C91.7472 73.3888 91.7402 73.3584 91.7312 73.3284C91.7312 73.3008 91.7196 73.2796 91.715 73.2606C91.7071 73.2415 91.7024 73.2215 91.7011 73.2012Z" fill="#263238"/>
<path d="M84.9122 73.2168C84.9023 73.2351 84.8945 73.2543 84.8891 73.2741C84.8891 73.291 84.8752 73.3143 84.8659 73.3398C84.8567 73.3652 84.8497 73.3971 84.8428 73.431C84.825 73.51 84.8134 73.5901 84.808 73.6706C84.8 73.7695 84.8 73.8687 84.808 73.9675C84.8175 74.0662 84.8353 74.1641 84.8613 74.2602C84.8828 74.339 84.9106 74.4163 84.9446 74.4914C84.9562 74.5232 84.9724 74.5507 84.984 74.5762C84.9955 74.6016 85.0094 74.6228 85.0187 74.6398L85.0511 74.6907C85.0455 74.6713 85.0369 74.6528 85.0256 74.6356C85.0256 74.6186 85.0071 74.5974 84.9955 74.572C84.984 74.5465 84.9701 74.5189 84.9585 74.485C84.9274 74.4103 84.9018 74.3338 84.8821 74.256C84.8572 74.1603 84.8395 74.0633 84.8289 73.9654C84.822 73.868 84.822 73.7702 84.8289 73.6728C84.8347 73.5924 84.8455 73.5124 84.8613 73.4331C84.8662 73.403 84.8731 73.3733 84.8821 73.344C84.8821 73.3165 84.8937 73.2931 84.8983 73.2762C84.903 73.2592 84.9122 73.2168 84.9122 73.2168Z" fill="#263238"/>
<path d="M85.5305 77.318C85.5305 77.318 86.3823 76.5566 88.1622 76.5566C89.9421 76.5566 90.8541 77.318 90.8541 77.318C90.0508 77.7621 89.1305 77.9968 88.1923 77.9968C87.2541 77.9968 86.3338 77.7621 85.5305 77.318Z" fill="#CCDCFF"/>
<path d="M59.7901 78.081H77.4829C77.6918 78.0813 77.8987 78.0438 78.0918 77.9707C78.2848 77.8976 78.4602 77.7903 78.608 77.6549C78.7557 77.5196 78.8728 77.3589 78.9526 77.182C79.0324 77.0051 79.0733 76.8155 79.073 76.6241V71.9203L81.0242 70.334H59.7901C59.5813 70.334 59.3745 70.3717 59.1816 70.4449C58.9886 70.5181 58.8133 70.6254 58.6657 70.7607C58.518 70.896 58.4009 71.0566 58.321 71.2334C58.2411 71.4101 58.2 71.5996 58.2 71.7909V76.6241C58.1996 76.8155 58.2406 77.0051 58.3204 77.182C58.4002 77.3589 58.5173 77.5196 58.665 77.6549C58.8127 77.7903 58.9881 77.8976 59.1812 77.9707C59.3743 78.0438 59.5812 78.0813 59.7901 78.081Z" fill="#EBEBEB"/>
<path d="M59.7901 85.4381H77.4829C77.6919 85.4381 77.8989 85.4004 78.0919 85.327C78.285 85.2537 78.4604 85.1461 78.6081 85.0106C78.7558 84.8751 78.8729 84.7142 78.9526 84.5372C79.0324 84.3602 79.0733 84.1705 79.073 83.979V82.4203L81.0242 80.834H59.7901C59.5813 80.834 59.3745 80.8717 59.1816 80.9449C58.9886 81.0181 58.8133 81.1254 58.6657 81.2607C58.518 81.396 58.4009 81.5566 58.321 81.7334C58.2411 81.9101 58.2 82.0996 58.2 82.2909V83.9875C58.2018 84.3728 58.3701 84.7418 58.6681 85.0136C58.9661 85.2855 59.3696 85.4381 59.7901 85.4381Z" fill="#EBEBEB"/>
<path d="M76.6862 72.6264C76.6862 72.6582 73.043 72.6816 68.548 72.6816C64.0531 72.6816 60.4099 72.6582 60.4099 72.6264C60.4099 72.5946 64.0531 72.5713 68.548 72.5713C73.043 72.5713 76.6862 72.6031 76.6862 72.6264Z" fill="white"/>
<path d="M76.6862 73.8999C76.6862 73.9296 73.043 73.955 68.548 73.955C64.0531 73.955 60.4099 73.9296 60.4099 73.8999C60.4099 73.8702 64.0531 73.8447 68.548 73.8447C73.043 73.8447 76.6862 73.8638 76.6862 73.8999Z" fill="white"/>
<path d="M76.6862 75.1528C76.6862 75.1825 73.043 75.2079 68.548 75.2079C64.0531 75.2079 60.4099 75.1825 60.4099 75.1528C60.4099 75.1231 64.0531 75.0977 68.548 75.0977C73.043 75.0977 76.6862 75.121 76.6862 75.1528Z" fill="white"/>
<path d="M76.6862 76.4126C76.6862 76.4423 73.043 76.4677 68.548 76.4677C64.0531 76.4677 60.4099 76.4423 60.4099 76.4126C60.4099 76.3829 64.0531 76.3574 68.548 76.3574C73.043 76.3574 76.6862 76.3808 76.6862 76.4126Z" fill="white"/>
<path d="M76.7418 83.2036C76.7418 83.2333 73.1357 83.2587 68.6893 83.2587C64.243 83.2587 60.6345 83.2333 60.6345 83.2036C60.6345 83.1739 64.2407 83.1484 68.6893 83.1484C73.138 83.1484 76.7418 83.1718 76.7418 83.2036Z" fill="white"/>
<path d="M17.5343 80.1322C17.846 80.201 18.1394 80.3268 18.3967 80.5021C18.6541 80.6774 18.8701 80.8985 19.0318 81.1522C19.3517 81.663 19.5409 82.2337 19.585 82.8213C19.703 83.9495 19.2748 85.1944 18.7425 86.2145C17.5412 85.5994 16.9834 84.2316 16.7473 83.5211C16.3746 82.3992 16.4441 80.1619 17.5343 80.1279" fill="#455A64"/>
<path d="M20.3397 87.8097C20.1963 87.5092 20.1422 87.1792 20.1828 86.8533C20.2235 86.5274 20.3574 86.2172 20.5712 85.954C20.7912 85.695 21.0654 85.4788 21.3778 85.3182C21.6903 85.1576 22.0345 85.0558 22.3905 85.0188C22.5502 84.9871 22.7155 84.9872 22.8752 85.0191C23.0349 85.0509 23.1853 85.1137 23.3163 85.2033C23.4228 85.3069 23.497 85.4347 23.5312 85.5734C23.5653 85.7122 23.5583 85.8568 23.5107 85.9922C23.4124 86.262 23.2384 86.5033 23.0062 86.6921C22.2447 87.3665 21.372 87.8903 20.3166 87.8097" fill="#455A64"/>
<path d="M19.8212 91.4428C19.8076 91.3657 19.8021 91.2875 19.805 91.2095C19.805 91.0441 19.805 90.8299 19.7865 90.5733C19.7394 89.8701 19.8175 89.1645 20.018 88.4843C20.2332 87.8023 20.6431 87.1851 21.2054 86.6966C21.3776 86.5514 21.5679 86.4254 21.7724 86.3212C21.827 86.2926 21.8835 86.2671 21.9414 86.2448C21.9606 86.2341 21.9818 86.2269 22.0039 86.2236C21.7343 86.372 21.4815 86.5446 21.2493 86.739C20.706 87.229 20.3078 87.8377 20.092 88.5077C19.8929 89.1804 19.8047 89.8766 19.8305 90.5733C19.8305 90.8426 19.8305 91.0589 19.8305 91.2095C19.8336 91.2874 19.8306 91.3653 19.8212 91.4428Z" fill="#263238"/>
<path d="M17.6453 81.8418C17.6601 81.8725 17.6717 81.9045 17.68 81.9372C17.7032 82.0093 17.731 82.1026 17.7634 82.2172C17.8351 82.4611 17.9346 82.8152 18.0504 83.2542C18.2818 84.1322 18.592 85.3495 18.8975 86.6983C19.203 88.0471 19.4484 89.2771 19.6127 90.1678C19.6937 90.6132 19.7562 90.9737 19.7979 91.2282C19.8164 91.3469 19.8303 91.4403 19.8419 91.5166C19.8456 91.5505 19.8456 91.5845 19.8419 91.6184C19.8299 91.5859 19.8206 91.5525 19.8141 91.5187C19.7979 91.4445 19.7794 91.3512 19.7539 91.2324C19.7007 90.9758 19.6289 90.6174 19.541 90.1827C19.3604 89.2941 19.1058 88.0619 18.8003 86.7195C18.4948 85.3771 18.1985 84.1534 17.9809 83.2733C17.8721 82.8491 17.7842 82.4865 17.7217 82.2299C17.6939 82.1132 17.6708 82.0178 17.6546 81.9457C17.6471 81.9115 17.644 81.8766 17.6453 81.8418Z" fill="#263238"/>
<path d="M18.7429 88.8206C18.4646 88.178 18.0235 87.6052 17.456 87.1494C16.8886 86.6937 16.2111 86.3681 15.4793 86.1994C15.1067 86.1166 14.6438 86.106 14.4169 86.3902C14.1901 86.6744 14.3498 87.0773 14.5604 87.3721C15.0107 87.9783 15.6463 88.4491 16.3875 88.7256C17.1286 89.0022 17.9424 89.0721 18.7267 88.9266" fill="#455A64"/>
<path d="M15.8866 87.2031C15.9649 87.2121 16.0424 87.227 16.118 87.2477C16.2097 87.2672 16.3001 87.2913 16.3888 87.3198C16.4907 87.3537 16.6203 87.3834 16.7384 87.4364C16.8564 87.4894 17.0068 87.5403 17.148 87.6124C17.303 87.6844 17.453 87.7651 17.5971 87.8542C17.9289 88.0559 18.2342 88.2922 18.5067 88.5583C18.774 88.828 19.0069 89.1247 19.2011 89.4426C19.2866 89.58 19.3639 89.7216 19.4325 89.8668C19.4918 89.9942 19.5436 90.1245 19.5876 90.257C19.6339 90.3757 19.6524 90.4903 19.6802 90.5878C19.7024 90.6717 19.7194 90.7567 19.7311 90.8423C19.7453 90.9123 19.753 90.9832 19.7543 91.0544C19.7334 91.0544 19.6964 90.7448 19.5228 90.2676C19.477 90.1385 19.4237 90.0118 19.3631 89.888C19.2945 89.7428 19.2172 89.6012 19.1317 89.4638C18.9353 89.1531 18.7025 88.8629 18.4373 88.5986C18.1683 88.3383 17.8704 88.1045 17.5485 87.9008C17.3957 87.8118 17.2522 87.7248 17.1087 87.6591C16.979 87.5915 16.8453 87.5306 16.7083 87.4767C16.2153 87.2901 15.8796 87.2201 15.8866 87.2031Z" fill="#263238"/>
<path d="M23.2424 25.0582L22.386 22.6087C23.6041 20.7977 24.0387 18.6346 23.6045 16.5448C23.1703 14.455 21.8987 12.5896 20.0395 11.3152C18.1804 10.0409 15.8682 9.44981 13.5576 9.65818C11.247 9.86655 9.10494 10.8593 7.55263 12.4413C6.00031 14.0232 5.14997 16.08 5.16876 18.2073C5.18755 20.3346 6.07412 22.3785 7.65418 23.9372C9.23424 25.496 11.3935 26.4568 13.7075 26.6309C16.0216 26.805 18.323 26.1797 20.1593 24.8779L23.2424 25.0582Z" fill="#FAFAFA"/>
<path d="M23.242 25.0593H23.0476L22.4597 25.0317L20.1451 24.9151C20.1415 24.9151 20.138 24.9145 20.1348 24.9132C20.1315 24.9119 20.1286 24.9099 20.1262 24.9075C20.1238 24.9051 20.122 24.9023 20.1208 24.8992C20.1197 24.8962 20.1193 24.8929 20.1196 24.8897C20.1186 24.8855 20.1186 24.8811 20.1196 24.8769L20.1566 24.9109C18.5483 26.0619 16.5706 26.6948 14.5299 26.7114C14.0145 26.7089 13.5 26.6713 12.9906 26.599C10.6241 26.2596 8.4925 25.0946 7.04212 23.3479C6.23435 22.3646 5.66536 21.2344 5.37329 20.0332C5.05591 18.7559 5.06859 17.4284 5.41033 16.1565C5.45431 15.9953 5.5006 15.832 5.54689 15.6708C5.59318 15.5096 5.66956 15.3527 5.72974 15.1936C5.78839 15.0328 5.85638 14.8749 5.93343 14.7207C6.01212 14.568 6.09313 14.4153 6.16489 14.2605C6.24454 14.1058 6.3358 13.9562 6.43801 13.813L6.73196 13.3719L7.0699 12.9478L7.24118 12.7357C7.29904 12.6678 7.36617 12.6063 7.42866 12.5406C8.4296 11.4861 9.69936 10.6746 11.1251 10.1781C12.4823 9.70425 13.9398 9.52074 15.3863 9.64155C16.7454 9.76537 18.0581 10.1622 19.2308 10.8037C21.3149 11.9378 22.835 13.771 23.4688 15.9147C23.6027 16.374 23.6987 16.8419 23.7559 17.3144C23.7929 17.7561 23.8014 18.1994 23.7813 18.642C23.6926 20.0525 23.22 21.4202 22.4064 22.6205V22.6014C22.6796 23.3988 22.8879 24.0138 23.0314 24.4337C23.1008 24.6458 23.1517 24.7921 23.1888 24.9003L23.2397 25.0572C23.2397 25.0572 23.2166 24.9999 23.1772 24.8939L23.0082 24.4252C22.8601 24.0011 22.6402 23.403 22.3578 22.6162C22.3554 22.6101 22.3554 22.6033 22.3578 22.5971C23.156 21.3996 23.6166 20.0389 23.698 18.6377C23.7157 18.1992 23.7049 17.7602 23.6656 17.3229C23.6078 16.8545 23.5111 16.3908 23.3763 15.9359C22.8798 14.2857 21.8501 12.8117 20.4224 11.7076C18.9947 10.6035 17.2359 9.92097 15.377 9.74971C13.9488 9.62995 12.5095 9.81056 11.1691 10.2778C9.765 10.77 8.51465 11.5712 7.52819 12.6106C7.46801 12.6763 7.40088 12.7357 7.34302 12.8036L7.17405 13.0156L6.84075 13.4249L6.55374 13.8618C6.45191 14.0045 6.36066 14.1533 6.28062 14.3072C6.20192 14.4577 6.12322 14.6104 6.04916 14.761C5.97365 14.9131 5.9072 15.0689 5.8501 15.2276C5.78992 15.3845 5.71817 15.5393 5.66725 15.6984C5.61633 15.8574 5.57698 16.0186 5.533 16.1777C5.19739 17.4301 5.18312 18.7367 5.49134 19.995C5.89241 21.6474 6.82594 23.1513 8.17094 24.3118C9.51593 25.4723 11.2104 26.2359 13.0346 26.5035C13.5393 26.5762 14.0491 26.6151 14.5599 26.6202C15.0368 26.6183 15.5128 26.5822 15.9834 26.512C17.5 26.2856 18.9315 25.718 20.1497 24.86C20.1521 24.8577 20.155 24.8558 20.1581 24.8546C20.1613 24.8533 20.1648 24.8527 20.1682 24.8527C20.1717 24.8527 20.1751 24.8533 20.1783 24.8546C20.1815 24.8558 20.1844 24.8577 20.1867 24.86C20.1901 24.8643 20.192 24.8695 20.192 24.8748C20.192 24.8801 20.1901 24.8853 20.1867 24.8897L20.1682 24.8515L22.455 24.9957L23.0476 25.0339L23.242 25.0593Z" fill="#263238"/>
<path d="M11.8636 18.1532C11.8636 18.3239 11.8083 18.4908 11.7048 18.6327C11.6013 18.7747 11.4542 18.8853 11.282 18.9506C11.1099 19.0159 10.9205 19.033 10.7378 18.9997C10.555 18.9664 10.3872 18.8842 10.2554 18.7635C10.1237 18.6428 10.0339 18.489 9.99759 18.3216C9.96124 18.1541 9.9799 17.9806 10.0512 17.8229C10.1225 17.6652 10.2432 17.5303 10.3982 17.4355C10.5531 17.3407 10.7352 17.29 10.9215 17.29C11.1712 17.2906 11.4105 17.3817 11.587 17.5435C11.7635 17.7052 11.863 17.9244 11.8636 18.1532Z" fill="#263238"/>
<path d="M15.6363 18.1532C15.6363 18.3239 15.581 18.4908 15.4775 18.6327C15.374 18.7747 15.2269 18.8853 15.0547 18.9506C14.8826 19.0159 14.6932 19.033 14.5105 18.9997C14.3277 18.9664 14.1599 18.8842 14.0281 18.7635C13.8964 18.6428 13.8066 18.489 13.7703 18.3216C13.7339 18.1541 13.7526 17.9806 13.8239 17.8229C13.8952 17.6652 14.016 17.5303 14.1709 17.4355C14.3258 17.3407 14.5079 17.29 14.6942 17.29C14.9439 17.2906 15.1832 17.3817 15.3597 17.5435C15.5362 17.7052 15.6357 17.9244 15.6363 18.1532Z" fill="#263238"/>
<path d="M19.3999 17.7226C19.4927 17.8704 19.5357 18.0402 19.5234 18.2104C19.511 18.3806 19.4439 18.5437 19.3305 18.6789C19.2171 18.8142 19.0625 18.9157 18.8862 18.9705C18.7099 19.0253 18.5198 19.0311 18.34 18.987C18.1601 18.9429 17.9985 18.851 17.8757 18.7228C17.7528 18.5947 17.6741 18.436 17.6496 18.2669C17.625 18.0978 17.6557 17.9259 17.7378 17.7728C17.8199 17.6196 17.9496 17.4922 18.1106 17.4066C18.2179 17.3496 18.3363 17.3125 18.4592 17.2976C18.5821 17.2826 18.7071 17.29 18.8268 17.3194C18.9466 17.3487 19.0589 17.3994 19.1572 17.4686C19.2556 17.5378 19.338 17.6241 19.3999 17.7226Z" fill="#263238"/>
<path d="M19.7749 56.2967L10.0258 55.372L5.89651 46.7852L2.68848 47.5507C2.68848 47.5507 5.05863 56.6254 7.71116 58.0314C10.3637 59.4375 19.4254 59.6899 19.4254 59.6899L19.7749 56.2967Z" fill="#CCDCFF"/>
<path d="M24.9578 60.6647C26.5441 59.0293 26.3832 56.5254 24.5984 55.0719C22.8135 53.6185 20.0807 53.7659 18.4944 55.4013C16.908 57.0366 17.069 59.5406 18.8538 60.994C20.6386 62.4475 23.3715 62.3 24.9578 60.6647Z" fill="#263238"/>
<path d="M21.7261 61.9983C20.7242 61.9983 19.7533 61.68 18.9788 61.0976C18.2043 60.5153 17.6742 59.7048 17.4787 58.8045C17.2833 57.9041 17.4346 56.9695 17.9069 56.1599C18.3792 55.3503 19.1432 54.7158 20.0689 54.3645C20.9945 54.0132 22.0245 53.9669 22.9833 54.2334C23.942 54.4998 24.7703 55.0627 25.3269 55.826C25.8835 56.5893 26.1341 57.5058 26.0359 58.4193C25.9377 59.3329 25.4968 60.187 24.7883 60.8361C24.3871 61.2057 23.9099 61.4987 23.3843 61.6982C22.8586 61.8977 22.295 61.9997 21.7261 61.9983ZM21.7261 54.0752C20.7269 54.0743 19.7582 54.3908 18.9852 54.9709C18.2121 55.551 17.6825 56.3587 17.4865 57.2564C17.2905 58.1542 17.4404 59.0864 17.9105 59.8943C18.3806 60.7022 19.1418 61.3357 20.0646 61.687C20.9873 62.0382 22.0145 62.0855 22.971 61.8207C23.9275 61.5558 24.7542 60.9953 25.3102 60.2347C25.8663 59.474 26.1172 58.5602 26.0204 57.649C25.9235 56.7377 25.4848 55.8855 24.7791 55.2374C24.3793 54.8683 23.9037 54.5756 23.3796 54.3761C22.8556 54.1766 22.2936 54.0744 21.7261 54.0752Z" fill="#263238"/>
<path d="M9.15179 58.7105C10.8932 58.3274 11.966 56.7234 11.5479 55.1278C11.1299 53.5323 9.37922 52.5493 7.63778 52.9324C5.89634 53.3154 4.82354 54.9195 5.24163 56.515C5.65971 58.1106 7.41035 59.0936 9.15179 58.7105Z" fill="#263238"/>
<path d="M5.93202 47.4797C6.96699 46.5314 6.96699 44.994 5.93202 44.0457C4.89704 43.0974 3.21902 43.0974 2.18405 44.0457C1.14907 44.994 1.14907 46.5314 2.18405 47.4797C3.21902 48.428 4.89704 48.428 5.93202 47.4797Z" fill="#263238"/>
<path d="M8.18905 44.4495L6.00684 46.1379L5.21984 45.2841L7.40205 43.5956C7.51696 43.5067 7.66571 43.4632 7.81557 43.4748C7.96544 43.4864 8.10415 43.5521 8.20118 43.6573L8.25494 43.7157C8.30335 43.7678 8.34005 43.8281 8.36294 43.8932C8.38584 43.9583 8.39447 44.0269 8.38835 44.0951C8.38223 44.1633 8.36147 44.2297 8.32727 44.2905C8.29307 44.3513 8.2461 44.4054 8.18905 44.4495Z" fill="#263238"/>
<path d="M5.41748 41.3565V43.9014C5.41748 43.9211 5.40895 43.9399 5.39375 43.9539C5.37856 43.9678 5.35796 43.9756 5.33647 43.9756H4.28101C4.25953 43.9756 4.23892 43.9678 4.22373 43.9539C4.20854 43.9399 4.2 43.9211 4.2 43.9014V41.3565C4.2 41.2187 4.25975 41.0865 4.3661 40.9891C4.47244 40.8917 4.61668 40.8369 4.76708 40.8369H4.8504C5.0008 40.8369 5.14504 40.8917 5.25139 40.9891C5.35774 41.0865 5.41748 41.2187 5.41748 41.3565Z" fill="#263238"/>
<path d="M3.45193 41.3664L4.0583 43.8499C4.06299 43.8691 4.05916 43.8893 4.04765 43.9059C4.03614 43.9225 4.01789 43.9343 3.99692 43.9386L2.96693 44.1497C2.94596 44.154 2.92399 44.1505 2.90584 44.1399C2.8877 44.1294 2.87488 44.1127 2.87018 44.0935L2.26381 41.61C2.23098 41.4755 2.2578 41.3346 2.33836 41.2182C2.41893 41.1018 2.54664 41.0196 2.69341 40.9895L2.77473 40.9728C2.9215 40.9427 3.0753 40.9673 3.2023 41.0411C3.3293 41.1149 3.41909 41.2319 3.45193 41.3664Z" fill="#263238"/>
<path d="M1.33774 41.989L2.7265 44.193C2.73724 44.21 2.74015 44.2303 2.73459 44.2493C2.72903 44.2683 2.71545 44.2845 2.69685 44.2944L1.78279 44.7779C1.76419 44.7877 1.74207 44.7904 1.72132 44.7853C1.70057 44.7802 1.68287 44.7678 1.67213 44.7507L0.283367 42.5468C0.208168 42.4274 0.18779 42.2856 0.226716 42.1525C0.265642 42.0194 0.360686 41.9059 0.490934 41.837L0.563097 41.7989C0.693345 41.73 0.848131 41.7113 0.993405 41.7469C1.13868 41.7826 1.26254 41.8697 1.33774 41.989Z" fill="#263238"/>
<path d="M62.1454 78.5414L65.0635 77.4043L56.6434 59.2644L53.7253 60.4015L62.1454 78.5414Z" fill="#CCDCFF"/>
<path d="M57.062 60.9981C58.6055 59.3287 58.3797 56.829 56.5577 55.4147C54.7358 54.0005 52.0075 54.2074 50.464 55.8767C48.9205 57.5461 49.1462 60.0459 50.9682 61.4601C52.7902 62.8743 55.5184 62.6675 57.062 60.9981Z" fill="#263238"/>
<path d="M53.7718 62.414C53.0935 62.4143 52.4246 62.2687 51.8189 61.9888C51.2132 61.709 50.6877 61.3028 50.2846 60.8029C49.8816 60.303 49.6122 59.7234 49.4983 59.1107C49.3844 58.498 49.4291 57.8694 49.6287 57.2754C49.8654 56.5748 50.3095 55.9481 50.9117 55.4649C51.5138 54.9817 52.2504 54.6609 53.0396 54.5383C53.8287 54.4156 54.6396 54.4959 55.3819 54.7701C56.1243 55.0444 56.7692 55.5019 57.2448 56.0918C57.7204 56.6816 58.0082 57.3808 58.0761 58.1116C58.1441 58.8423 57.9895 59.576 57.6296 60.2311C57.2698 60.8862 56.7187 61.4371 56.0377 61.8224C55.3566 62.2078 54.5723 62.4125 53.7718 62.414ZM53.7718 54.4867C52.9728 54.4874 52.1896 54.6912 51.5094 55.0755C50.8292 55.4598 50.2787 56.0094 49.9191 56.6633C49.5596 57.3171 49.405 58.0496 49.4727 58.7791C49.5404 59.5086 49.8276 60.2066 50.3025 60.7955C50.7773 61.3844 51.4211 61.841 52.1623 62.1146C52.9035 62.3882 53.713 62.468 54.5008 62.3452C55.2886 62.2223 56.0237 61.9017 56.6244 61.4189C57.2251 60.936 57.6679 60.31 57.9034 59.6104C58.2396 58.6078 58.1279 57.5239 57.5929 56.5967C57.0578 55.6695 56.1431 54.9747 55.0495 54.6648C54.6312 54.5461 54.1958 54.4861 53.758 54.4867H53.7718Z" fill="#263238"/>
<path d="M62.5173 70.282C62.9968 68.701 61.9867 67.0632 60.2612 66.6239C58.5357 66.1845 56.7481 67.11 56.2686 68.691C55.7891 70.272 56.7992 71.9099 58.5248 72.3492C60.2503 72.7886 62.0378 71.8631 62.5173 70.282Z" fill="#263238"/>
<path d="M64.2825 81.1631C65.7462 81.1631 66.9328 80.076 66.9328 78.7349C66.9328 77.3938 65.7462 76.3066 64.2825 76.3066C62.8189 76.3066 61.6323 77.3938 61.6323 78.7349C61.6323 80.076 62.8189 81.1631 64.2825 81.1631Z" fill="#263238"/>
<path d="M60.8161 81.1803L62.3001 78.9493L63.3417 79.5309L61.8577 81.762C61.7794 81.8796 61.6534 81.964 61.5072 81.9965C61.361 82.029 61.2068 82.007 61.0784 81.9353L61.0072 81.8955C60.9433 81.8602 60.8876 81.8136 60.8434 81.7585C60.7992 81.7033 60.7673 81.6407 60.7495 81.5743C60.7318 81.5078 60.7285 81.4388 60.7399 81.3712C60.7514 81.3036 60.7773 81.2388 60.8161 81.1803Z" fill="#263238"/>
<path d="M64.5109 83.3081L63.6314 80.8941C63.6246 80.8755 63.6261 80.8551 63.6357 80.8375C63.6453 80.8199 63.6622 80.8065 63.6826 80.8002L64.6837 80.494C64.7041 80.4878 64.7263 80.4892 64.7456 80.498C64.7648 80.5068 64.7794 80.5222 64.7862 80.5409L65.6657 82.9549C65.6884 83.0198 65.6969 83.0883 65.6908 83.1563C65.6846 83.2243 65.6639 83.2905 65.6298 83.3512C65.5957 83.4119 65.5489 83.4658 65.4921 83.5099C65.4353 83.554 65.3695 83.5874 65.2986 83.6082L65.2195 83.6324C65.0786 83.6737 64.9256 83.663 64.7931 83.6024C64.6607 83.5418 64.5594 83.4362 64.5109 83.3081Z" fill="#263238"/>
<path d="M66.3738 82.7298L64.9404 80.55C64.9349 80.5416 64.9313 80.5324 64.9297 80.5227C64.9281 80.5131 64.9286 80.5033 64.9312 80.4938C64.9337 80.4843 64.9383 80.4754 64.9446 80.4676C64.9509 80.4598 64.9589 80.4531 64.968 80.4481L65.872 79.949C65.8811 79.944 65.8912 79.9406 65.9018 79.9392C65.9123 79.9377 65.923 79.9382 65.9333 79.9405C65.9437 79.9429 65.9534 79.9471 65.9619 79.9529C65.9705 79.9587 65.9777 79.9659 65.9832 79.9743L67.4167 82.1541C67.4943 82.2721 67.5175 82.4136 67.4813 82.5473C67.4451 82.681 67.3524 82.7961 67.2236 82.8673L67.1522 82.9067C67.0234 82.9778 66.869 82.9991 66.723 82.9659C66.5771 82.9327 66.4515 82.8478 66.3738 82.7298Z" fill="#263238"/>
<path d="M68.1632 81.5275L66.0842 79.8399C66.0682 79.8268 66.0584 79.8085 66.0571 79.7888C66.0558 79.7692 66.0631 79.7498 66.0773 79.7351L66.7757 79.0129C66.79 78.9981 66.81 78.9892 66.8315 78.988C66.8529 78.9868 66.874 78.9935 66.8901 79.0065L68.969 80.6941C69.0816 80.7855 69.1499 80.9141 69.159 81.0517C69.1681 81.1892 69.1172 81.3245 69.0174 81.4276L68.9622 81.4848C68.8622 81.5873 68.7221 81.6493 68.5723 81.6573C68.4226 81.6653 68.2755 81.6187 68.1632 81.5275Z" fill="#263238"/>
<path d="M20.4417 53.9094C20.4417 53.9094 20.7541 81.7207 37.7873 82.2636C54.8204 82.8065 55.5356 54.1087 55.5356 53.9094C55.5356 53.9094 53.5242 49.7633 37.9886 49.9245C22.453 50.0857 20.4417 53.9094 20.4417 53.9094Z" fill="#CCDCFF"/>
<path d="M30.0055 49.0156H44.4023C45.3419 49.0156 46.1035 48.3178 46.1035 47.4569V47.23C46.1035 46.3691 45.3419 45.6712 44.4023 45.6712H30.0055C29.0659 45.6712 28.3042 46.3691 28.3042 47.23V47.4569C28.3042 48.3178 29.0659 49.0156 30.0055 49.0156Z" fill="#263238"/>
<path d="M36.5835 24.2852H37.8264V18.5274H36.5835V24.2852Z" fill="#263238"/>
<path d="M56.2099 41.4253C58.1724 40.9979 59.3852 39.1938 58.9188 37.3956C58.4523 35.5975 56.4832 34.4863 54.5207 34.9137C52.5582 35.341 51.3454 37.1452 51.8119 38.9433C52.2783 40.7415 54.2474 41.8527 56.2099 41.4253Z" fill="#CCDCFF"/>
<path d="M19.3043 41.2088C21.2715 40.8 22.5045 39.0074 22.0583 37.2049C21.6121 35.4025 19.6556 34.2728 17.6884 34.6816C15.7212 35.0904 14.4882 36.8831 14.9344 38.6855C15.3806 40.4879 17.3371 41.6177 19.3043 41.2088Z" fill="#CCDCFF"/>
<path d="M36.4815 23.0357C36.4815 23.0357 21.6311 22.8724 19.284 34.6658C16.937 46.4592 29.4914 46.6713 33.1045 46.894C34.741 46.9958 38.2453 47.0064 41.3376 46.9555C48.1842 46.8473 53.0217 45.6343 54.6674 39.815C54.8633 39.1326 54.9866 38.4344 55.0354 37.7303C55.4682 31.3426 50.7626 22.7218 36.4815 23.0357Z" fill="#CCDCFF"/>
<path d="M47.254 40.9857L25.6796 41.2933C25.1413 41.302 24.6064 41.2133 24.1055 41.0324C23.6047 40.8514 23.1477 40.5818 22.7607 40.2388C22.3737 39.8959 22.0643 39.4864 21.8503 39.0338C21.6362 38.5811 21.5217 38.0943 21.5133 37.601C21.5041 37.1077 21.6011 36.6176 21.7989 36.1587C21.9966 35.6997 22.2911 35.281 22.6656 34.9265C23.0401 34.572 23.4872 34.2885 23.9813 34.0925C24.4754 33.8964 25.0069 33.7914 25.5453 33.7837L47.1197 33.4762C47.6581 33.4672 48.1931 33.5557 48.6941 33.7365C49.1951 33.9173 49.6522 34.187 50.0393 34.53C50.4263 34.873 50.7357 35.2826 50.9496 35.7354C51.1636 36.1881 51.2779 36.6751 51.286 37.1684C51.2955 37.6618 51.1987 38.1521 51.0011 38.6111C50.8035 39.0702 50.5089 39.489 50.1344 39.8436C49.7599 40.1982 49.3126 40.4816 48.8184 40.6776C48.3241 40.8736 47.7925 40.9783 47.254 40.9857Z" fill="#263238"/>
<path d="M30.1625 37.1919C30.1124 37.4257 29.9877 37.6405 29.8042 37.8093C29.6208 37.9782 29.3868 38.0934 29.132 38.1404C28.8771 38.1874 28.6127 38.1641 28.3723 38.0734C28.1319 37.9828 27.9262 37.8288 27.7812 37.6311C27.6362 37.4333 27.5585 37.2007 27.5579 36.9624C27.5572 36.7242 27.6337 36.4912 27.7776 36.2928C27.9215 36.0944 28.1263 35.9395 28.3663 35.8478C28.6062 35.756 28.8705 35.7316 29.1256 35.7774C29.2951 35.8079 29.4563 35.8686 29.6002 35.9562C29.744 36.0438 29.8676 36.1565 29.9639 36.2878C30.0602 36.4192 30.1273 36.5666 30.1614 36.7218C30.1955 36.8769 30.1959 37.0367 30.1625 37.1919Z" fill="white"/>
<path d="M45.2284 36.9711C45.1786 37.2051 45.0543 37.4202 44.871 37.5893C44.6878 37.7585 44.4539 37.874 44.199 37.9213C43.944 37.9686 43.6795 37.9456 43.4389 37.8551C43.1982 37.7646 42.9923 37.6108 42.8471 37.413C42.702 37.2153 42.6241 36.9825 42.6233 36.7442C42.6225 36.5059 42.699 36.2727 42.8429 36.0742C42.9868 35.8757 43.1918 35.7208 43.4318 35.629C43.6719 35.5372 43.9362 35.5128 44.1915 35.5587C44.5333 35.6203 44.8344 35.8036 45.0288 36.0684C45.2233 36.3332 45.295 36.6579 45.2284 36.9711Z" fill="white"/>
<path d="M43.0598 64.9546C42.9752 66.0159 42.5491 67.0304 41.8353 67.8697C41.1215 68.7091 40.1521 69.3357 39.0497 69.6703C37.9472 70.0049 36.7613 70.0325 35.6417 69.7495C34.5222 69.4666 33.5193 68.8858 32.76 68.0807C32.0007 67.2755 31.519 66.2822 31.3758 65.2262C31.2327 64.1702 31.4345 63.0991 31.9557 62.1482C32.4769 61.1973 33.2942 60.4093 34.3042 59.884C35.3141 59.3587 36.4714 59.1195 37.6297 59.1968C39.1829 59.301 40.6274 59.9661 41.6457 61.0458C42.6639 62.1255 43.1725 63.5314 43.0598 64.9546Z" fill="#263238"/>
<path d="M41.4696 64.848C41.4078 65.6215 41.0971 66.3609 40.5767 66.9726C40.0564 67.5842 39.3497 68.0408 38.5461 68.2845C37.7425 68.5282 36.8781 68.5481 36.0622 68.3417C35.2463 68.1352 34.5155 67.7117 33.9622 67.1248C33.409 66.5378 33.0582 65.8137 32.9541 65.044C32.85 64.2743 32.9974 63.4936 33.3776 62.8007C33.7578 62.1078 34.3536 61.5337 35.0899 61.1511C35.8262 60.7684 36.6698 60.5944 37.514 60.6511C38.0746 60.6884 38.6216 60.8267 39.1239 61.0578C39.6262 61.289 40.0738 61.6086 40.4411 61.9984C40.8085 62.3882 41.0884 62.8405 41.2649 63.3294C41.4414 63.8184 41.5109 64.3344 41.4696 64.848Z" fill="white"/>
<path d="M39.4073 65.5606C39.3747 65.3464 39.3615 65.13 39.368 64.9138C39.3564 64.5087 39.3472 63.9298 39.3472 63.2172L39.3935 63.2957L37.1923 62.1187H37.3149L35.0929 63.2617C35.0327 63.3551 35.1739 63.1366 35.16 63.1599V63.4611V63.7644C35.16 63.9637 35.16 64.1631 35.1485 64.3582C35.1485 64.7484 35.1323 65.1259 35.1253 65.4906L35.0651 65.3931L37.2409 66.6104H37.1437C37.8218 66.2753 38.382 66.0081 38.7639 65.8257C38.9694 65.7185 39.1837 65.6263 39.405 65.55C39.2324 65.6789 39.0463 65.7918 38.8495 65.8872C38.4746 66.0993 37.9237 66.3983 37.2293 66.7652L37.1807 66.7906L37.1321 66.7652L34.9286 65.5882L34.8684 65.5564V65.4885C34.8684 65.1237 34.873 64.7463 34.8823 64.356C34.8823 64.1609 34.8823 63.9637 34.8823 63.7622V63.4611V63.1684C34.8684 63.1918 35.0096 62.9754 34.9494 63.0666L37.1784 61.9342L37.2432 61.9023L37.3034 61.9363L39.4768 63.1536L39.5254 63.1811V63.2321C39.4999 63.9658 39.4745 64.5554 39.4513 64.9562C39.4572 65.1585 39.4425 65.3608 39.4073 65.5606Z" fill="#CCDCFF"/>
<path d="M38.6547 19.7373C39.4546 19.0043 39.4546 17.816 38.6547 17.083C37.8547 16.3501 36.5577 16.3501 35.7578 17.083C34.9578 17.816 34.9578 19.0043 35.7578 19.7373C36.5577 20.4702 37.8547 20.4702 38.6547 19.7373Z" fill="#CCDCFF"/>
<path d="M33.9335 36.636C34.0307 36.6466 33.9821 37.0602 34.2691 37.6264C34.4317 37.9514 34.6685 38.2407 34.9635 38.4747C35.3093 38.7535 35.7397 38.9288 36.1972 38.9773C36.6571 39.0045 37.1153 38.904 37.5119 38.6889C37.8475 38.5101 38.1378 38.2679 38.3636 37.9785C38.7571 37.4758 38.7918 37.0538 38.889 37.0602C38.9284 37.0602 38.9677 37.1662 38.9677 37.3656C38.9589 37.6496 38.8798 37.9281 38.7363 38.1799C38.5206 38.5606 38.2018 38.8841 37.8104 39.1194C37.3266 39.4318 36.7372 39.5763 36.1477 39.5269C35.5583 39.4776 35.0072 39.2376 34.5931 38.8501C34.2552 38.5539 34.0064 38.1829 33.871 37.7728C33.7745 37.4991 33.7491 37.2086 33.7969 36.9245C33.8363 36.7272 33.8965 36.6297 33.9335 36.636Z" fill="white"/>
<path d="M53.707 42.1313C53.6838 42.1313 53.95 41.7496 54.2069 41.0815C54.5264 40.2067 54.7285 39.2994 54.8087 38.3797C54.9014 37.4633 54.9246 36.5421 54.8782 35.6228C54.862 35.2686 54.8434 34.9865 54.8249 34.7745C54.8093 34.6719 54.8054 34.5681 54.8134 34.4648C54.843 34.5648 54.8624 34.667 54.8712 34.7702C54.9036 34.9675 54.936 35.2538 54.9638 35.6185C55.0364 36.5453 55.0248 37.4759 54.9291 38.4009C54.8476 39.3292 54.632 40.2434 54.2879 41.1197C54.179 41.384 54.0474 41.64 53.8945 41.8853C53.8398 41.9721 53.777 42.0544 53.707 42.1313Z" fill="#263238"/>
<path d="M19.3121 34.2715C19.299 34.3745 19.2749 34.476 19.2403 34.5748C19.2102 34.6702 19.1778 34.7868 19.1477 34.9268C19.1177 35.0668 19.0714 35.2195 19.0436 35.3955C18.9624 35.8042 18.9083 36.2171 18.8816 36.6319C18.8504 37.1393 18.8582 37.6481 18.9047 38.1546C18.9564 38.6601 19.0461 39.1618 19.1732 39.656C19.2795 40.0603 19.4124 40.4584 19.5713 40.8479C19.6338 41.0154 19.7056 41.1618 19.7634 41.2932C19.8213 41.4247 19.8768 41.535 19.9231 41.6241C19.9759 41.7156 20.0193 41.8115 20.0527 41.9104C19.9869 41.8263 19.9295 41.7368 19.8815 41.6432C19.816 41.5372 19.7565 41.4282 19.7032 41.3166C19.6384 41.1893 19.5597 41.043 19.4926 40.8755C19.3208 40.4869 19.1785 40.088 19.0667 39.6815C18.9313 39.1825 18.8369 38.675 18.7843 38.163C18.7372 37.6516 18.7325 37.1376 18.7705 36.6255C18.8027 36.2071 18.8662 35.7911 18.9603 35.3806C18.995 35.2046 19.0436 35.0498 19.0829 34.9119C19.1223 34.7741 19.1593 34.6575 19.194 34.562C19.2247 34.4624 19.2642 34.3652 19.3121 34.2715Z" fill="#263238"/>
<path d="M20.3628 53.8867L20.4507 53.91L20.71 53.9906L21.696 54.3087L22.4089 54.542C22.6704 54.6226 22.9598 54.699 23.2676 54.7859C23.8856 54.9534 24.5823 55.1719 25.3739 55.3415L26.6076 55.6321C27.0381 55.7318 27.4918 55.806 27.9593 55.8993C28.8852 56.0944 29.9013 56.228 30.9683 56.3849C33.2758 56.675 35.6015 56.8273 37.9306 56.8409C40.2598 56.8284 42.5855 56.6761 44.8929 56.3849C45.953 56.228 46.9622 56.0965 47.9019 55.8993C48.3648 55.8081 48.8278 55.7339 49.2536 55.6342L50.4896 55.3437C51.2789 55.174 51.9756 54.9556 52.5936 54.788C52.9015 54.7011 53.1908 54.6247 53.4523 54.5441L54.1652 54.3109L55.1512 53.9928L55.4105 53.9122C55.4396 53.9016 55.4699 53.8938 55.5008 53.8888L55.4151 53.9228L55.1605 54.014L54.1814 54.3512L53.4523 54.6014C53.1931 54.6841 52.9038 54.7626 52.5959 54.8538C51.9779 55.0277 51.2835 55.2504 50.492 55.4264L49.256 55.7233C48.8278 55.8251 48.3718 55.9014 47.9042 55.9968C46.9784 56.1962 45.96 56.3319 44.8952 56.4931C42.583 56.7904 40.2516 56.9455 37.9167 56.9575C35.5826 56.944 33.2521 56.7881 30.9405 56.491C29.8781 56.3319 28.8574 56.1941 27.9315 55.9947C27.4686 55.8993 27.0057 55.823 26.5798 55.7212L25.3438 55.4243C24.5522 55.2482 23.8578 55.0256 23.2398 54.8517C22.932 54.7605 22.645 54.682 22.3834 54.5993L21.6729 54.3554L20.6938 54.0182L20.4392 53.927C20.4124 53.9158 20.3868 53.9023 20.3628 53.8867Z" fill="#263238"/>
<g opacity="0.3">
<path d="M20.4417 53.9097C20.4417 53.9097 22.453 50.0924 37.9886 49.9249C53.5242 49.7573 55.5356 53.9097 55.5356 53.9097C55.5356 53.9097 39.8565 60.9909 20.4417 53.9097Z" fill="black"/>
</g>
<path d="M34.6 23.9177C34.5823 23.9192 34.5645 23.9192 34.5467 23.9177L34.3917 23.9325C34.2528 23.9452 34.0491 23.9495 33.7876 23.977C33.0496 24.0427 32.3173 24.1539 31.5956 24.31C27.8633 25.0932 24.5712 27.0976 22.3372 29.9469C21.258 31.3162 20.4408 32.8437 19.9208 34.4641C19.8398 34.6931 19.7958 34.8755 19.7564 34.9964L19.7125 35.1364C19.7083 35.1525 19.7021 35.1682 19.694 35.183C19.6909 35.1669 19.6909 35.1504 19.694 35.1342C19.694 35.0961 19.7125 35.0494 19.7264 34.9922C19.7588 34.8692 19.7935 34.6847 19.8675 34.4514C20.0607 33.7925 20.3083 33.1481 20.6082 32.5236C21.5976 30.4485 23.1037 28.6145 25.006 27.1688C26.9163 25.7339 29.1667 24.7287 31.5771 24.2337C32.303 24.0825 33.0404 23.9826 33.7829 23.9346C34.0468 23.9134 34.2458 23.9155 34.3894 23.9092H34.5467C34.5838 23.9134 34.6 23.9155 34.6 23.9177Z" fill="white"/>
<path d="M20.0714 40.2437C19.9786 40.1124 19.9069 39.9696 19.8584 39.8196C19.5839 39.1109 19.4559 38.3615 19.4811 37.6098C19.4745 37.4537 19.4949 37.2977 19.5413 37.1475C19.5784 37.1475 19.5274 37.8558 19.6756 38.7126C19.8237 39.5693 20.1061 40.231 20.0714 40.2437Z" fill="white"/>
<path d="M16.1757 39.1477C16.1757 39.1477 16.1225 39.1138 16.0507 39.0332C15.9484 38.919 15.8607 38.7945 15.7892 38.6621C15.542 38.2237 15.4474 37.7264 15.5182 37.2372C15.589 36.7481 15.8217 36.2906 16.185 35.9263C16.2914 35.8148 16.4118 35.7151 16.5437 35.6294C16.5891 35.5945 16.6408 35.5672 16.6965 35.5488C16.7104 35.5658 16.5021 35.6952 16.2498 35.973C15.9187 36.3363 15.7068 36.7782 15.6388 37.2475C15.5708 37.7167 15.6494 38.194 15.8656 38.6239C16.0276 38.9611 16.1919 39.135 16.1757 39.1477Z" fill="white"/>
<path d="M37.338 17.1016C37.1573 17.0834 36.9753 17.0799 36.794 17.091C36.5781 17.1084 36.3695 17.1708 36.184 17.2735C35.9986 17.3762 35.8413 17.5165 35.7242 17.6836C35.6071 17.8507 35.5333 18.0401 35.5085 18.2374C35.4837 18.4346 35.5086 18.6344 35.5812 18.8215C35.6437 18.9767 35.7211 19.1264 35.8126 19.269C35.8126 19.269 35.7663 19.2436 35.7015 19.1757C35.6126 19.0775 35.5422 18.9664 35.4932 18.847C35.4049 18.6489 35.37 18.4343 35.3914 18.2213C35.4127 18.0083 35.4898 17.8031 35.6161 17.6232C35.7423 17.4432 35.914 17.2938 36.1166 17.1875C36.3193 17.0812 36.5468 17.0212 36.7801 17.0125C36.9187 17.0037 37.0579 17.0159 37.1921 17.0486C37.2963 17.0634 37.338 17.0953 37.338 17.1016Z" fill="white"/>
<path d="M57.5123 36.5742C57.4868 36.5997 57.128 36.2837 56.5864 36.0461C56.0448 35.8086 55.5518 35.7386 55.5564 35.7047C55.9338 35.6961 56.3068 35.7795 56.6374 35.9465C56.9853 36.0798 57.2875 36.2967 57.5123 36.5742Z" fill="white"/>
<path d="M25.7649 73.7019C25.7543 73.6892 25.745 73.6757 25.7371 73.6616L25.6607 73.5364C25.5913 73.4156 25.4987 73.2544 25.3784 73.0487C25.3182 72.9426 25.2534 72.8239 25.1793 72.6966L24.9617 72.2725C24.8043 71.965 24.6284 71.615 24.4548 71.2121C24.3669 71.0149 24.2743 70.807 24.1771 70.5929C24.0799 70.3787 23.9965 70.1454 23.9016 69.91C23.7026 69.4413 23.5336 68.926 23.3369 68.3915C22.9735 67.3099 22.617 66.1117 22.3046 64.8393C21.9921 63.5668 21.7653 62.3389 21.5801 61.2213C21.3949 60.1037 21.2746 59.1006 21.2005 58.2396C21.1565 57.8154 21.1288 57.4294 21.1056 57.0901C21.0825 56.7508 21.0616 56.4539 21.0547 56.2206C21.0477 55.9873 21.0408 55.8071 21.0339 55.6713V55.5292C21.0314 55.5131 21.0314 55.4966 21.0339 55.4805C21.0365 55.4966 21.0365 55.5131 21.0339 55.5292L21.0477 55.6713C21.0477 55.8049 21.0732 55.9894 21.0894 56.2185C21.1056 56.4475 21.1288 56.7487 21.1612 57.0859C21.1936 57.4231 21.2237 57.809 21.2746 58.2332C21.3579 59.0815 21.506 60.091 21.6796 61.2022C21.8532 62.3135 22.1055 63.535 22.411 64.8075C22.7166 66.0799 23.0753 67.276 23.4295 68.3555C23.6262 68.8899 23.7905 69.4031 23.985 69.8718C24.0776 70.1093 24.1655 70.3362 24.2535 70.5547L24.522 71.1782C24.6886 71.5748 24.8599 71.9268 25.0127 72.2385L25.221 72.6627C25.2881 72.7921 25.3529 72.9108 25.4108 73.019L25.67 73.5152L25.7348 73.6446C25.7488 73.6617 25.7591 73.6811 25.7649 73.7019Z" fill="white"/>
<path d="M16.7079 56.4115C16.1432 56.4311 15.5777 56.4127 15.016 56.3564C14.4516 56.3383 13.8893 56.2837 13.3333 56.1931C13.898 56.1735 14.4635 56.192 15.0252 56.2482C15.5896 56.2662 16.1519 56.3208 16.7079 56.4115Z" fill="white"/>
<path d="M8.00064 51.8842C7.67237 51.4461 7.3777 50.9876 7.11878 50.5121C6.82533 50.054 6.56701 49.5778 6.3457 49.0869C6.67298 49.5259 6.96686 49.9851 7.22525 50.4612C7.5202 50.9181 7.77932 51.3936 8.00064 51.8842Z" fill="white"/>
<path d="M33.9819 80.3892C33.8908 80.3877 33.8001 80.3777 33.7111 80.3595C33.4662 80.3196 33.2243 80.2657 32.9867 80.1984C32.6337 80.0999 32.2887 79.9787 31.9543 79.8357C31.547 79.6558 31.1555 79.4473 30.7832 79.2122C30.415 78.9712 30.0683 78.7039 29.7462 78.4127C29.4854 78.1733 29.244 77.9167 29.0241 77.645C28.8734 77.4637 28.7365 77.2731 28.6144 77.0745C28.5644 77.0048 28.5232 76.9301 28.4917 76.8518C28.5102 76.8412 28.7046 77.1487 29.0912 77.5983C29.3184 77.8597 29.5635 78.1076 29.8249 78.3406C30.4656 78.9109 31.2007 79.3847 32.0029 79.7445C32.3307 79.8896 32.6677 80.0163 33.0121 80.1241C33.6047 80.3065 33.9866 80.368 33.9819 80.3892Z" fill="white"/>
<path d="M37.5325 70.5784C37.4789 70.5869 37.4248 70.5919 37.3704 70.5932C37.2165 70.6052 37.062 70.6094 36.9075 70.6059C36.332 70.5943 35.7609 70.5094 35.2109 70.3536C34.8309 70.2451 34.4609 70.1089 34.1045 69.9464C33.6959 69.7538 33.3084 69.5259 32.9472 69.2656C32.1106 68.6767 31.4511 67.9026 31.0308 67.0159C30.6106 66.1293 30.4433 65.1592 30.5447 64.1971C30.5824 63.7795 30.6638 63.3661 30.7877 62.9628C30.8986 62.6129 31.0419 62.2724 31.2159 61.9448C31.467 61.4698 31.7895 61.0293 32.1742 60.6363C32.2773 60.5289 32.387 60.427 32.5028 60.331C32.5411 60.2958 32.5821 60.2632 32.6255 60.2334C32.6255 60.2334 32.4727 60.384 32.2089 60.6575C31.8385 61.0566 31.5272 61.4987 31.283 61.9724C30.919 62.6705 30.7023 63.4253 30.6442 64.1971C30.5504 65.1422 30.7174 66.0938 31.13 66.9643C31.5425 67.8348 32.1873 68.5962 33.0051 69.1787C33.3556 69.4372 33.7323 69.6644 34.13 69.8573C34.4785 70.0258 34.8416 70.1676 35.2155 70.2815C35.7574 70.4425 36.3201 70.5373 36.889 70.5635C37.3079 70.5784 37.5325 70.5656 37.5325 70.5784Z" fill="white"/>
<path d="M9.50959 53.8773C9.50959 53.8942 9.33136 53.8158 9.04667 53.7543C8.66571 53.6779 8.27081 53.6815 7.8916 53.7649C7.51238 53.8482 7.15869 54.0092 6.85705 54.2357C6.62559 54.4117 6.51449 54.5517 6.49829 54.5411C6.5618 54.4007 6.66006 54.2758 6.7853 54.1763C7.08571 53.9237 7.45149 53.7456 7.84802 53.6588C8.24455 53.5719 8.65872 53.5793 9.0513 53.68C9.21859 53.7126 9.37543 53.7801 9.50959 53.8773Z" fill="white"/>
<path d="M43.6895 32.7915C43.6895 32.8212 40.8472 32.8466 37.3428 32.8466C33.8385 32.8466 30.9939 32.8212 30.9939 32.7915C30.9939 32.7618 33.8362 32.7363 37.3428 32.7363C40.8495 32.7363 43.6895 32.7575 43.6895 32.7915Z" fill="white"/>
<path d="M32.8568 46.0519C32.8221 46.0609 32.7863 46.0659 32.7503 46.0668L32.4402 46.0922C32.3059 46.1028 32.1416 46.1113 31.9495 46.1155C31.7574 46.1198 31.5398 46.1283 31.2991 46.1155C30.8153 46.1155 30.2413 46.0837 29.6048 46.0222C28.916 45.9488 28.2321 45.8405 27.5564 45.6978C26.8822 45.5496 26.2176 45.3669 25.5658 45.1506C25.0347 44.9724 24.514 44.7693 24.0058 44.5419C23.7743 44.4486 23.5961 44.3511 23.4271 44.2684C23.2581 44.1857 23.1146 44.1114 22.9989 44.0563L22.7327 43.9078C22.7012 43.8918 22.6717 43.8726 22.6448 43.8506C22.6448 43.8506 22.6818 43.8506 22.7443 43.8888L23.0221 44.0181C23.1401 44.0775 23.2859 44.1475 23.4572 44.2302C23.6285 44.3129 23.8229 44.3977 24.0428 44.4868C24.4779 44.6734 25.008 44.8728 25.6051 45.07C26.903 45.4964 28.2495 45.7866 29.6187 45.9353C30.2482 46.0031 30.8199 46.0413 31.2991 46.0519C31.5305 46.0646 31.762 46.0519 31.9495 46.0519C32.137 46.0519 32.3036 46.0519 32.4379 46.0519H32.748C32.784 46.0464 32.8208 46.0464 32.8568 46.0519Z" fill="white"/>
<path d="M51.3346 55.6084C51.3175 55.6187 51.2987 55.6266 51.279 55.6317L51.1124 55.689L50.4689 55.9011C50.1889 55.9944 49.8463 56.1025 49.4412 56.2107C49.0362 56.3188 48.5802 56.4588 48.064 56.5776L47.2586 56.7727C46.9785 56.8384 46.6822 56.8936 46.379 56.9593C45.7726 57.0929 45.1152 57.199 44.4255 57.3198C41.4212 57.7993 38.3679 57.9707 35.3222 57.8309C34.6278 57.7906 33.9542 57.7588 33.3339 57.6931C33.0238 57.6634 32.7229 57.6422 32.4359 57.6061L31.6096 57.5022C31.0818 57.445 30.6096 57.358 30.1953 57.2901C29.781 57.2223 29.4223 57.1587 29.1329 57.0972L28.4663 56.9614L28.2927 56.9233C28.2726 56.9202 28.2531 56.9145 28.2349 56.9063C28.2557 56.9047 28.2766 56.9047 28.2974 56.9063L28.471 56.9339L29.1422 57.0505C29.4338 57.1035 29.7903 57.165 30.2069 57.2223C30.6235 57.2795 31.0934 57.3622 31.6211 57.4153L32.4451 57.5107C32.7321 57.5446 33.033 57.5637 33.3432 57.5913C33.9612 57.6528 34.6278 57.6804 35.3268 57.7185C36.7271 57.7716 38.2663 57.7737 39.8819 57.6867C41.4975 57.5998 43.0228 57.4153 44.4047 57.2074C45.099 57.0908 45.7518 56.9954 46.3582 56.8596C46.6614 56.796 46.9577 56.743 47.2377 56.6794L48.0432 56.4906C48.5594 56.3782 49.0154 56.2467 49.4204 56.1407C49.8255 56.0347 50.1727 55.9286 50.4527 55.8502L51.1031 55.6593L51.2744 55.6126L51.3346 55.6084Z" fill="white"/>
</svg>
