<svg width="110" height="51" viewBox="0 0 110 51" fill="none" xmlns="http://www.w3.org/2000/svg">
<g clip-path="url(#clip0_2101_2941)">
<path d="M7.16296 17.9526L9.19761 9.23689C9.19761 9.23689 10.3478 4.02214 16.7155 3.501C23.0832 2.97986 44.3082 3.501 44.3082 3.501L44.7504 0L54.8325 7.52314L41.8313 15.7912L42.3628 12.5141H17.4235L7.16495 17.951L7.16296 17.9526Z" fill="#155DFC"/>
<path d="M5.83623 23.9111L15.5653 17.9531H36.701L37.2325 15.3457L44.8377 21.9752L34.5791 29.1994L34.7556 26.6672H16.4497L3.81348 33.9681L5.83623 23.9111Z" fill="url(#paint0_linear_2101_2941)"/>
<path d="M3.36134 35.979L15.9202 28.6045C15.9202 28.6045 13.5326 40.4488 13.3561 40.5974C13.1796 40.7461 13.5326 42.1625 10.8792 43.6508L0 50.5776L3.36134 35.9773V35.979Z" fill="#155DFC"/>
<path d="M24.1818 40.4803V38.6813L28.6021 37.5773V38.7665C28.6021 40.4469 28.6239 41.4808 28.6695 41.8667C29.084 44.9434 31.2971 46.4784 35.3089 46.4684C37.1254 46.4684 38.581 46.0959 39.6796 45.3493C40.8457 44.5559 41.4287 43.4902 41.4287 42.1489V34.2617L45.9164 33.1008V36.5834C46.5114 35.7716 47.0587 35.1252 47.5644 34.6442C50.0413 32.2473 52.8989 31.048 56.1373 31.048C59.3757 31.048 61.9755 32.1804 63.5342 34.4454C64.6328 36.0506 65.1861 38.0082 65.198 40.3216V40.9864H68.0894V44.3838H45.6983C45.3949 45.2708 45.0538 45.964 44.673 46.4651C43.9115 47.4656 42.8565 48.2673 41.512 48.872C39.8303 49.6086 37.7977 49.9761 35.41 49.9761C32.5643 49.9761 30.2659 49.5318 28.5188 48.6448C27.2298 47.9834 26.266 47.1148 25.6274 46.0391C24.7093 44.5091 24.2254 42.6551 24.1818 40.4753V40.4803ZM47.3284 40.9897H60.742V40.183C60.742 38.653 60.4009 37.3885 59.7167 36.388C59.3241 35.8117 58.7986 35.3541 58.1362 35.015C57.5195 34.7026 56.8314 34.5523 56.0679 34.5623C54.6896 34.5623 53.3114 34.9498 51.9331 35.7232C50.6223 36.4782 49.5058 37.4319 48.5876 38.5828C48.0939 39.2242 47.6734 40.0276 47.3264 40.9897H47.3284ZM52.4229 26.321C52.4229 25.7831 52.6629 25.3104 53.1448 24.9045C53.6049 24.517 54.1542 24.3232 54.7927 24.3232C55.4313 24.3232 55.9588 24.517 56.4407 24.9045C56.9226 25.3104 57.1625 25.7831 57.1625 26.321C57.1625 26.8588 56.9206 27.3215 56.4407 27.709C55.9588 28.1149 55.4095 28.3187 54.7927 28.3187C54.176 28.3187 53.6267 28.1249 53.1448 27.7374C52.6629 27.3315 52.4229 26.8588 52.4229 26.321Z" fill="#155DFC"/>
<path d="M65.7692 49.0037C65.7692 48.4659 66.0111 47.9882 66.491 47.5739C66.9511 47.1864 67.5064 46.9927 68.1548 46.9927C68.7716 46.9927 69.3209 47.1864 69.8028 47.5739C70.2847 47.9798 70.5266 48.4559 70.5266 49.0037C70.5266 49.5516 70.2847 50.0043 69.8028 50.3918C69.3209 50.7977 68.7716 51.0014 68.1548 51.0014C67.5381 51.0014 66.9828 50.8077 66.491 50.4202C66.0091 50.0143 65.7692 49.5416 65.7692 49.0037ZM67.2823 44.387V40.9895H70.1399C71.9108 40.9895 72.7953 40.2579 72.7953 38.7947V31.913L77.2334 30.6953V38.9634C77.2334 40.6822 76.5949 42.0268 75.3177 42.9989C74.0743 43.9243 72.3986 44.387 70.2906 44.387H67.2823ZM71.9723 49.0037C71.9723 48.4659 72.2122 47.9882 72.6941 47.5739C73.1542 47.1864 73.7035 46.9927 74.3421 46.9927C74.9806 46.9927 75.5141 47.1864 76.0059 47.5739C76.4878 47.9798 76.7277 48.4559 76.7277 49.0037C76.7277 49.5516 76.4858 50.0043 76.0059 50.3918C75.524 50.7977 74.9687 51.0014 74.3421 51.0014C73.7154 51.0014 73.176 50.8077 72.6941 50.4202C72.2122 50.0143 71.9723 49.5416 71.9723 49.0037Z" fill="#155DFC"/>
<path d="M81.2689 40.268V26.5897L85.7408 25.3721V39.6867C85.7408 40.1678 85.8816 40.5169 86.1612 40.734C86.3853 40.9044 86.7383 40.9896 87.2202 40.9896H90.3971V44.387H86.2623C84.5807 44.387 83.3036 43.9812 82.429 43.1694C81.6556 42.4328 81.2689 41.4656 81.2689 40.2664V40.268Z" fill="#155DFC"/>
<path d="M89.5404 44.3871V40.9897H98.6349C99.4856 40.9897 100.13 40.806 100.568 40.4368C100.915 40.1445 101.145 39.7203 101.259 39.1624H97.0563C94.8036 39.1624 93.1616 38.6897 92.1303 37.7459C91.3232 37.0093 90.9207 36.0422 90.9207 34.8429C90.9207 33.049 91.7615 31.7478 93.4412 30.9344C94.6628 30.3581 96.2929 30.0658 98.3335 30.0558C101.225 30.0558 103.287 30.6086 104.519 31.7127C105.326 32.4493 105.728 33.3697 105.728 34.4738V38.9619C105.728 40.6807 105.084 42.0253 103.795 42.9974C102.551 43.9228 100.876 44.3855 98.7677 44.3855H89.5385L89.5404 44.3871ZM95.222 34.9014C95.222 35.6179 95.6146 36.114 96.398 36.388C96.8342 36.5199 97.3498 36.5867 97.9448 36.5867H101.29V35.78C101.29 35.025 101.235 34.5289 101.122 34.2934C100.943 33.8691 100.606 33.5718 100.112 33.4014C99.676 33.231 99.0811 33.1425 98.3295 33.1325C97.4331 33.1325 96.7212 33.2594 96.1937 33.515C95.5432 33.8173 95.218 34.28 95.218 34.903L95.222 34.9014ZM95.809 25.4574C95.809 24.9195 96.0489 24.4435 96.5328 24.0276C96.9929 23.64 97.5422 23.4463 98.1808 23.4463C98.8193 23.4463 99.3508 23.64 99.8446 24.0276C100.326 24.4335 100.568 24.9095 100.568 25.4574C100.568 26.0052 100.326 26.4579 99.8446 26.8454C99.3627 27.2513 98.8074 27.4551 98.1808 27.4551C97.5541 27.4551 97.0147 27.2613 96.5328 26.8738C96.0509 26.4679 95.809 25.9952 95.809 25.4574Z" fill="#155DFC"/>
<path d="M56.1908 19.3795H56.1551C55.1913 20.8962 53.5354 21.571 51.5325 21.571C49.5296 21.571 47.838 20.8812 47.838 18.9803C47.838 17.4637 48.421 16.0072 48.9485 14.7043C49.8033 12.6197 51.6971 11.6543 54.2255 11.6543C56.518 11.6543 57.8288 12.2222 57.9022 14.0462H57.9379L58.5745 11.9767H63.8891L60.8312 21.2503H55.5165L56.1908 19.3795ZM53.4422 16.9876C53.351 17.2332 53.2776 17.4937 53.2776 17.7226C53.2776 18.4575 53.8964 18.658 54.6598 18.658C55.9885 18.658 56.6251 17.9832 56.9523 17.0027C57.0257 16.712 57.1169 16.4665 57.1169 16.1291C57.1169 15.4693 56.4248 15.2705 55.7882 15.2705C54.3148 15.2705 53.8587 15.8685 53.4402 16.9876H53.4422Z" fill="#072158"/>
<path d="M63.7424 21.2034H66.5624V21.1734C65.67 20.6222 65.5609 20.1311 65.4518 19.2725L64.4682 11.9766H69.5826L69.6917 17.6323H69.7274L72.9122 11.9766H78.9349L71.8374 21.4339C70.7447 22.8905 69.654 23.5653 67.07 23.5653H62.9928L63.7384 21.2051L63.7424 21.2034Z" fill="#072158"/>
<path d="M83.4504 17.5549C83.377 17.7536 83.3592 17.9073 83.3592 18.0459C83.3592 19.0414 84.8326 19.0732 85.9987 19.0732C87.7101 19.0732 89.3838 18.7508 91.004 18.4602L89.5841 20.8972C87.6188 21.3265 85.5624 21.572 83.5238 21.572C81.031 21.572 77.9196 21.3732 77.9196 18.6589C77.9196 16.6362 78.9924 14.3679 80.0117 13.3406C81.6319 11.7154 83.5971 11.6553 85.963 11.6553C90.8394 11.6553 92.7134 12.3752 92.7134 14.874C92.7134 15.4102 92.1304 16.9435 91.8032 17.5565H83.4504V17.5549ZM87.9818 15.6089C88.0373 15.3333 88.0908 15.1028 88.0908 14.874C88.0908 14.1841 87.1806 14.0154 86.7086 14.0154C85.4355 14.0154 84.7255 14.3211 84.1782 15.6089H87.9818Z" fill="#072158"/>
<path d="M106.234 21.2499H100.902L101.576 19.3791H101.54C100.576 20.8958 98.9204 21.5706 96.9175 21.5706C94.9146 21.5706 93.223 20.8807 93.223 18.9799C93.223 17.4633 93.8061 16.0067 94.3336 14.7039C95.1883 12.6193 97.0821 11.6539 99.6106 11.6539C101.903 11.6539 103.214 12.2218 103.287 14.0458H103.323L104.634 9.7998H110.002L106.234 21.2499ZM98.8272 16.9872C98.736 17.2327 98.6626 17.4933 98.6626 17.7222C98.6626 18.4571 99.2814 18.6575 100.045 18.6575C101.374 18.6575 102.01 17.9827 102.337 17.0022C102.411 16.7116 102.502 16.4661 102.502 16.1287C102.502 15.4689 101.81 15.2701 101.173 15.2701C99.6998 15.2701 99.2437 15.8681 98.8253 16.9872H98.8272Z" fill="#072158"/>
</g>
<defs>
<linearGradient id="paint0_linear_2101_2941" x1="3.81348" y1="24.6561" x2="44.8377" y2="24.6561" gradientUnits="userSpaceOnUse">
<stop stop-color="#155DFC"/>
<stop offset="1" stop-color="#072158"/>
</linearGradient>
<clipPath id="clip0_2101_2941">
<rect width="110" height="51" fill="white"/>
</clipPath>
</defs>
</svg>
