<svg width="55" height="51" viewBox="0 0 55 51" fill="none" xmlns="http://www.w3.org/2000/svg">
<path d="M7.16296 17.9526L9.19761 9.23689C9.19761 9.23689 10.3478 4.02214 16.7155 3.501C23.0832 2.97986 44.3082 3.501 44.3082 3.501L44.7504 0L54.8325 7.52314L41.8313 15.7912L42.3628 12.5141H17.4235L7.16495 17.951L7.16296 17.9526Z" fill="#155DFC"/>
<path d="M5.83623 23.9111L15.5653 17.9531H36.701L37.2325 15.3457L44.8377 21.9752L34.5791 29.1994L34.7556 26.6672H16.4497L3.81348 33.9681L5.83623 23.9111Z" fill="url(#paint0_linear_2145_6303)"/>
<path d="M3.36134 35.979L15.9202 28.6045C15.9202 28.6045 13.5326 40.4488 13.3561 40.5974C13.1796 40.7461 13.5326 42.1625 10.8792 43.6508L0 50.5776L3.36134 35.9773V35.979Z" fill="#155DFC"/>
<defs>
<linearGradient id="paint0_linear_2145_6303" x1="3.81348" y1="24.6561" x2="44.8377" y2="24.6561" gradientUnits="userSpaceOnUse">
<stop stop-color="#155DFC"/>
<stop offset="1" stop-color="#072158"/>
</linearGradient>
</defs>
</svg>
