<svg width="148" height="48" viewBox="0 0 148 48" fill="none" xmlns="http://www.w3.org/2000/svg">
<g clip-path="url(#clip0_2145_6287)">
<path d="M30.5117 16.8966L32.3614 8.69354C32.3614 8.69354 33.407 3.78554 39.1958 3.29506C44.9847 2.80457 64.2801 3.29506 64.2801 3.29506L64.6822 0L73.8476 7.0806L62.0284 14.8623L62.5116 11.7779H39.8395L30.5135 16.895L30.5117 16.8966Z" fill="white"/>
<path d="M29.3057 22.504L38.1502 16.8964H57.3646L57.8477 14.4424L64.7615 20.6819L55.4356 27.4811L55.596 25.0979H38.9543L27.4668 31.9694L29.3057 22.504Z" fill="url(#paint0_linear_2145_6287)"/>
<path d="M27.0558 33.8626L38.4729 26.9219C38.4729 26.9219 36.3024 38.0694 36.1419 38.2093C35.9815 38.3492 36.3024 39.6824 33.8902 41.0831L24 47.6024L27.0558 33.861V33.8626Z" fill="white"/>
<path d="M45.9834 38.0992V36.4061L50.0019 35.367V36.4863C50.0019 38.0678 50.0217 39.0409 50.0632 39.404C50.4399 42.2998 52.4519 43.7445 56.099 43.7351C57.7503 43.7351 59.0736 43.3845 60.0723 42.6818C61.1324 41.9351 61.6624 40.9321 61.6624 39.6697V32.2464L65.7422 31.1538V34.4316C66.283 33.6675 66.7806 33.0592 67.2403 32.6064C69.492 30.3505 72.0899 29.2217 75.0339 29.2217C77.9778 29.2217 80.3413 30.2876 81.7583 32.4193C82.7571 33.9301 83.2601 35.7725 83.2709 37.9499V38.5755H85.8994V41.7731H65.5439C65.268 42.6079 64.958 43.2603 64.6118 43.7319C63.9195 44.6736 62.9604 45.4282 61.7381 45.9973C60.2094 46.6906 58.3615 47.0364 56.1909 47.0364C53.6039 47.0364 51.5144 46.6183 49.9261 45.7835C48.7543 45.1609 47.8781 44.3435 47.2976 43.3311C46.4629 41.891 46.0231 40.146 45.9834 38.0945V38.0992ZM67.0258 38.5787H79.22V37.8194C79.22 36.3794 78.9099 35.1893 78.2879 34.2476C77.931 33.7053 77.4532 33.2745 76.8511 32.9554C76.2904 32.6614 75.6648 32.5199 74.9708 32.5294C73.7178 32.5294 72.4649 32.8941 71.2119 33.622C70.0202 34.3325 69.0053 35.2302 68.1706 36.3133C67.7217 36.917 67.3395 37.6732 67.024 38.5787H67.0258ZM71.6572 24.7728C71.6572 24.2666 71.8753 23.8217 72.3134 23.4397C72.7317 23.0749 73.231 22.8926 73.8116 22.8926C74.3921 22.8926 74.8716 23.0749 75.3097 23.4397C75.7478 23.8217 75.9659 24.2666 75.9659 24.7728C75.9659 25.279 75.746 25.7144 75.3097 26.0792C74.8716 26.4612 74.3722 26.653 73.8116 26.653C73.2509 26.653 72.7515 26.4706 72.3134 26.1059C71.8753 25.7239 71.6572 25.279 71.6572 24.7728Z" fill="white"/>
<path d="M83.79 46.1221C83.79 45.6159 84.01 45.1663 84.4463 44.7764C84.8645 44.4117 85.3693 44.2293 85.9588 44.2293C86.5195 44.2293 87.0189 44.4117 87.457 44.7764C87.895 45.1584 88.115 45.6064 88.115 46.1221C88.115 46.6377 87.895 47.0638 87.457 47.4285C87.0189 47.8105 86.5195 48.0023 85.9588 48.0023C85.3981 48.0023 84.8934 47.8199 84.4463 47.4552C84.0082 47.0732 83.79 46.6283 83.79 46.1221ZM85.1656 41.7769V38.5793H87.7634C89.3733 38.5793 90.1774 37.8907 90.1774 36.5136V30.0367L94.2121 28.8906V36.6724C94.2121 38.29 93.6316 39.5555 92.4706 40.4705C91.3402 41.3414 89.8168 41.7769 87.9004 41.7769H85.1656ZM89.4292 46.1221C89.4292 45.6159 89.6474 45.1663 90.0854 44.7764C90.5037 44.4117 91.0031 44.2293 91.5836 44.2293C92.1641 44.2293 92.649 44.4117 93.0961 44.7764C93.5342 45.1584 93.7524 45.6064 93.7524 46.1221C93.7524 46.6377 93.5324 47.0638 93.0961 47.4285C92.6581 47.8105 92.1533 48.0023 91.5836 48.0023C91.0139 48.0023 90.5235 47.8199 90.0854 47.4552C89.6474 47.0732 89.4292 46.6283 89.4292 46.1221Z" fill="white"/>
<path d="M97.8809 37.8996V25.0259L101.946 23.8799V37.3525C101.946 37.8053 102.074 38.1338 102.328 38.3382C102.532 38.4986 102.853 38.5787 103.291 38.5787H106.179V41.7763H102.42C100.892 41.7763 99.7305 41.3943 98.9355 40.6303C98.2324 39.937 97.8809 39.0268 97.8809 37.898V37.8996Z" fill="white"/>
<path d="M105.4 41.7764V38.5788H113.668C114.441 38.5788 115.027 38.4059 115.426 38.0585C115.741 37.7834 115.95 37.3841 116.053 36.859H112.233C110.185 36.859 108.692 36.4141 107.755 35.5259C107.021 34.8326 106.655 33.9224 106.655 32.7936C106.655 31.1052 107.42 29.8806 108.946 29.115C110.057 28.5726 111.539 28.2975 113.394 28.2881C116.023 28.2881 117.897 28.8084 119.017 29.8476C119.751 30.5408 120.117 31.407 120.117 32.4462V36.6703C120.117 38.288 119.531 39.5535 118.359 40.4685C117.229 41.3394 115.705 41.7749 113.789 41.7749H105.399L105.4 41.7764ZM110.565 32.8486C110.565 33.5231 110.922 33.99 111.634 34.2478C112.031 34.372 112.5 34.4349 113.041 34.4349H116.082V33.6755C116.082 32.965 116.032 32.4981 115.929 32.2764C115.767 31.8771 115.46 31.5973 115.011 31.4369C114.615 31.2766 114.074 31.1932 113.39 31.1838C112.576 31.1838 111.928 31.3033 111.449 31.5438C110.857 31.8284 110.562 32.2638 110.562 32.8502L110.565 32.8486ZM111.099 23.9602C111.099 23.4539 111.317 23.0059 111.757 22.6145C112.175 22.2497 112.675 22.0674 113.255 22.0674C113.836 22.0674 114.319 22.2497 114.768 22.6145C115.206 22.9965 115.426 23.4445 115.426 23.9602C115.426 24.4758 115.206 24.9018 114.768 25.2665C114.33 25.6486 113.825 25.8404 113.255 25.8404C112.686 25.8404 112.195 25.658 111.757 25.2933C111.319 24.9113 111.099 24.4664 111.099 23.9602Z" fill="white"/>
<path d="M75.0826 18.2396H75.0501C74.174 19.667 72.6686 20.3021 70.8478 20.3021C69.0269 20.3021 67.4891 19.6529 67.4891 17.8638C67.4891 16.4364 68.0192 15.0656 68.4987 13.8393C69.2757 11.8774 70.9974 10.9688 73.296 10.9688C75.38 10.9688 76.5717 11.5033 76.6384 13.22H76.6708L77.2495 11.2722H82.0811L79.3011 20.0003H74.4696L75.0826 18.2396ZM72.5839 15.9884C72.5009 16.2195 72.4342 16.4647 72.4342 16.6801C72.4342 17.3718 72.9967 17.5604 73.6908 17.5604C74.8987 17.5604 75.4774 16.9253 75.7748 16.0025C75.8415 15.729 75.9245 15.4979 75.9245 15.1803C75.9245 14.5594 75.2953 14.3723 74.7166 14.3723C73.3771 14.3723 72.9625 14.9351 72.5821 15.9884H72.5839Z" fill="white"/>
<path d="M81.9477 19.9566H84.5113V19.9283C83.7 19.4095 83.6009 18.9473 83.5017 18.1393L82.6075 11.2725H87.257L87.3561 16.5955H87.3886L90.2839 11.2725H95.759L89.3068 20.1735C88.3134 21.5444 87.3219 22.1795 84.9728 22.1795H81.2662L81.9441 19.9581L81.9477 19.9566Z" fill="white"/>
<path d="M99.864 16.5223C99.7973 16.7094 99.781 16.854 99.781 16.9845C99.781 17.9214 101.121 17.9513 102.181 17.9513C103.736 17.9513 105.258 17.6479 106.731 17.3743L105.44 19.668C103.653 20.072 101.784 20.3031 99.9307 20.3031C97.6645 20.3031 94.8359 20.116 94.8359 17.5614C94.8359 15.6576 95.8113 13.5228 96.7379 12.5559C98.2108 11.0263 99.9974 10.9697 102.148 10.9697C106.581 10.9697 108.285 11.6473 108.285 13.9991C108.285 14.5037 107.755 15.9469 107.457 16.5238H99.864V16.5223ZM103.983 14.6908C104.034 14.4314 104.083 14.2145 104.083 13.9991C104.083 13.3498 103.255 13.1911 102.826 13.1911C101.669 13.1911 101.023 13.4787 100.526 14.6908H103.983Z" fill="white"/>
<path d="M120.576 20.0002H115.729L116.342 18.2395H116.309C115.433 19.6669 113.928 20.302 112.107 20.302C110.286 20.302 108.748 19.6527 108.748 17.8637C108.748 16.4363 109.278 15.0654 109.758 13.8392C110.535 11.8773 112.256 10.9686 114.555 10.9686C116.639 10.9686 117.831 11.5031 117.897 13.2198H117.93L119.122 9.22363H124.002L120.576 20.0002ZM113.843 15.9882C113.76 16.2193 113.693 16.4646 113.693 16.68C113.693 17.3717 114.256 17.5603 114.95 17.5603C116.158 17.5603 116.736 16.9252 117.034 16.0024C117.101 15.7289 117.184 15.4978 117.184 15.1802C117.184 14.5592 116.554 14.3722 115.976 14.3722C114.636 14.3722 114.221 14.935 113.841 15.9882H113.843Z" fill="white"/>
</g>
<defs>
<linearGradient id="paint0_linear_2145_6287" x1="27.4668" y1="23.2051" x2="64.7615" y2="23.2051" gradientUnits="userSpaceOnUse">
<stop stop-color="#FBFBFB"/>
<stop offset="1" stop-color="#007AFF"/>
</linearGradient>
<clipPath id="clip0_2145_6287">
<rect width="100" height="48" fill="white" transform="translate(24)"/>
</clipPath>
</defs>
</svg>
