<svg width="24" height="24" viewBox="0 0 24 24" fill="none" xmlns="http://www.w3.org/2000/svg">
<path d="M18.4345 4.95521H16.4945V3.54521C16.4945 3.28521 16.2645 3.03521 15.9945 3.04521C15.7245 3.05521 15.4945 3.26521 15.4945 3.54521V4.95521H8.49445V3.54521C8.49445 3.28521 8.26445 3.03521 7.99445 3.04521C7.72445 3.05521 7.49445 3.26521 7.49445 3.54521V4.95521H5.56445C4.90141 4.95521 4.26553 5.2186 3.79669 5.68744C3.32785 6.15629 3.06445 6.79217 3.06445 7.45521V18.4552C3.06445 19.1183 3.32785 19.7541 3.79669 20.223C4.26553 20.6918 4.90141 20.9552 5.56445 20.9552H18.4345C19.0975 20.9552 19.7334 20.6918 20.2022 20.223C20.6711 19.7541 20.9345 19.1183 20.9345 18.4552V7.45521C20.9345 6.79217 20.6711 6.15629 20.2022 5.68744C19.7334 5.2186 19.0975 4.95521 18.4345 4.95521ZM19.9345 18.4552C19.9345 19.2852 19.2645 19.9552 18.4345 19.9552H5.56445C4.73445 19.9552 4.06445 19.2852 4.06445 18.4552V10.0352H19.9345V18.4552ZM19.9345 9.03521H4.06445V7.45521C4.06445 6.62521 4.73445 5.95521 5.56445 5.95521H7.49445V6.54521C7.49445 6.80521 7.72445 7.05521 7.99445 7.04521C8.26445 7.03521 8.49445 6.82521 8.49445 6.54521V5.95521H15.4945V6.54521C15.4945 6.80521 15.7245 7.05521 15.9945 7.04521C16.2645 7.03521 16.4945 6.82521 16.4945 6.54521V5.95521H18.4345C19.2645 5.95521 19.9345 6.62521 19.9345 7.45521V9.03521Z" fill="#155DFC"/>
</svg>
