<svg width="32" height="32" viewBox="0 0 32 32" fill="none" xmlns="http://www.w3.org/2000/svg">
<path d="M15.6169 20.1079C15.5003 20.0624 15.3859 19.9836 15.2736 19.8713L11.905 16.504C11.7799 16.3789 11.7147 16.2314 11.7096 16.0617C11.7044 15.892 11.7696 15.7364 11.905 15.595C12.0473 15.4527 12.2003 15.3803 12.364 15.3777C12.5286 15.3751 12.6816 15.445 12.823 15.5873L15.3571 18.1214V7.64287C15.3571 7.46029 15.4184 7.30729 15.541 7.18387C15.6636 7.06044 15.8166 6.99915 16 7.00001C16.1834 7.00087 16.3364 7.06215 16.459 7.18387C16.5816 7.30558 16.6429 7.45858 16.6429 7.64287V18.1214L19.177 15.5873C19.3021 15.4621 19.4509 15.3966 19.6231 15.3906C19.7954 15.3846 19.9523 15.4527 20.0937 15.595C20.2309 15.7364 20.3007 15.8881 20.3033 16.0501C20.3059 16.2121 20.2364 16.3634 20.095 16.504L16.7264 19.8726C16.615 19.984 16.5006 20.0624 16.3831 20.1079C16.2666 20.1533 16.1389 20.176 16 20.176C15.8611 20.176 15.7334 20.1533 15.6169 20.1079ZM9.07771 25C8.48543 25 7.99129 24.802 7.59529 24.406C7.19929 24.01 7.00086 23.5154 7 22.9223V20.4499C7 20.2673 7.06129 20.1147 7.18386 19.9921C7.30643 19.8696 7.45943 19.8079 7.64286 19.807C7.82629 19.8061 7.97929 19.8679 8.10186 19.9921C8.22443 20.1164 8.28571 20.269 8.28571 20.4499V22.9223C8.28571 23.1203 8.368 23.302 8.53257 23.4674C8.69714 23.6329 8.87843 23.7151 9.07643 23.7143H22.9236C23.1207 23.7143 23.302 23.632 23.4674 23.4674C23.6329 23.3029 23.7151 23.1211 23.7143 22.9223V20.4499C23.7143 20.2673 23.7756 20.1147 23.8981 19.9921C24.0207 19.8696 24.1737 19.8079 24.3571 19.807C24.5406 19.8061 24.6936 19.8679 24.8161 19.9921C24.9387 20.1164 25 20.269 25 20.4499V22.9223C25 23.5146 24.802 24.0087 24.406 24.4047C24.01 24.8007 23.5154 24.9991 22.9223 25H9.07771Z" fill="#3D4C5E"/>
</svg>
