<svg width="24" height="24" viewBox="0 0 24 24" fill="none" xmlns="http://www.w3.org/2000/svg">
<path d="M8.69666 19.0843C9.11883 18.9655 9.50412 18.7419 9.81666 18.4343L19.3567 8.89429C19.6834 8.5663 19.8668 8.12222 19.8668 7.65929C19.8668 7.19635 19.6834 6.75227 19.3567 6.42429L18.4167 5.49429C18.0838 5.177 17.6415 5 17.1817 5C16.7218 5 16.2795 5.177 15.9467 5.49429L6.40666 15.0243C6.09902 15.3352 5.87834 15.7214 5.76666 16.1443L5.02666 18.9043C4.99186 19.0304 4.99112 19.1634 5.02449 19.2899C5.05787 19.4164 5.12418 19.5318 5.21666 19.6243C5.35838 19.7632 5.54824 19.842 5.74666 19.8443L8.69666 19.0843ZM9.10666 17.7243C8.92224 17.9119 8.69086 18.0466 8.43666 18.1143L7.46666 18.3743L6.46666 17.3743L6.72666 16.4043C6.7957 16.1506 6.93019 15.9196 7.11666 15.7343L7.49666 15.3643L9.48666 17.3543L9.10666 17.7243ZM10.1967 16.6443L8.20666 14.6543L14.9367 7.92429L16.9267 9.91429L10.1967 16.6443ZM18.6467 8.19429L17.6367 9.20429L15.6467 7.21429L16.6567 6.19429C16.7973 6.05384 16.9879 5.97495 17.1867 5.97495C17.3854 5.97495 17.576 6.05384 17.7167 6.19429L18.6467 7.13429C18.7861 7.27542 18.8644 7.46586 18.8644 7.66429C18.8644 7.86272 18.7861 8.05315 18.6467 8.19429Z" fill="#155DFC"/>
</svg>
