<svg width="32" height="32" viewBox="0 0 32 32" fill="none" xmlns="http://www.w3.org/2000/svg">
<path d="M16 24.9231C20.2471 24.9231 23.9208 22.5323 25.8108 19C23.9208 15.4677 20.2471 13.0769 16 13.0769C11.7529 13.0769 8.07915 15.4677 6.18919 19C8.07915 22.5323 11.7529 24.9231 16 24.9231ZM16 12C20.8417 12 25.0251 14.8538 27 19C25.0251 23.1462 20.8417 26 16 26C11.1583 26 6.9749 23.1462 5 19C6.9749 14.8538 11.1583 12 16 12ZM16 14.1538C18.6544 14.1538 20.778 16.3077 20.778 19C20.778 21.6923 18.6544 23.8462 16 23.8462C13.3456 23.8462 11.222 21.6923 11.222 19C11.222 16.3077 13.3456 14.1538 16 14.1538ZM16 15.2308C15.0144 15.2308 14.0692 15.6279 13.3722 16.3348C12.6753 17.0416 12.2838 18.0003 12.2838 19C12.2838 19.9997 12.6753 20.9584 13.3722 21.6652C14.0692 22.3721 15.0144 22.7692 16 22.7692C16.9856 22.7692 17.9308 22.3721 18.6278 21.6652C19.3247 20.9584 19.7162 19.9997 19.7162 19C19.7162 18.0003 19.3247 17.0416 18.6278 16.3348C17.9308 15.6279 16.9856 15.2308 16 15.2308Z" fill="#3D4C5E"/>
</svg>
