<svg width="24" height="24" viewBox="0 0 24 24" fill="none" xmlns="http://www.w3.org/2000/svg">
<path d="M20.9985 11.9989V11.9944C20.9985 9.33124 19.8391 6.93959 17.998 5.29492L17.989 5.28742C17.9663 5.26292 17.9408 5.24104 17.9133 5.22217L17.9118 5.22142C16.2765 3.78581 14.1737 2.99598 11.9978 3.00002C9.72394 3.00002 7.64811 3.84448 6.06575 5.23792L6.0755 5.22967C6.05648 5.24421 6.0389 5.26053 6.023 5.27842C5.07176 6.1208 4.31035 7.15644 3.7892 8.31528C3.26804 9.47413 2.99904 10.7305 3 12.0011C3 14.6635 4.15791 17.0552 5.9975 18.7006L6.0065 18.7081C6.03043 18.735 6.05707 18.7594 6.08599 18.7808L6.08749 18.7816C7.72224 20.2153 9.82344 21.0039 11.9978 21C14.1822 21.0033 16.2924 20.2073 17.9305 18.7621L17.9208 18.7703C18.8885 17.9289 19.6643 16.8894 20.1955 15.7222C20.7268 14.555 21.0011 13.2873 21 12.0049V11.9996L20.9985 11.9989ZM17.6523 17.8524C17.2063 17.492 16.7269 17.1751 16.2206 16.9059L16.1719 16.8819C16.6316 15.5567 16.9083 14.029 16.9346 12.4399V12.4279H20.1301C20.0226 14.4839 19.1377 16.4222 17.6545 17.8501L17.6523 17.8524ZM12.4282 16.7237C13.3904 16.7754 14.2896 16.9869 15.119 17.3311L15.065 17.3116C14.4005 18.8266 13.4654 19.8675 12.4282 20.0963V16.7237ZM12.4282 15.8657V12.4279H16.0789C16.0499 13.8515 15.803 15.2623 15.347 16.6112L15.3762 16.5129C14.4453 16.1297 13.4549 15.911 12.4492 15.8665L12.429 15.8657H12.4282ZM12.4282 11.5699V8.13204C13.461 8.08506 14.4778 7.85895 15.4332 7.46382L15.374 7.48557C15.7902 8.69977 16.0459 10.0992 16.0789 11.5541V11.5699H12.4282ZM12.4282 7.27408V3.90298C13.4654 4.13172 14.4005 5.16817 15.065 6.68761C14.2896 7.01009 13.3904 7.22083 12.45 7.27333L12.4282 7.27408ZM14.5685 4.27421C15.4525 4.56841 16.279 5.01291 17.0118 5.58815L16.9946 5.57465C16.6624 5.83564 16.2896 6.08163 15.8967 6.29537L15.8547 6.31637C15.538 5.56652 15.1013 4.87323 14.5618 4.26371L14.5685 4.27196V4.27421ZM11.5688 3.90523V7.27408C10.6437 7.22695 9.7336 7.02148 8.87801 6.66661L8.93201 6.68611C9.59945 5.17117 10.5331 4.13097 11.5703 3.90223L11.5688 3.90523ZM8.14307 6.31412C7.73665 6.09522 7.34933 5.8426 6.98517 5.5589L7.00317 5.5724C7.71461 5.01401 8.51533 4.57992 9.37147 4.28846L9.42846 4.27121C8.90362 4.86461 8.4761 5.53742 8.16182 6.26462L8.14307 6.31412ZM11.5703 8.13129V11.5691H7.91959C7.95259 10.0985 8.20832 8.69902 8.65378 7.38658L8.62453 7.48482C9.55547 7.86619 10.5451 8.08461 11.55 8.13054L11.5703 8.13129ZM11.5703 12.4271V15.865C10.5375 15.9119 9.52069 16.138 8.56529 16.5332L8.62453 16.5114C8.20832 15.298 7.95259 13.8978 7.91959 12.4429V12.4271H11.5703ZM11.5703 16.7229V20.094C10.5331 19.8653 9.59795 18.8288 8.93351 17.3094C9.70894 16.9869 10.6081 16.7769 11.5485 16.7244L11.5703 16.7229ZM9.43296 19.7228C8.54982 19.4281 7.72351 18.9848 6.98967 18.4118L7.00767 18.4253C7.33989 18.1644 7.71261 17.9184 8.10558 17.7046L8.14757 17.6836C8.46193 18.4336 8.89858 19.1263 9.43971 19.7333L9.43296 19.7258V19.7228ZM15.8554 17.6829C16.2904 17.9191 16.6631 18.1644 17.0133 18.4381L16.9953 18.4246C16.2839 18.983 15.4832 19.4171 14.627 19.7085L14.57 19.7258C15.0948 19.1326 15.5223 18.4601 15.8367 17.7331L15.8554 17.6844V17.6829ZM20.1301 11.5699H16.9346C16.9111 10.0182 16.6434 8.47992 16.1412 7.01159L16.1719 7.11509C16.7016 6.83608 17.2032 6.50656 17.6695 6.13113L17.6515 6.14463C19.1322 7.56677 20.0175 9.49812 20.1286 11.5481L20.1301 11.5699ZM6.34622 6.14538C6.77819 6.49636 7.2634 6.8181 7.77785 7.09184L7.8266 7.11584C7.36689 8.44103 7.09016 9.96871 7.06391 11.5579V11.5699H3.86768C3.97514 9.51386 4.86008 7.57554 6.34322 6.14763L6.34622 6.14538ZM3.86843 12.4279H7.06391C7.08736 13.9795 7.35512 15.5178 7.85735 16.9862L7.8266 16.8827C7.2634 17.1819 6.77894 17.5036 6.32897 17.8666L6.34697 17.8531C4.86634 16.431 3.98098 14.4996 3.86993 12.4496L3.86918 12.4286L3.86843 12.4279Z" fill="#3D4C5E"/>
</svg>
