<svg width="24" height="24" viewBox="0 0 24 24" fill="none" xmlns="http://www.w3.org/2000/svg">
<path d="M9.92207 10.1956C9.21212 9.48773 8.85714 8.6319 8.85714 7.62812C8.85714 6.62434 9.21212 5.76851 9.92207 5.06062C10.632 4.35273 11.4913 3.9992 12.5 4C13.5087 4.00081 14.368 4.35435 15.0779 5.06062C15.7879 5.76689 16.1429 6.62273 16.1429 7.62812C16.1429 8.63351 15.7879 9.48934 15.0779 10.1956C14.368 10.9019 13.5087 11.2554 12.5 11.2562C11.4913 11.257 10.632 10.9035 9.92207 10.1956ZM4 18.7447V18.0094C4 17.5103 4.14571 17.0435 4.43714 16.6089C4.72938 16.1735 5.122 15.8357 5.615 15.5955C6.76129 15.048 7.90838 14.6376 9.05629 14.3643C10.2034 14.0902 11.3513 13.9531 12.5 13.9531C13.6487 13.9531 14.797 14.0902 15.9449 14.3643C17.0928 14.6384 18.2391 15.0488 19.3838 15.5955C19.8776 15.8357 20.2702 16.1735 20.5616 16.6089C20.8539 17.0435 21 17.5103 21 18.0094V18.7447C21 19.0994 20.879 19.3977 20.6369 19.6396C20.3949 19.8799 20.0954 20 19.7384 20H5.26286C4.90586 20 4.60633 19.8795 4.36429 19.6384C4.12224 19.3973 4.00081 19.0994 4 18.7447ZM5.21429 18.7918H19.7857V18.0094C19.7857 17.7417 19.6987 17.4897 19.5246 17.2535C19.3514 17.0181 19.1114 16.8189 18.8046 16.6561C17.8056 16.1739 16.7767 15.8047 15.7179 15.5483C14.659 15.2919 13.5864 15.1637 12.5 15.1637C11.4136 15.1637 10.341 15.2919 9.28214 15.5483C8.22329 15.8047 7.19438 16.1739 6.19543 16.6561C5.88781 16.8189 5.64779 17.0181 5.47536 17.2535C5.30131 17.4897 5.21429 17.7421 5.21429 18.0106V18.7918ZM14.2158 9.33575C14.691 8.86248 14.9286 8.29327 14.9286 7.62812C14.9286 6.96296 14.691 6.39335 14.2158 5.91928C13.7406 5.4452 13.1687 5.20857 12.5 5.20937C11.8313 5.21018 11.2598 5.44681 10.7854 5.91928C10.311 6.39174 10.073 6.96135 10.0714 7.62812C10.0698 8.29489 10.3078 8.8641 10.7854 9.33575C11.263 9.80741 11.8346 10.0444 12.5 10.0469C13.1654 10.0493 13.7374 9.81225 14.2158 9.33575Z" fill="#3D4C5E"/>
</svg>
