<svg width="24" height="24" viewBox="0 0 24 24" fill="none" xmlns="http://www.w3.org/2000/svg">
<path fill-rule="evenodd" clip-rule="evenodd" d="M4.6703 3.71734C4.95003 3.43753 5.29341 3.22968 5.67103 3.11159C6.04865 2.9935 6.44927 2.96869 6.83858 3.03929C7.22789 3.10989 7.59429 3.27378 7.9064 3.51695C8.21851 3.76011 8.46704 4.0753 8.63071 4.43552L10.1675 7.81513C10.5465 8.6489 10.4252 9.61248 9.87663 10.324C9.69661 10.5562 9.47111 10.7002 9.29204 10.7911L6.63914 12.1517C7.297 13.2023 8.07193 14.175 8.94906 15.0509C9.82502 15.9281 10.7977 16.703 11.8483 17.3609L13.2089 14.708C13.3008 14.5279 13.4438 14.3034 13.676 14.1234C14.0281 13.8512 14.4479 13.6804 14.8901 13.6293C15.3322 13.5782 15.7799 13.6488 16.1849 13.8334L19.5645 15.3683C19.9247 15.532 20.2399 15.7805 20.4831 16.0927C20.7262 16.4048 20.8901 16.7712 20.9607 17.1605C21.0313 17.5498 21.0065 17.9504 20.8884 18.328C20.7703 18.7056 20.5625 19.049 20.2827 19.3288L19.2708 20.3416C19.0207 20.5954 18.7129 20.785 18.3737 20.8941C18.0345 21.0031 17.6739 21.0284 17.3228 20.9679C13.7677 20.3283 10.4943 18.614 7.9438 16.0562C5.38597 13.5057 3.6717 10.2323 3.03213 6.67723C2.97156 6.32609 2.99689 5.96551 3.10594 5.62629C3.215 5.28707 3.40455 4.97929 3.6584 4.72923M13.0866 18.061C14.5013 18.7796 16.0133 19.2878 17.5748 19.5694C17.7002 19.5892 17.8285 19.5783 17.9488 19.5377C18.0691 19.4971 18.1777 19.428 18.2655 19.3363L19.2774 18.3244C19.3949 18.2071 19.4822 18.063 19.5317 17.9045C19.5813 17.7461 19.5918 17.578 19.5622 17.4146C19.5325 17.2512 19.4637 17.0974 19.3617 16.9665C19.2596 16.8355 19.1273 16.7312 18.9761 16.6626L15.5965 15.1277C15.4266 15.051 15.2392 15.0217 15.0541 15.0429C14.8689 15.064 14.6929 15.1349 14.5448 15.248L14.5249 15.2708C14.5064 15.2983 14.4893 15.3267 14.4737 15.356L13.0866 18.061ZM5.93896 10.9134L8.64492 9.52815C8.67424 9.5123 8.70271 9.4949 8.7302 9.47604L8.75293 9.45709C8.98317 9.15864 9.03338 8.75313 8.87421 8.40446L7.33742 5.0239C7.26878 4.8727 7.16451 4.7404 7.03354 4.63833C6.90257 4.53626 6.74881 4.46747 6.58543 4.43785C6.42205 4.40823 6.25392 4.41866 6.09545 4.46825C5.93699 4.51785 5.79291 4.60512 5.67556 4.7226L4.66367 5.7345C4.57195 5.82227 4.50285 5.93093 4.46226 6.05121C4.42167 6.17149 4.41081 6.29981 4.43059 6.4252C4.70915 7.97147 5.21225 9.48552 5.93896 10.9134Z" fill="#3D4C5E"/>
</svg>
