<svg width="80" height="80" viewBox="0 0 80 80" fill="none" xmlns="http://www.w3.org/2000/svg">
<path d="M70 40C70 34.0666 68.2405 28.2664 64.9441 23.3329C61.6476 18.3994 56.9623 14.5543 51.4805 12.2836C45.9987 10.013 39.9667 9.4189 34.1473 10.5765C28.3279 11.734 22.9824 14.5912 18.7868 18.7868C14.5912 22.9824 11.734 28.3279 10.5765 34.1473C9.4189 39.9667 10.013 45.9987 12.2836 51.4805C14.5543 56.9623 18.3994 61.6476 23.3329 64.9441C28.2664 68.2405 34.0666 70 40 70C47.9565 70 55.5871 66.8393 61.2132 61.2132C66.8393 55.5871 70 47.9565 70 40ZM51.775 48.2C52.2406 48.6684 52.502 49.302 52.502 49.9625C52.502 50.623 52.2406 51.2566 51.775 51.725C51.5426 51.9593 51.2661 52.1453 50.9614 52.2722C50.6568 52.3992 50.33 52.4645 50 52.4645C49.67 52.4645 49.3432 52.3992 49.0386 52.2722C48.7339 52.1453 48.4574 51.9593 48.225 51.725L40.45 43.95C40.3303 43.8411 40.1743 43.7807 40.0125 43.7807C39.8507 43.7807 39.6947 43.8411 39.575 43.95L31.8 51.725C31.3218 52.1346 30.7066 52.3486 30.0774 52.3243C29.4482 52.3 28.8513 52.0392 28.4061 51.5939C27.9609 51.1487 27.7 50.5518 27.6757 49.9226C27.6514 49.2934 27.8654 48.6783 28.275 48.2L36.05 40.425C36.1589 40.3053 36.2193 40.1493 36.2193 39.9875C36.2193 39.8257 36.1589 39.6697 36.05 39.55L28.275 31.775C28.0407 31.5426 27.8547 31.2661 27.7278 30.9615C27.6009 30.6568 27.5355 30.33 27.5355 30C27.5355 29.67 27.6009 29.3432 27.7278 29.0386C27.8547 28.7339 28.0407 28.4574 28.275 28.225C28.7434 27.7594 29.377 27.498 30.0375 27.498C30.698 27.498 31.3316 27.7594 31.8 28.225L39.575 36C39.6311 36.0598 39.6989 36.1075 39.7741 36.14C39.8494 36.1726 39.9305 36.1894 40.0125 36.1894C40.0945 36.1894 40.1756 36.1726 40.2509 36.14C40.3261 36.1075 40.3939 36.0598 40.45 36L48.225 28.225C48.4581 27.9919 48.7348 27.807 49.0394 27.6809C49.3439 27.5547 49.6704 27.4898 50 27.4898C50.3297 27.4898 50.6561 27.5547 50.9606 27.6809C51.2652 27.807 51.5419 27.9919 51.775 28.225C52.0081 28.4581 52.193 28.7348 52.3192 29.0394C52.4453 29.3439 52.5102 29.6704 52.5102 30C52.5102 30.3297 52.4453 30.6561 52.3192 30.9606C52.193 31.2652 52.0081 31.5419 51.775 31.775L44 39.55C43.9402 39.6061 43.8926 39.6739 43.86 39.7491C43.8274 39.8244 43.8106 39.9055 43.8106 39.9875C43.8106 40.0695 43.8274 40.1506 43.86 40.2259C43.8926 40.3011 43.9402 40.3689 44 40.425L51.775 48.2Z" fill="#DB1111"/>
</svg>
