<svg width="44" height="44" viewBox="0 0 44 44" fill="none" xmlns="http://www.w3.org/2000/svg">
<path d="M0 16C0 7.16344 7.16344 0 16 0H28C36.8366 0 44 7.16344 44 16V28C44 36.8366 36.8366 44 28 44H16C7.16344 44 0 36.8366 0 28V16Z" fill="#FFFEF0"/>
<path d="M13.5 24.5C12.795 24.5 12.2021 24.2596 11.7212 23.7788C11.2404 23.2979 11 22.705 11 22C11 21.295 11.2404 20.7021 11.7212 20.2212C12.2021 19.7404 12.795 19.5 13.5 19.5V16.52C13.5 15.9642 13.6979 15.4887 14.0938 15.0938C14.4896 14.6988 14.9646 14.5008 15.5187 14.5H19.75C19.75 13.795 19.9904 13.2021 20.4712 12.7213C20.9521 12.2404 21.545 12 22.25 12C22.955 12 23.5479 12.2404 24.0288 12.7213C24.5096 13.2021 24.75 13.795 24.75 14.5H28.9813C29.5363 14.5 30.0112 14.6979 30.4062 15.0938C30.8013 15.4896 30.9992 15.9646 31 16.5187V19.5C31.705 19.5 32.2979 19.7404 32.7788 20.2212C33.2596 20.7021 33.5 21.295 33.5 22C33.5 22.705 33.2596 23.2979 32.7788 23.7788C32.2979 24.2596 31.705 24.5 31 24.5V29.9813C31 30.5363 30.8021 31.0112 30.4062 31.4062C30.0104 31.8013 29.5354 31.9992 28.9813 32H15.5187C14.9637 32 14.4887 31.8021 14.0938 31.4062C13.6988 31.0104 13.5008 30.5358 13.5 29.9825V24.5ZM19.3837 22.2612C19.6279 22.0187 19.75 21.7242 19.75 21.3775C19.75 21.0308 19.6287 20.7354 19.3862 20.4913C19.1437 20.2471 18.8492 20.125 18.5025 20.125C18.1558 20.125 17.8604 20.2463 17.6163 20.4888C17.3721 20.7313 17.25 21.0258 17.25 21.3725C17.25 21.7192 17.3713 22.0146 17.6138 22.2587C17.8563 22.5029 18.1508 22.625 18.4975 22.625C18.8442 22.625 19.1396 22.5037 19.3837 22.2612ZM26.8837 22.2612C27.1279 22.0187 27.25 21.7242 27.25 21.3775C27.25 21.0308 27.1287 20.7354 26.8862 20.4913C26.6437 20.2471 26.3492 20.125 26.0025 20.125C25.6558 20.125 25.3604 20.2463 25.1163 20.4888C24.8721 20.7313 24.75 21.0258 24.75 21.3725C24.75 21.7192 24.8713 22.0146 25.1138 22.2587C25.3563 22.5029 25.6508 22.625 25.9975 22.625C26.3442 22.625 26.6396 22.5037 26.8837 22.2612ZM18.5 27.625H26C26.1775 27.625 26.3258 27.565 26.445 27.445C26.5642 27.325 26.6242 27.1762 26.625 26.9987C26.6258 26.8212 26.5658 26.6729 26.445 26.5537C26.3242 26.4346 26.1758 26.375 26 26.375H18.5C18.3225 26.375 18.1742 26.435 18.055 26.555C17.9358 26.675 17.8758 26.8237 17.875 27.0012C17.8742 27.1787 17.9342 27.3271 18.055 27.4463C18.1758 27.5654 18.3242 27.625 18.5 27.625ZM15.52 30.75H28.9813C29.2054 30.75 29.3896 30.6779 29.5337 30.5337C29.6779 30.3896 29.75 30.2054 29.75 29.9813V16.5187C29.75 16.2946 29.6779 16.1104 29.5337 15.9662C29.3896 15.8221 29.2054 15.75 28.9813 15.75H15.5187C15.2946 15.75 15.1104 15.8221 14.9662 15.9662C14.8221 16.1104 14.75 16.295 14.75 16.52V29.9813C14.75 30.2054 14.8221 30.3896 14.9662 30.5337C15.1104 30.6779 15.295 30.75 15.52 30.75Z" fill="#FFC800"/>
</svg>
