<svg width="48" height="48" viewBox="0 0 48 48" fill="none" xmlns="http://www.w3.org/2000/svg">
<rect x="0.5" y="0.5" width="47" height="47" rx="15.5" stroke="#E5E7EB"/>
<path d="M16.2928 31.8367C16.1053 31.6492 16 31.3949 16 31.1297C16 30.8645 16.1053 30.6102 16.2928 30.4227L22.6568 24.0587L16.2928 17.6947C16.1106 17.5061 16.0098 17.2535 16.0121 16.9913C16.0144 16.7291 16.1196 16.4783 16.305 16.2929C16.4904 16.1075 16.7412 16.0023 17.0034 16C17.2656 15.9978 17.5182 16.0986 17.7068 16.2807L24.0708 22.6447L30.4348 16.2807C30.6234 16.0986 30.876 15.9978 31.1382 16C31.4004 16.0023 31.6512 16.1075 31.8366 16.2929C32.022 16.4783 32.1272 16.7291 32.1295 16.9913C32.1317 17.2535 32.0309 17.5061 31.8488 17.6947L25.4848 24.0587L31.8488 30.4227C32.0309 30.6113 32.1317 30.8639 32.1295 31.1261C32.1272 31.3883 32.022 31.6391 31.8366 31.8245C31.6512 32.0099 31.4004 32.1151 31.1382 32.1174C30.876 32.1197 30.6234 32.0189 30.4348 31.8367L24.0708 25.4727L17.7068 31.8367C17.5193 32.0242 17.265 32.1295 16.9998 32.1295C16.7346 32.1295 16.4803 32.0242 16.2928 31.8367Z" fill="#114ACA"/>
</svg>
