<svg width="44" height="44" viewBox="0 0 44 44" fill="none" xmlns="http://www.w3.org/2000/svg">
<path d="M0 16C0 7.16344 7.16344 0 16 0H28C36.8366 0 44 7.16344 44 16V28C44 36.8366 36.8366 44 28 44H16C7.16344 44 0 36.8366 0 28V16Z" fill="#F0F8FF"/>
<path d="M15.125 12C14.2962 12 13.5013 12.3292 12.9153 12.9153C12.3292 13.5013 12 14.2962 12 15.125V26.875C12 27.7038 12.3292 28.4987 12.9153 29.0847C13.5013 29.6708 14.2962 30 15.125 30H21.022C20.772 29.61 20.5625 29.191 20.4 28.75H15.125C14.6277 28.75 14.1508 28.5525 13.7992 28.2008C13.4475 27.8492 13.25 27.3723 13.25 26.875V15.125C13.25 14.6277 13.4475 14.1508 13.7992 13.7992C14.1508 13.4475 14.6277 13.25 15.125 13.25H26.875C27.3723 13.25 27.8492 13.4475 28.2008 13.7992C28.5525 14.1508 28.75 14.6277 28.75 15.125V20.4C29.191 20.5625 29.61 20.772 30 21.022V15.125C30 14.2962 29.6708 13.5013 29.0847 12.9153C28.4987 12.3292 27.7038 12 26.875 12H15.125ZM26.5 20C26.6627 20 26.8238 20.0058 26.9835 20.0175C26.9945 19.9718 27 19.9243 27 19.875C27 19.53 26.72 19.25 26.375 19.25H21.125C20.9592 19.25 20.8003 19.3158 20.6831 19.4331C20.5658 19.5503 20.5 19.7092 20.5 19.875C20.5 20.0408 20.5658 20.1997 20.6831 20.3169C20.8003 20.4342 20.9592 20.5 21.125 20.5H23.9955C24.7891 20.1694 25.6403 19.9994 26.5 20ZM15 15.625C15 15.28 15.28 15 15.625 15H26.375C26.5408 15 26.6997 15.0658 26.8169 15.1831C26.9342 15.3003 27 15.4592 27 15.625C27 15.7908 26.9342 15.9497 26.8169 16.0669C26.6997 16.1842 26.5408 16.25 26.375 16.25H15.625C15.28 16.25 15 15.97 15 15.625ZM19.5 19.75C19.5 20.0455 19.4418 20.3381 19.3287 20.611C19.2157 20.884 19.0499 21.1321 18.841 21.341C18.6321 21.5499 18.384 21.7157 18.111 21.8287C17.8381 21.9418 17.5455 22 17.25 22C16.9545 22 16.6619 21.9418 16.389 21.8287C16.116 21.7157 15.8679 21.5499 15.659 21.341C15.4501 21.1321 15.2843 20.884 15.1713 20.611C15.0582 20.3381 15 20.0455 15 19.75C15 19.1533 15.2371 18.581 15.659 18.159C16.081 17.7371 16.6533 17.5 17.25 17.5C17.8467 17.5 18.419 17.7371 18.841 18.159C19.2629 18.581 19.5 19.1533 19.5 19.75ZM18.25 19.75C18.25 19.4848 18.1446 19.2304 17.9571 19.0429C17.7696 18.8554 17.5152 18.75 17.25 18.75C16.9848 18.75 16.7304 18.8554 16.5429 19.0429C16.3554 19.2304 16.25 19.4848 16.25 19.75C16.25 20.0152 16.3554 20.2696 16.5429 20.4571C16.7304 20.6446 16.9848 20.75 17.25 20.75C17.5152 20.75 17.7696 20.6446 17.9571 20.4571C18.1446 20.2696 18.25 20.0152 18.25 19.75ZM17.25 27.5C17.8467 27.5 18.419 27.2629 18.841 26.841C19.2629 26.419 19.5 25.8467 19.5 25.25C19.5 24.6533 19.2629 24.081 18.841 23.659C18.419 23.2371 17.8467 23 17.25 23C16.6533 23 16.081 23.2371 15.659 23.659C15.2371 24.081 15 24.6533 15 25.25C15 25.8467 15.2371 26.419 15.659 26.841C16.081 27.2629 16.6533 27.5 17.25 27.5ZM17.25 26.25C16.9848 26.25 16.7304 26.1446 16.5429 25.9571C16.3554 25.7696 16.25 25.5152 16.25 25.25C16.25 24.9848 16.3554 24.7304 16.5429 24.5429C16.7304 24.3554 16.9848 24.25 17.25 24.25C17.5152 24.25 17.7696 24.3554 17.9571 24.5429C18.1446 24.7304 18.25 24.9848 18.25 25.25C18.25 25.5152 18.1446 25.7696 17.9571 25.9571C17.7696 26.1446 17.5152 26.25 17.25 26.25ZM32 26.5C32 29.5375 29.5375 32 26.5 32C23.4625 32 21 29.5375 21 26.5C21 23.4625 23.4625 21 26.5 21C29.5375 21 32 23.4625 32 26.5ZM27 23C27 22.8674 26.9473 22.7402 26.8536 22.6464C26.7598 22.5527 26.6326 22.5 26.5 22.5C26.3674 22.5 26.2402 22.5527 26.1464 22.6464C26.0527 22.7402 26 22.8674 26 23V26H23C22.8674 26 22.7402 26.0527 22.6464 26.1464C22.5527 26.2402 22.5 26.3674 22.5 26.5C22.5 26.6326 22.5527 26.7598 22.6464 26.8536C22.7402 26.9473 22.8674 27 23 27H26V30C26 30.1326 26.0527 30.2598 26.1464 30.3536C26.2402 30.4473 26.3674 30.5 26.5 30.5C26.6326 30.5 26.7598 30.4473 26.8536 30.3536C26.9473 30.2598 27 30.1326 27 30V27H30C30.1326 27 30.2598 26.9473 30.3536 26.8536C30.4473 26.7598 30.5 26.6326 30.5 26.5C30.5 26.3674 30.4473 26.2402 30.3536 26.1464C30.2598 26.0527 30.1326 26 30 26H27V23Z" fill="#155DFC"/>
</svg>
