<svg width="44" height="44" viewBox="0 0 44 44" fill="none" xmlns="http://www.w3.org/2000/svg">
<path d="M0 16C0 7.16344 7.16344 0 16 0H28C36.8366 0 44 7.16344 44 16V28C44 36.8366 36.8366 44 28 44H16C7.16344 44 0 36.8366 0 28V16Z" fill="#FFE9E0"/>
<path d="M23 12V31.1667M23 31.1667C21.3393 31.1667 19.7485 31.4611 18.2785 32M23 31.1667C24.6607 31.1667 26.2515 31.4611 27.7215 32M34 14.7667C32.8831 14.5407 31.7549 14.3481 30.6154 14.1889C28.0926 13.8386 25.5478 13.6641 23 13.6667C20.4153 13.6667 17.8723 13.8444 15.3846 14.1889C14.2451 14.3481 13.1169 14.5407 12 14.7667M30.6154 14.1889L33.5713 26.1067C33.7089 26.6611 33.4517 27.2489 32.9068 27.4422C32.1716 27.7018 31.3964 27.8341 30.6154 27.8333C29.8344 27.8341 29.0592 27.7018 28.324 27.4422C27.7791 27.2489 27.5218 26.6611 27.6584 26.1067L30.6154 14.1889ZM15.3846 14.1889L18.3405 26.1067C18.4782 26.6611 18.2209 27.2489 17.676 27.4422C16.9408 27.7018 16.1656 27.8341 15.3846 27.8333C14.6036 27.8341 13.8284 27.7018 13.0932 27.4422C12.5483 27.2489 12.2911 26.6611 12.4276 26.1067L15.3846 14.1889Z" stroke="#FC0303" stroke-width="1.5" stroke-linecap="round" stroke-linejoin="round"/>
</svg>
