<svg width="44" height="44" viewBox="0 0 44 44" fill="none" xmlns="http://www.w3.org/2000/svg">
<path d="M0 16C0 7.16344 7.16344 0 16 0H28C36.8366 0 44 7.16344 44 16V28C44 36.8366 36.8366 44 28 44H16C7.16344 44 0 36.8366 0 28V16Z" fill="#F0FFF1"/>
<path d="M10.7857 13.8182V28.3636C10.7857 28.8458 10.9739 29.3083 11.3087 29.6493C11.6436 29.9903 12.0978 30.1818 12.5714 30.1818H30.4286C30.9022 30.1818 31.3564 29.9903 31.6913 29.6493C32.0261 29.3083 32.2143 28.8458 32.2143 28.3636V13.8182H10.7857ZM10.7857 12H32.2143C32.6879 12 33.1421 12.1916 33.477 12.5325C33.8119 12.8735 34 13.336 34 13.8182V28.3636C34 29.3281 33.6237 30.253 32.954 30.9349C32.2842 31.6169 31.3758 32 30.4286 32H12.5714C11.6242 32 10.7158 31.6169 10.046 30.9349C9.37627 30.253 9 29.3281 9 28.3636V13.8182C9 13.336 9.18814 12.8735 9.52302 12.5325C9.85791 12.1916 10.3121 12 10.7857 12Z" fill="#59B862"/>
<path d="M32.9688 13L25.7178 21.2881C25.1898 21.8915 24.539 22.3751 23.8088 22.7064C23.0787 23.0378 22.2862 23.2092 21.4844 23.2092C20.6826 23.2092 19.8901 23.0378 19.1599 22.7064C18.4298 22.3751 17.7789 21.8915 17.251 21.2881L10 13H32.9688ZM12.4902 13L18.6602 20.0518C19.0121 20.4542 19.4461 20.7767 19.9329 20.9977C20.4198 21.2187 20.9483 21.333 21.4829 21.333C22.0176 21.333 22.546 21.2187 23.0329 20.9977C23.5197 20.7767 23.9537 20.4542 24.3057 20.0518L30.4785 13H12.4902Z" fill="#59B862"/>
</svg>
