<svg width="22" height="22" viewBox="0 0 22 22" fill="none" xmlns="http://www.w3.org/2000/svg">
<path d="M11 4.5833C11.0011 4.21666 10.9289 3.85351 10.7876 3.5152C10.6462 3.17689 10.4387 2.87026 10.1771 2.61333C9.91557 2.35641 9.60527 2.15438 9.26448 2.01913C8.9237 1.88389 8.55931 1.81815 8.19275 1.82579C7.82619 1.83343 7.46486 1.9143 7.13001 2.06363C6.79516 2.21295 6.49355 2.42774 6.24292 2.69534C5.99229 2.96294 5.7977 3.27795 5.67059 3.62185C5.54349 3.96576 5.48644 4.33161 5.5028 4.69788C4.96398 4.83642 4.46376 5.09576 4.04001 5.45625C3.61626 5.81674 3.2801 6.26893 3.05699 6.77858C2.83388 7.28822 2.72966 7.84195 2.75224 8.39783C2.77481 8.95372 2.92359 9.49718 3.1873 9.98705C2.72363 10.3637 2.35902 10.848 2.12519 11.3977C1.89136 11.9475 1.79539 12.546 1.84563 13.1413C1.89587 13.7366 2.0908 14.3106 2.41345 14.8133C2.73611 15.3161 3.17672 15.7324 3.69696 16.026C3.63272 16.5231 3.67106 17.028 3.80961 17.5097C3.94816 17.9913 4.18399 18.4395 4.50252 18.8264C4.82105 19.2134 5.21552 19.5309 5.66158 19.7594C6.10764 19.9879 6.59581 20.1226 7.09594 20.155C7.59608 20.1875 8.09755 20.1171 8.5694 19.9481C9.04125 19.7792 9.47346 19.5153 9.83933 19.1727C10.2052 18.8302 10.497 18.4163 10.6966 17.9566C10.8962 17.4969 10.9995 17.0011 11 16.5V4.5833Z" stroke="#155DFC" stroke-width="1.83333" stroke-linecap="round" stroke-linejoin="round"/>
<path d="M11 4.5833C10.9989 4.21666 11.0712 3.85351 11.2125 3.5152C11.3538 3.17689 11.5614 2.87026 11.8229 2.61333C12.0845 2.35641 12.3948 2.15438 12.7356 2.01913C13.0764 1.88389 13.4407 1.81815 13.8073 1.82579C14.1739 1.83343 14.5352 1.9143 14.8701 2.06363C15.2049 2.21295 15.5065 2.42774 15.7571 2.69534C16.0078 2.96294 16.2024 3.27795 16.3295 3.62185C16.4566 3.96576 16.5136 4.33161 16.4973 4.69788C17.0361 4.83642 17.5363 5.09576 17.9601 5.45625C18.3838 5.81674 18.72 6.26893 18.9431 6.77858C19.1662 7.28822 19.2704 7.84195 19.2478 8.39783C19.2252 8.95372 19.0765 9.49718 18.8128 9.98705C19.2764 10.3637 19.641 10.848 19.8749 11.3977C20.1087 11.9475 20.2047 12.546 20.1544 13.1413C20.1042 13.7366 19.9093 14.3106 19.5866 14.8133C19.264 15.3161 18.8233 15.7324 18.3031 16.026C18.3673 16.5231 18.329 17.028 18.1904 17.5097C18.0519 17.9913 17.8161 18.4395 17.4975 18.8264C17.179 19.2134 16.7845 19.5309 16.3385 19.7594C15.8924 19.9879 15.4042 20.1226 14.9041 20.155C14.404 20.1875 13.9025 20.1171 13.4307 19.9481C12.9588 19.7792 12.5266 19.5153 12.1607 19.1727C11.7949 18.8302 11.5031 18.4163 11.3035 17.9566C11.1038 17.4969 11.0005 17.0011 11 16.5V4.5833Z" stroke="#155DFC" stroke-width="1.83333" stroke-linecap="round" stroke-linejoin="round"/>
<path d="M13.75 11.9167C12.9804 11.6459 12.3084 11.1531 11.8189 10.5004C11.3294 9.84776 11.0444 9.06461 11 8.25C10.9556 9.06461 10.6706 9.84776 10.1811 10.5004C9.69162 11.1531 9.01959 11.6459 8.25 11.9167" stroke="#155DFC" stroke-width="1.83333" stroke-linecap="round" stroke-linejoin="round"/>
<path d="M16.1324 5.95829C16.3543 5.57383 16.4798 5.14138 16.4982 4.69788" stroke="#155DFC" stroke-width="1.83333" stroke-linecap="round" stroke-linejoin="round"/>
<path d="M5.50281 4.69788C5.52093 5.1413 5.64611 5.57375 5.86764 5.95829" stroke="#155DFC" stroke-width="1.83333" stroke-linecap="round" stroke-linejoin="round"/>
<path d="M3.18726 9.988C3.35495 9.85142 3.5344 9.72995 3.72351 9.625" stroke="#155DFC" stroke-width="1.83333" stroke-linecap="round" stroke-linejoin="round"/>
<path d="M18.2765 9.625C18.4656 9.72995 18.645 9.85142 18.8127 9.988" stroke="#155DFC" stroke-width="1.83333" stroke-linecap="round" stroke-linejoin="round"/>
<path d="M5.49998 16.5C4.86824 16.5003 4.24714 16.3373 3.6969 16.027" stroke="#155DFC" stroke-width="1.83333" stroke-linecap="round" stroke-linejoin="round"/>
<path d="M18.3031 16.027C17.7528 16.3373 17.1317 16.5003 16.5 16.5" stroke="#155DFC" stroke-width="1.83333" stroke-linecap="round" stroke-linejoin="round"/>
</svg>
