<svg width="22" height="22" viewBox="0 0 22 22" fill="none" xmlns="http://www.w3.org/2000/svg">
<path d="M12.8334 16.5001V5.50008C12.8334 5.01385 12.6402 4.54754 12.2964 4.20372C11.9526 3.8599 11.4863 3.66675 11 3.66675H3.66671C3.18048 3.66675 2.71416 3.8599 2.37034 4.20372C2.02653 4.54754 1.83337 5.01385 1.83337 5.50008V15.5834C1.83337 15.8265 1.92995 16.0597 2.10186 16.2316C2.27377 16.4035 2.50693 16.5001 2.75004 16.5001H4.58337" stroke="#155DFC" stroke-width="1.83333" stroke-linecap="round" stroke-linejoin="round"/>
<path d="M13.75 16.5H8.25" stroke="#155DFC" stroke-width="1.83333" stroke-linecap="round" stroke-linejoin="round"/>
<path d="M17.4167 16.4999H19.25C19.4932 16.4999 19.7263 16.4033 19.8982 16.2314C20.0701 16.0595 20.1667 15.8264 20.1667 15.5833V12.2374C20.1663 12.0294 20.0952 11.8277 19.965 11.6654L16.775 7.67792C16.6893 7.57056 16.5805 7.48384 16.4568 7.42418C16.333 7.36452 16.1974 7.33345 16.06 7.33325H12.8334" stroke="#155DFC" stroke-width="1.83333" stroke-linecap="round" stroke-linejoin="round"/>
<path d="M15.5833 18.3334C16.5959 18.3334 17.4167 17.5126 17.4167 16.5001C17.4167 15.4876 16.5959 14.6667 15.5833 14.6667C14.5708 14.6667 13.75 15.4876 13.75 16.5001C13.75 17.5126 14.5708 18.3334 15.5833 18.3334Z" stroke="#155DFC" stroke-width="1.83333" stroke-linecap="round" stroke-linejoin="round"/>
<path d="M6.41671 18.3334C7.42923 18.3334 8.25004 17.5126 8.25004 16.5001C8.25004 15.4876 7.42923 14.6667 6.41671 14.6667C5.40419 14.6667 4.58337 15.4876 4.58337 16.5001C4.58337 17.5126 5.40419 18.3334 6.41671 18.3334Z" stroke="#155DFC" stroke-width="1.83333" stroke-linecap="round" stroke-linejoin="round"/>
</svg>
