<svg width="22" height="22" viewBox="0 0 22 22" fill="none" xmlns="http://www.w3.org/2000/svg">
<g clip-path="url(#clip0_2376_7220)">
<path d="M3.52916 7.90172C3.39536 7.29903 3.41591 6.67232 3.58889 6.07969C3.76187 5.48707 4.08168 4.94771 4.51867 4.51163C4.95567 4.07555 5.49569 3.75686 6.08868 3.58513C6.68167 3.41339 7.30842 3.39416 7.91083 3.52922C8.24239 3.01066 8.69916 2.58391 9.23903 2.28831C9.7789 1.99271 10.3845 1.83777 11 1.83777C11.6155 1.83777 12.2211 1.99271 12.761 2.28831C13.3008 2.58391 13.7576 3.01066 14.0892 3.52922C14.6925 3.39357 15.3203 3.41272 15.9142 3.58487C16.5082 3.75702 17.0489 4.07659 17.4862 4.51386C17.9234 4.95112 18.243 5.49187 18.4152 6.0858C18.5873 6.67974 18.6065 7.30756 18.4708 7.91088C18.9894 8.24245 19.4161 8.69922 19.7117 9.23909C20.0073 9.77896 20.1623 10.3846 20.1623 11C20.1623 11.6155 20.0073 12.2211 19.7117 12.761C19.4161 13.3009 18.9894 13.7576 18.4708 14.0892C18.6059 14.6916 18.5867 15.3184 18.4149 15.9114C18.2432 16.5043 17.9245 17.0444 17.4884 17.4814C17.0523 17.9184 16.513 18.2382 15.9203 18.4112C15.3277 18.5841 14.701 18.6047 14.0983 18.4709C13.7672 18.9914 13.3101 19.42 12.7693 19.7169C12.2285 20.0138 11.6215 20.1695 11.0046 20.1695C10.3876 20.1695 9.78067 20.0138 9.23988 19.7169C8.69909 19.42 8.24196 18.9914 7.91083 18.4709C7.30842 18.6059 6.68167 18.5867 6.08868 18.415C5.49569 18.2432 4.95567 17.9246 4.51867 17.4885C4.08168 17.0524 3.76187 16.513 3.58889 15.9204C3.41591 15.3278 3.39536 14.7011 3.52916 14.0984C3.00662 13.7677 2.57621 13.3102 2.27795 12.7685C1.9797 12.2268 1.8233 11.6184 1.8233 11C1.8233 10.3817 1.9797 9.77331 2.27795 9.2316C2.57621 8.68989 3.00662 8.23241 3.52916 7.90172Z" stroke="#155DFC" stroke-width="1.83333" stroke-linecap="round" stroke-linejoin="round"/>
<path d="M8.25 11L10.0833 12.8333L13.75 9.16663" stroke="#155DFC" stroke-width="1.83333" stroke-linecap="round" stroke-linejoin="round"/>
</g>
<defs>
<clipPath id="clip0_2376_7220">
<rect width="22" height="22" fill="white"/>
</clipPath>
</defs>
</svg>
