<svg width="22" height="22" viewBox="0 0 22 22" fill="none" xmlns="http://www.w3.org/2000/svg">
<path d="M19.25 13.75C19.25 14.2362 19.0568 14.7025 18.713 15.0464C18.3692 15.3902 17.9029 15.5833 17.4167 15.5833H6.41667L2.75 19.25V4.58333C2.75 4.0971 2.94315 3.63079 3.28697 3.28697C3.63079 2.94315 4.0971 2.75 4.58333 2.75H17.4167C17.9029 2.75 18.3692 2.94315 18.713 3.28697C19.0568 3.63079 19.25 4.0971 19.25 4.58333V13.75Z" stroke="#155DFC" stroke-width="1.83333" stroke-linecap="round" stroke-linejoin="round"/>
<path d="M12.375 6.38208C12.8219 6.38208 13.2504 6.5594 13.5667 6.87511C14.2083 7.51677 14.3 8.61677 13.475 9.44177L11 11.9168L8.525 9.44177C8.35647 9.29732 8.21805 9.12109 8.11763 8.92313C8.0172 8.72518 7.95676 8.50939 7.93973 8.28808C7.92271 8.06676 7.94944 7.84427 8.01841 7.63328C8.08737 7.4223 8.19722 7.22697 8.34167 7.05844C8.48612 6.88991 8.66236 6.75148 8.86031 6.65106C9.05826 6.55064 9.27405 6.49019 9.49537 6.47317C9.71668 6.45615 9.93918 6.48288 10.1502 6.55184C10.3611 6.62081 10.5565 6.73065 10.725 6.87511L11 7.15011L11.1833 6.87511C11.4996 6.5594 11.9282 6.38208 12.375 6.38208Z" stroke="#155DFC" stroke-width="1.83333" stroke-linecap="round" stroke-linejoin="round"/>
</svg>
