<svg width="30" height="30" viewBox="0 0 30 30" fill="none" xmlns="http://www.w3.org/2000/svg">
<path d="M13.6875 18.572L19.885 12.3745L18.9925 11.4832L13.6875 16.7882L11.015 14.1145L10.1225 15.007L13.6875 18.572ZM15 26.1994C12.4892 25.4545 10.4029 23.9336 8.74125 21.637C7.07958 19.3403 6.24917 16.7528 6.25 13.8745V7.11445L15 3.8457L23.75 7.11445V13.8745C23.75 16.7528 22.9196 19.3403 21.2588 21.637C19.5979 23.9336 17.5117 25.4557 15 26.2032M15 24.8757C17.1667 24.1882 18.9583 22.8132 20.375 20.7507C21.7917 18.6882 22.5 16.3965 22.5 13.8757V7.9682L15 5.1807L7.5 7.9682V13.8745C7.5 16.3953 8.20833 18.687 9.625 20.7495C11.0417 22.812 12.8333 24.1882 15 24.8757Z" fill="#155DFC"/>
</svg>
